<?xml version="1.0" encoding="utf-8"?><svg viewBox="0 0 45 43" xmlns="http://www.w3.org/2000/svg" xmlns:xlink="http://www.w3.org/1999/xlink"><style>:root>svg{display:none}:root>svg:target{display:block}</style><svg fill="none" viewBox="0 0 22 16" id="burger-icon" xmlns="http://www.w3.org/2000/svg"><path d="M1 1h20M1 8h20M1 15h20" stroke="#303030" stroke-width="2" stroke-linecap="round"/></svg><svg fill="none" viewBox="0 0 44 43" id="footer-fb" xmlns="http://www.w3.org/2000/svg"><g clip-path="url(#bclip0)"><path d="M3.667 14.233C10.123 3.886 20.779-.507 31.293 1.292c2.839.469 5.741 1.564 7.934 3.832 2.774 2.816 4.193 7.274 4.645 11.654.516 5.397-.516 11.185-3.29 15.409-2.967 4.458-7.547 6.883-12.062 8.447a46.673 46.673 0 0 1-9.096 2.112c-5.483.704-11.482.156-15.546-4.38-2.58-2.894-3.999-7.118-3.87-11.263.13-4.146 1.384-9.224 3.659-12.87z" fill="#5674DE"/><path d="M20.097 33.009h4.456v-11.14h3.128l.343-3.742h-3.47v-2.126c0-.893.17-1.233 1.028-1.233h2.442v-3.827H24.94c-3.342 0-4.842 1.446-4.842 4.252v2.977h-2.314v3.784h2.314v11.055z" fill="#fff"/></g><defs><clipPath id="bclip0"><path fill="#fff" transform="translate(0 .899)" d="M0 0h44v42.101H0z"/></clipPath></defs></svg><svg fill="none" viewBox="0 0 43 41" id="footer-inst" xmlns="http://www.w3.org/2000/svg"><path d="M5.412 5.91C11.87-.292 19.6-.68 22.514.58c4.22 1.793 9.036.29 12.957 3.053 3.92 2.762 7.02 7.803 7.468 13.57.486 5.961-1.98 11.922-5.527 15.751-3.547 3.829-8.065 5.913-12.583 7.076-3.772.97-7.655 1.405-11.427.388-5.713-1.6-10.828-6.98-12.695-14.2C-1.16 18.995.744 10.32 5.56 6.007" fill="#F54EA8"/><path fill-rule="evenodd" clip-rule="evenodd" d="M25.094 13.179c-.946-.038-1.21-.038-3.594-.038-1.463 0-2.128.014-2.642.025-.323.007-.587.013-.952.013-.87.038-1.362.19-1.665.305-.416.19-.718.381-1.022.686-.34.305-.53.61-.68 1.03-.114.343-.265.8-.303 1.678-.038.953-.038 1.22-.038 3.623 0 2.402 0 2.669.038 3.622.038.877.189 1.373.303 1.678.19.42.378.725.68 1.03.304.343.606.534 1.022.686.341.115.795.267 1.665.305.945.038 1.21.038 3.594.038 2.383 0 2.648 0 3.594-.038.87-.038 1.362-.19 1.664-.305.416-.19.719-.381 1.022-.686.34-.305.53-.61.68-1.03.114-.343.265-.8.303-1.678.038-.953.038-1.22.038-3.622 0-2.403 0-2.67-.038-3.623-.038-.877-.189-1.373-.303-1.678-.189-.42-.378-.725-.68-1.03a2.322 2.322 0 0 0-1.022-.686c-.34-.115-.795-.267-1.664-.305zm-7.264-1.602c.946-.038 1.249-.038 3.67-.038 2.42 0 2.724 0 3.669.038.946.038 1.589.19 2.157.42a4.234 4.234 0 0 1 1.588 1.03c.492.495.795 1.029 1.022 1.601.227.572.378 1.22.416 2.174.038.953.038 1.258.038 3.697v.002c0 2.44 0 2.745-.038 3.699-.038.953-.19 1.601-.416 2.173a4.277 4.277 0 0 1-1.022 1.602c-.491.496-1.02.8-1.588 1.03-.568.228-1.21.38-2.157.419-.945.038-1.248.038-3.67.038-2.42 0-2.724 0-3.669-.038-.946-.038-1.589-.19-2.157-.42a4.233 4.233 0 0 1-1.588-1.03c-.492-.495-.794-1.029-1.022-1.6-.226-.573-.378-1.22-.416-2.174-.038-.954-.038-1.259-.038-3.7 0-2.44 0-2.745.038-3.698.038-.954.19-1.602.416-2.174a4.971 4.971 0 0 1 1.022-1.602c.53-.495 1.021-.8 1.588-1.03.568-.228 1.211-.38 2.157-.419zm-.908 8.923c0-2.555 2.043-4.614 4.577-4.614 2.536 0 4.578 2.06 4.578 4.614 0 2.555-2.043 4.615-4.578 4.615-2.534 0-4.577-2.06-4.577-4.614zm1.627.039c0 1.64 1.324 2.974 2.95 2.974 1.627 0 2.951-1.335 2.951-2.974 0-1.64-1.324-2.975-2.95-2.975-1.627 0-2.951 1.335-2.951 2.975z" fill="#fff"/></svg><svg fill="none" viewBox="0 0 45 40" id="footer-twitter" xmlns="http://www.w3.org/2000/svg"><path d="M2.163 12.988C7.617 5.25 16.344.368 25.343.01 31.07-.167 37.288 1.738 40.78 6.738c2.727 3.869 3.381 8.928 3.927 13.75.381 3.512.654 7.321-.928 10.476-1.854 3.69-5.89 5.417-9.599 6.607-4.8 1.548-9.817 2.679-14.78 2.381-4.964-.297-10.036-2.262-13.527-6.19-3.054-3.393-4.69-7.977-5.672-12.5-.546-2.44 0-5.489 1.963-8.274z" fill="#5FC5FF"/><path d="M14.285 27.467a10.39 10.39 0 0 0 5.914 1.83c7.146 0 11.17-6.407 10.965-12.161.74-.567 1.397-1.308 1.93-2.136-.697.305-1.437.566-2.217.653a4.176 4.176 0 0 0 1.684-2.266 6.91 6.91 0 0 1-2.464 1.002c-.699-.784-1.684-1.307-2.793-1.307-2.505 0-4.312 2.44-3.737 5.013-3.245-.131-6.079-1.744-7.968-4.229-1.026 1.831-.534 4.229 1.191 5.45-.616 0-1.232-.219-1.724-.524-.042 1.874 1.231 3.662 3.08 4.054-.534.174-1.15.174-1.725.087.493 1.613 1.93 2.79 3.614 2.834-1.684 1.351-3.696 1.961-5.75 1.7z" fill="#fff"/></svg><svg fill="none" viewBox="0 0 22 20" id="header-fb" xmlns="http://www.w3.org/2000/svg"><path d="M1.77 7.605C4.53 2.345 10.11-.715 15.4.143c1.428.224 2.889.747 3.992 1.829 1.395 1.343 2.11 3.47 2.337 5.559.26 2.574.528 5.925-.868 7.94-1.492 2.126-3.796 3.283-6.068 4.029-1.493.485-3.838.231-5.364.418-2.758.335-4.64-.329-6.685-2.493C1.446 16.045.732 14.03.797 12.052c.065-1.977-.162-3.514 1.201-4.708" fill="#DBDBDB"/><path d="M10.149 17h2.61v-6.058h1.833l.201-2.034h-2.034V7.75c0-.485.1-.67.603-.67h1.431V5h-1.808c-1.958 0-2.836.786-2.836 2.312v1.619H8.793v2.057h1.356V17z" fill="#fff"/></svg><svg fill="none" viewBox="0 0 22 20" id="header-inst" xmlns="http://www.w3.org/2000/svg"><path d="M3.436 2.883c3.154-3.026 6.93-3.215 8.352-2.6 2.06.874 4.413.142 6.328 1.49 1.914 1.347 3.428 3.805 3.647 6.619.237 2.908-.966 5.816-2.7 7.683-1.731 1.868-3.938 2.884-6.144 3.452-1.842.473-3.739.685-5.58.189-2.79-.78-5.29-3.405-6.2-6.927-.913-3.523.018-7.754 2.37-9.858" fill="#DBDBDB"/><path d="M10.793 5.894c1.34 0 1.49 0 2.022.02.489.022.744.107.935.171.235.085.405.192.575.383.17.17.276.34.383.575.064.17.149.446.17.936.021.532.021.68.021 2.021 0 1.34 0 1.49-.02 2.021-.022.49-.107.745-.171.936a1.305 1.305 0 0 1-.383.575c-.17.17-.34.277-.575.383-.17.064-.447.149-.935.17-.533.021-.681.021-2.022.021-1.34 0-1.49 0-2.021-.02a3.033 3.033 0 0 1-.936-.171 1.307 1.307 0 0 1-.575-.383c-.17-.17-.276-.34-.383-.575-.064-.17-.149-.446-.17-.936-.021-.532-.021-.68-.021-2.021 0-1.34 0-1.49.02-2.021.022-.49.107-.745.171-.936a1.31 1.31 0 0 1 .383-.575c.17-.17.34-.277.575-.383.17-.064.446-.149.936-.17.531 0 .68-.021 2.021-.021zm0-.894c-1.362 0-1.532 0-2.064.021-.532.022-.893.107-1.213.234a2.772 2.772 0 0 0-.893.575 2.772 2.772 0 0 0-.575.893c-.127.32-.212.681-.234 1.213-.021.532-.021.702-.021 2.064s0 1.532.021 2.064c.022.532.107.893.234 1.213.128.319.298.617.575.893.276.277.553.447.893.575.32.127.681.213 1.213.234.532.021.702.021 2.064.021s1.532 0 2.064-.021.893-.107 1.213-.234a2.56 2.56 0 0 0 .893-.575 2.38 2.38 0 0 0 .575-.893c.127-.32.212-.681.234-1.213.021-.532.021-.702.021-2.064s0-1.532-.021-2.064c-.022-.532-.107-.893-.234-1.213a2.563 2.563 0 0 0-.575-.893 2.383 2.383 0 0 0-.893-.575c-.32-.127-.681-.212-1.213-.234C12.325 5 12.155 5 10.793 5z" fill="#fff"/><path d="M10.793 7c-1.661 0-3 1.339-3 3s1.339 3 3 3 3-1.339 3-3-1.339-3-3-3zm0 4.959a1.936 1.936 0 0 1-1.933-1.934c0-1.066.867-1.934 1.933-1.934s1.934.868 1.934 1.934a1.936 1.936 0 0 1-1.934 1.934zm3.353-4.604a.499.499 0 1 1-1 0c0-.286.232-.5.5-.5.268-.018.5.214.5.5z" fill="#fff"/></svg><svg fill="none" viewBox="0 0 23 20" id="header-twitter" xmlns="http://www.w3.org/2000/svg"><path d="M1.85 6.494C4.518 2.624 8.784.184 13.184.006c2.8-.09 5.84.863 7.546 3.363 1.334 1.934 1.654 4.464 1.92 6.875.187 1.756.32 3.66-.453 5.238-.907 1.845-2.88 2.708-4.693 3.304-2.347.773-4.8 1.339-7.226 1.19-2.427-.149-4.907-1.13-6.613-3.095C2.17 15.184 1.37 12.893.89 10.63c-.267-1.22 0-2.744.96-4.137z" fill="#DBDBDB"/><path d="M5.793 13.984A7.34 7.34 0 0 0 9.566 15c4.559 0 7.126-3.556 6.995-6.75a5.042 5.042 0 0 0 1.232-1.185c-.445.169-.917.314-1.415.362.498-.29.89-.725 1.074-1.258-.471.266-.995.46-1.572.557A2.549 2.549 0 0 0 14.1 6c-1.599 0-2.752 1.355-2.385 2.782-2.07-.072-3.877-.967-5.083-2.347-.655 1.017-.34 2.347.76 3.025-.393 0-.786-.121-1.1-.29-.026 1.04.786 2.032 1.965 2.25-.34.096-.734.096-1.1.048.314.895 1.23 1.548 2.305 1.572a5.339 5.339 0 0 1-3.668.944z" fill="#fff"/></svg><svg fill="none" viewBox="0 0 26 25" id="star" xmlns="http://www.w3.org/2000/svg"><path d="M11.805 1.256c.339-.827 1.51-.827 1.85 0l2.647 6.454a1 1 0 0 0 .85.618l6.956.523c.892.067 1.254 1.181.572 1.76l-5.32 4.511a1 1 0 0 0-.325 1l1.652 6.777c.212.87-.736 1.558-1.497 1.088l-5.935-3.666a1 1 0 0 0-1.05 0l-5.936 3.666c-.76.47-1.709-.219-1.497-1.088l1.653-6.777a1 1 0 0 0-.325-1L.78 10.611c-.683-.579-.32-1.693.571-1.76l6.957-.523a1 1 0 0 0 .85-.618l2.647-6.454z" fill="#FBAC37"/></svg></svg>