<svg width="125" height="54" viewBox="0 0 125 54" fill="none" xmlns="http://www.w3.org/2000/svg">
<g clip-path="url(#clip0)">
<path d="M76.0019 15.5738C76.1029 14.9095 76.1547 14.2389 76.1569 13.5672C76.0791 10.0191 74.5997 6.64228 72.0357 4.1602C69.4717 1.67811 66.0271 0.288177 62.4398 0.288177C58.8525 0.288177 55.4078 1.67811 52.8439 4.1602C50.2799 6.64228 48.8005 10.0191 48.7227 13.5672C48.7227 13.7141 48.7227 13.8611 48.7227 14.0081C55.6991 13.1007 64.8396 13.0687 76.0019 15.5738Z" fill="#F5A506"/>
<path d="M92.5975 20.782C57.7475 6.84428 36.5533 16.7816 33.7369 18.2642L33.4785 18.4047L33.401 18.4431C32.8399 18.795 32.4091 19.3173 32.1732 19.9317C31.9372 20.5461 31.9087 21.2196 32.092 21.8513C32.2753 22.4831 32.6605 23.0391 33.1899 23.4362C33.7193 23.8333 34.3645 24.05 35.0288 24.054C35.632 24.0609 36.2236 23.8896 36.7277 23.5619C54.5823 12.2698 92.281 21.747 92.281 21.747H92.3198H92.3973C92.5367 21.747 92.6704 21.6927 92.7696 21.5958C92.8687 21.4989 92.9253 21.3672 92.927 21.2294C92.9213 21.1314 92.8872 21.0371 92.8287 20.9578C92.7703 20.8785 92.6901 20.8174 92.5975 20.782Z" fill="#408927"/>
<path d="M3.29246 48.3061C2.93314 48.2987 2.57727 48.3767 2.25469 48.5335C1.93212 48.6903 1.65224 48.9213 1.43854 49.2072C1.0337 49.7629 0.809451 50.4275 0.795604 51.1124C0.781758 51.7973 0.978969 52.4701 1.36102 53.0415C1.57487 53.3525 1.86456 53.6052 2.20329 53.7761C2.54202 53.947 2.91886 54.0306 3.29892 54.0192C3.65503 54.0291 4.00838 53.9547 4.32967 53.8025C4.65096 53.6502 4.93093 53.4244 5.14639 53.1437C5.58614 52.5793 5.81443 51.8814 5.79236 51.1691C5.80607 50.5054 5.60709 49.8544 5.22391 49.3094C5.01454 48.9937 4.72736 48.736 4.38945 48.5604C4.05154 48.3849 3.67402 48.2974 3.29246 48.3061ZM4.77819 51.1563C4.78488 51.6021 4.6759 52.0421 4.46167 52.4344C4.34813 52.6397 4.17791 52.8087 3.97088 52.9219C3.76385 53.0351 3.52855 53.0876 3.29246 53.0734C3.05637 53.0876 2.82108 53.0351 2.61405 52.9219C2.40702 52.8087 2.2368 52.6397 2.12326 52.4344C1.90126 52.0336 1.79196 51.5812 1.80674 51.1243C1.8033 50.7612 1.87131 50.4009 2.00699 50.0635C2.09227 49.7942 2.26526 49.5604 2.49896 49.3985C2.73267 49.2367 3.01395 49.1559 3.29892 49.1688C3.53417 49.1599 3.76743 49.2146 3.97349 49.3273C4.17955 49.4399 4.35059 49.6061 4.46813 49.8079C4.69474 50.2206 4.80202 50.6872 4.77819 51.1563Z" fill="#C4390A"/>
<path d="M13.9707 48.306C13.846 48.2989 13.7234 48.3405 13.6292 48.4217C13.535 48.5029 13.4768 48.6174 13.4668 48.7406L12.8661 52.332L11.8196 48.6831C11.7916 48.5762 11.7285 48.4815 11.6402 48.414C11.552 48.3464 11.4435 48.3098 11.3319 48.3098C11.2203 48.3098 11.1119 48.3464 11.0236 48.414C10.9353 48.4815 10.8722 48.5762 10.8442 48.6831L9.79128 52.3257L9.19053 48.7406C9.17903 48.618 9.12029 48.5045 9.02649 48.4236C8.93268 48.3427 8.811 48.3006 8.68667 48.306C8.62333 48.3038 8.5602 48.3145 8.50128 48.3376C8.44235 48.3607 8.3889 48.3957 8.34431 48.4402C8.30177 48.4842 8.2689 48.5365 8.24777 48.5937C8.22665 48.6508 8.21773 48.7118 8.22157 48.7725C8.22467 48.8905 8.23764 49.0081 8.26033 49.124L9.07425 53.4376C9.0908 53.5618 9.13733 53.6801 9.2099 53.7827C9.26936 53.8555 9.3455 53.9131 9.43201 53.9509C9.51852 53.9887 9.6129 54.0055 9.7073 54C9.79026 54.0055 9.87346 53.9935 9.95141 53.9649C10.0294 53.9363 10.1003 53.8916 10.1595 53.8338C10.2613 53.7262 10.3326 53.594 10.3662 53.4504L11.3222 50.0762L12.2783 53.4504C12.2957 53.5464 12.3327 53.6379 12.3871 53.7192C12.4416 53.8005 12.5122 53.87 12.5948 53.9233C12.6958 53.9774 12.8095 54.0038 12.9242 54C13.0196 54.006 13.1151 53.9895 13.2027 53.9517C13.2904 53.9139 13.3676 53.856 13.4281 53.7827C13.5003 53.6793 13.5488 53.5615 13.5702 53.4376L14.3776 49.1176C14.4052 49.0002 14.4204 48.8803 14.4229 48.7597C14.4241 48.7006 14.4133 48.6419 14.3911 48.587C14.3689 48.5321 14.3358 48.4822 14.2937 48.4402C14.2078 48.3555 14.0919 48.3074 13.9707 48.306Z" fill="#C4390A"/>
<path d="M20.7591 48.4274C20.7062 48.4774 20.6649 48.5381 20.6381 48.6055C20.6114 48.6728 20.5997 48.7451 20.604 48.8173V52.1787L18.1687 48.7214C18.094 48.6085 18.005 48.5054 17.9039 48.4147C17.81 48.3419 17.6936 48.3036 17.5744 48.306C17.4388 48.306 17.1158 48.3635 17.1158 48.8492V53.4887C17.1097 53.6191 17.1535 53.7469 17.2385 53.8466C17.307 53.9209 17.3972 53.9723 17.4965 53.9938C17.5958 54.0153 17.6994 54.0057 17.793 53.9664C17.8866 53.9271 17.9655 53.8601 18.0189 53.7745C18.0724 53.689 18.0976 53.5891 18.0912 53.4887V50.1273L20.5265 53.5846C20.5936 53.7012 20.6811 53.8051 20.7849 53.8913C20.8812 53.9641 20.9996 54.0024 21.1208 54C21.2565 54 21.573 53.9425 21.573 53.4568V48.8173C21.5791 48.6869 21.5353 48.5591 21.4502 48.4594C21.3602 48.3691 21.239 48.3158 21.111 48.3098C20.9829 48.3039 20.8573 48.3459 20.7591 48.4274Z" fill="#C4390A"/>
<path d="M26.9215 49.271C26.9849 49.2778 27.0489 49.2707 27.1092 49.2501C27.1694 49.2296 27.2243 49.1962 27.27 49.1522C27.3156 49.1083 27.3509 49.0549 27.3733 48.9959C27.3957 48.9369 27.4047 48.8737 27.3996 48.8109C27.4037 48.7486 27.394 48.6861 27.3711 48.6279C27.3483 48.5697 27.3129 48.5172 27.2673 48.4739C27.2218 48.4307 27.1672 48.3978 27.1075 48.3777C27.0478 48.3575 26.9843 48.3505 26.9215 48.3572H24.9836C24.9151 48.35 24.8458 48.3581 24.781 48.381C24.7161 48.404 24.6572 48.4411 24.6088 48.4896C24.5604 48.5381 24.5237 48.5967 24.5013 48.6612C24.479 48.7257 24.4716 48.7943 24.4798 48.862V53.444C24.4716 53.5117 24.479 53.5803 24.5013 53.6448C24.5237 53.7093 24.5604 53.768 24.6088 53.8165C24.6572 53.865 24.7161 53.9021 24.781 53.925C24.8458 53.9479 24.9151 53.9561 24.9836 53.9489H26.9215C26.9868 53.9565 27.0529 53.9504 27.1156 53.9309C27.1783 53.9115 27.2361 53.8791 27.2852 53.8359C27.3343 53.7927 27.3736 53.7398 27.4005 53.6805C27.4274 53.6212 27.4414 53.5569 27.4414 53.4919C27.4414 53.427 27.4274 53.3627 27.4005 53.3034C27.3736 53.2441 27.3343 53.1912 27.2852 53.148C27.2361 53.1048 27.1783 53.0724 27.1156 53.053C27.0529 53.0335 26.9868 53.0274 26.9215 53.035H25.481V51.6099H26.773C26.8404 51.6204 26.9094 51.6152 26.9745 51.5948C27.0396 51.5743 27.0989 51.5391 27.1478 51.4919C27.1967 51.4448 27.2339 51.387 27.2563 51.3232C27.2786 51.2593 27.2857 51.1912 27.2768 51.1243C27.2811 51.0613 27.2713 50.9983 27.2481 50.9396C27.2249 50.8808 27.1888 50.8279 27.1425 50.7846C27.0963 50.7412 27.0409 50.7085 26.9803 50.6888C26.9198 50.6691 26.8556 50.6629 26.7923 50.6705H25.5004V49.271H26.9215Z" fill="#C4390A"/>
<path d="M32.0697 48.3572H30.7777C30.7095 48.3512 30.6407 48.3602 30.5764 48.3836C30.5121 48.4069 30.4538 48.444 30.4056 48.4923C30.3575 48.5405 30.3207 48.5987 30.2979 48.6626C30.2752 48.7265 30.2669 48.7946 30.2739 48.8621V53.4441C30.2669 53.5115 30.2752 53.5797 30.2979 53.6436C30.3207 53.7075 30.3575 53.7657 30.4056 53.8139C30.4538 53.8622 30.5121 53.8993 30.5764 53.9226C30.6407 53.946 30.7095 53.955 30.7777 53.949H32.173C32.5864 53.9666 32.9969 53.8739 33.3616 53.6806C33.7086 53.4833 33.9945 53.1961 34.1884 52.8498C34.4804 52.322 34.6211 51.7254 34.5954 51.1243C34.6193 50.4671 34.4291 49.8196 34.0528 49.2775C33.8261 48.9726 33.5258 48.7287 33.1795 48.568C32.8331 48.4072 32.4516 48.3348 32.0697 48.3572ZM33.5812 51.1243C33.598 51.5689 33.4955 52.0099 33.2841 52.4024C33.1623 52.6237 32.9788 52.8058 32.7556 52.927C32.5323 53.0482 32.2785 53.1035 32.0244 53.0862H31.2299V49.2072H31.9792C32.2384 49.1949 32.4961 49.2534 32.7239 49.3762C32.9518 49.4991 33.1411 49.6816 33.2712 49.9037C33.4789 50.2775 33.5857 50.6979 33.5812 51.1243Z" fill="#C4390A"/>
<path d="M44.35 50.8942C44.4063 50.8502 44.4582 50.801 44.505 50.7472C44.7396 50.4853 44.8644 50.1448 44.8538 49.795C44.857 49.6107 44.822 49.4277 44.7509 49.2574C44.6798 49.087 44.5741 48.9329 44.4404 48.8045C44.2849 48.6538 44.0997 48.5363 43.8963 48.4594C43.693 48.3824 43.4758 48.3476 43.2583 48.3572H42.0891C42.0206 48.35 41.9513 48.3581 41.8864 48.381C41.8215 48.404 41.7627 48.4411 41.7143 48.4896C41.6659 48.5381 41.6292 48.5967 41.6068 48.6612C41.5845 48.7257 41.5771 48.7943 41.5853 48.862V53.444C41.5771 53.5117 41.5845 53.5803 41.6068 53.6448C41.6292 53.7093 41.6659 53.768 41.7143 53.8165C41.7627 53.865 41.8215 53.9021 41.8864 53.925C41.9513 53.9479 42.0206 53.9561 42.0891 53.9489H43.381C43.6409 53.9614 43.9007 53.922 44.1448 53.8331C44.389 53.7441 44.6125 53.6075 44.8022 53.4312C44.9594 53.2794 45.0835 53.0973 45.1668 52.8961C45.2501 52.695 45.2909 52.4791 45.2866 52.2618C45.2947 51.8894 45.1584 51.5281 44.9055 51.2521C44.7524 51.09 44.5618 50.9671 44.35 50.8942ZM43.704 50.3957C43.632 50.4613 43.5475 50.5121 43.4555 50.545C43.3634 50.5779 43.2656 50.5924 43.1679 50.5875H42.5671V49.2071H43.2131C43.4008 49.1926 43.5867 49.2523 43.7299 49.3732C43.7957 49.4369 43.8471 49.5137 43.8805 49.5986C43.914 49.6834 43.9287 49.7744 43.9237 49.8653C43.9264 49.9652 43.907 50.0644 43.8668 50.156C43.8267 50.2477 43.7667 50.3295 43.6911 50.3957H43.704ZM44.3112 52.249C44.3149 52.3531 44.2966 52.4568 44.2577 52.5536C44.2188 52.6504 44.16 52.7382 44.0851 52.8114C43.9872 52.9032 43.8714 52.9743 43.7448 53.0204C43.6182 53.0666 43.4835 53.0868 43.3487 53.0798H42.5542V51.431H43.3617C43.4915 51.4232 43.6215 51.4419 43.7438 51.4858C43.866 51.5298 43.9778 51.5981 44.0722 51.6866C44.1468 51.7601 44.2054 51.8479 44.2443 51.9446C44.2831 52.0413 44.3015 52.1449 44.2983 52.249H44.3112Z" fill="#C4390A"/>
<path d="M50.9271 48.3061C50.8331 48.3085 50.7416 48.3358 50.662 48.3853C50.5824 48.4348 50.5178 48.5046 50.4749 48.5873L49.3639 50.3766L48.2593 48.5681C48.2142 48.4844 48.1473 48.4141 48.0655 48.3647C47.9837 48.3152 47.89 48.2884 47.7942 48.2869C47.7318 48.2852 47.6698 48.2962 47.612 48.3193C47.5542 48.3424 47.5019 48.3771 47.4583 48.4211C47.4199 48.4598 47.3898 48.5058 47.3698 48.5564C47.3498 48.6069 47.3403 48.6609 47.342 48.7151C47.3486 48.8424 47.3936 48.9648 47.4712 49.0666L48.8794 51.3416V53.4888C48.8732 53.6191 48.9171 53.747 49.0021 53.8467C49.0485 53.8956 49.1045 53.9344 49.1668 53.9608C49.229 53.9872 49.2961 54.0006 49.3639 54.0001C49.4855 54.0038 49.6038 53.9602 49.6933 53.8786C49.7458 53.8284 49.7869 53.7676 49.8136 53.7004C49.8404 53.6331 49.8522 53.561 49.8483 53.4888V51.3608L51.263 49.0857C51.337 48.9797 51.3816 48.8563 51.3922 48.7279C51.3903 48.6181 51.3464 48.513 51.2695 48.4339C51.1763 48.3492 51.0536 48.3035 50.9271 48.3061Z" fill="#C4390A"/>
<path d="M60.8669 48.3573H58.2119C58.1489 48.3494 58.085 48.3556 58.0247 48.3754C57.9645 48.3951 57.9094 48.4279 57.8636 48.4714C57.8178 48.5149 57.7824 48.5679 57.7599 48.6267C57.7375 48.6854 57.7286 48.7484 57.7339 48.811C57.7288 48.8738 57.7377 48.937 57.7601 48.996C57.7825 49.055 57.8178 49.1084 57.8635 49.1523C57.9092 49.1963 57.9641 49.2297 58.0243 49.2502C58.0845 49.2708 58.1486 49.2779 58.2119 49.2711H59.0581V53.4889C59.0532 53.618 59.0943 53.7447 59.1744 53.8467C59.2217 53.8961 59.2789 53.9352 59.3423 53.9616C59.4056 53.988 59.4739 54.0011 59.5426 54.0001C59.6639 54.0019 59.7815 53.9585 59.8721 53.8787C59.9246 53.8285 59.9656 53.7677 59.9924 53.7004C60.0191 53.6332 60.031 53.561 60.0271 53.4889V49.2711H60.8669C60.9302 49.2779 60.9943 49.2708 61.0545 49.2502C61.1147 49.2297 61.1696 49.1963 61.2153 49.1523C61.261 49.1084 61.2962 49.055 61.3186 48.996C61.341 48.937 61.35 48.8738 61.3449 48.811C61.349 48.7487 61.3393 48.6862 61.3165 48.628C61.2936 48.5698 61.2582 48.5173 61.2126 48.474C61.1671 48.4308 61.1125 48.398 61.0528 48.3778C60.9931 48.3576 60.9296 48.3506 60.8669 48.3573Z" fill="#C4390A"/>
<path d="M67.825 48.3061C67.6829 48.3061 67.3405 48.3636 67.3405 48.8557V50.7089H64.8342V48.8557C64.8342 48.3636 64.4983 48.3061 64.3497 48.3061C64.2011 48.3061 63.8652 48.3636 63.8652 48.8557V53.4505C63.8652 53.9425 64.2076 54.0001 64.3497 54.0001C64.4918 54.0001 64.8342 53.9425 64.8342 53.4505V51.5844H67.3276V53.4505C67.3276 53.9425 67.67 54.0001 67.8186 54.0001C67.9671 54.0001 68.303 53.9425 68.303 53.4505V48.8557C68.316 48.3636 67.9736 48.3061 67.825 48.3061Z" fill="#C4390A"/>
<path d="M73.658 49.2711C73.7213 49.2778 73.7854 49.2707 73.8456 49.2502C73.9059 49.2296 73.9608 49.1962 74.0064 49.1523C74.0521 49.1083 74.0874 49.0549 74.1098 48.9959C74.1322 48.9369 74.1412 48.8738 74.136 48.8109C74.1402 48.7486 74.1305 48.6862 74.1076 48.628C74.0848 48.5698 74.0493 48.5172 74.0038 48.474C73.9583 48.4307 73.9037 48.3979 73.844 48.3777C73.7842 48.3576 73.7208 48.3506 73.658 48.3572H71.7589C71.6901 48.3502 71.6206 48.3584 71.5555 48.3813C71.4904 48.4042 71.4312 48.4412 71.3823 48.4896C71.3334 48.5379 71.2961 48.5964 71.2729 48.6609C71.2498 48.7253 71.2415 48.794 71.2485 48.8621V53.4441C71.2415 53.5121 71.2498 53.5808 71.2729 53.6453C71.2961 53.7097 71.3334 53.7682 71.3823 53.8166C71.4312 53.8649 71.4904 53.9019 71.5555 53.9248C71.6206 53.9477 71.6901 53.9559 71.7589 53.9489H73.658C73.7233 53.9566 73.7894 53.9505 73.8521 53.931C73.9147 53.9115 73.9725 53.8791 74.0217 53.836C74.0708 53.7928 74.1101 53.7398 74.137 53.6805C74.1639 53.6213 74.1778 53.557 74.1778 53.492C74.1778 53.427 74.1639 53.3628 74.137 53.3035C74.1101 53.2442 74.0708 53.1912 74.0217 53.148C73.9725 53.1049 73.9147 53.0725 73.8521 53.053C73.7894 53.0336 73.7233 53.0274 73.658 53.0351H72.2175V51.61H73.5094C73.5728 51.6168 73.6368 51.6097 73.6971 51.5891C73.7573 51.5686 73.8122 51.5351 73.8579 51.4912C73.9035 51.4472 73.9388 51.3939 73.9612 51.3349C73.9836 51.2759 73.9926 51.2127 73.9875 51.1499C73.9916 51.0876 73.9819 51.0251 73.959 50.9669C73.9362 50.9087 73.9008 50.8561 73.8552 50.8129C73.8097 50.7697 73.7551 50.7368 73.6954 50.7167C73.6357 50.6965 73.5722 50.6895 73.5094 50.6961H72.2175V49.2711H73.658Z" fill="#C4390A"/>
<path d="M83.8503 48.811C83.6953 48.3957 83.4305 48.3062 83.2044 48.3062C83.0542 48.3029 82.9075 48.3515 82.7896 48.4436C82.6717 48.5358 82.5899 48.6657 82.5584 48.811L80.8983 53.1886C80.8427 53.3099 80.8078 53.4394 80.7949 53.572C80.7949 53.6333 80.8088 53.6939 80.8356 53.7492C80.8625 53.8045 80.9015 53.8532 80.95 53.8915C81.0106 53.9563 81.0878 54.0037 81.1733 54.0288C81.2589 54.0539 81.3497 54.0557 81.4362 54.0342C81.5228 54.0126 81.6018 53.9684 81.6652 53.9062C81.7285 53.844 81.7738 53.7661 81.7962 53.6806L82.0998 52.8307H84.3607L84.6707 53.6806C84.6989 53.7814 84.7596 53.8702 84.8436 53.9337C84.9275 53.9972 85.0302 54.0317 85.1358 54.0321C85.2018 54.0354 85.2677 54.0245 85.329 54.0002C85.3903 53.976 85.4456 53.9389 85.4911 53.8915C85.5287 53.8536 85.5584 53.8086 85.5783 53.7592C85.5983 53.7099 85.6082 53.6571 85.6074 53.6039C85.6045 53.5275 85.5892 53.452 85.5622 53.3803L83.8503 48.811ZM84.0506 51.9296H82.4163L83.2302 49.661L84.0506 51.9296Z" fill="#C4390A"/>
<path d="M91.8347 48.4275C91.7795 48.476 91.7363 48.5363 91.7083 48.6039C91.6803 48.6715 91.6683 48.7445 91.6732 48.8173V52.1787L89.2379 48.7215C89.1669 48.6076 89.0799 48.5043 88.9795 48.4147C88.8827 48.3429 88.7646 48.3047 88.6436 48.3061C88.5079 48.3061 88.1914 48.3636 88.1914 48.8493V53.4888C88.1914 53.6159 88.2424 53.7378 88.3333 53.8277C88.4242 53.9176 88.5474 53.9681 88.6759 53.9681C88.8044 53.9681 88.9276 53.9176 89.0185 53.8277C89.1093 53.7378 89.1604 53.6159 89.1604 53.4888V50.1274L91.5957 53.5847C91.665 53.6997 91.7522 53.8032 91.854 53.8914C91.9509 53.9632 92.0689 54.0014 92.19 54C92.3256 54 92.6486 53.9425 92.6486 53.4568V48.8173C92.6529 48.6872 92.6093 48.5601 92.5258 48.4594C92.435 48.3705 92.3141 48.318 92.1865 48.3121C92.0588 48.3062 91.9335 48.3473 91.8347 48.4275Z" fill="#C4390A"/>
<path d="M95.7497 48.4275C95.6968 48.4774 95.6555 48.5382 95.6287 48.6055C95.602 48.6728 95.5903 48.7451 95.5946 48.8173V53.4888C95.5885 53.6191 95.6323 53.7469 95.7174 53.8466C95.8108 53.9338 95.9345 53.9824 96.0629 53.9824C96.1914 53.9824 96.315 53.9338 96.4085 53.8466C96.4611 53.7964 96.5021 53.7356 96.5288 53.6684C96.5556 53.6011 96.5674 53.529 96.5636 53.4568V48.8173C96.5717 48.6867 96.5276 48.5582 96.4408 48.4594C96.35 48.3705 96.2291 48.318 96.1014 48.3121C95.9738 48.3062 95.8485 48.3473 95.7497 48.4275Z" fill="#C4390A"/>
<path d="M104.644 48.9388C104.644 48.8515 104.626 48.7652 104.591 48.685C104.556 48.6049 104.505 48.5327 104.441 48.4728C104.377 48.4129 104.301 48.3667 104.218 48.3369C104.135 48.3072 104.047 48.2945 103.959 48.2997C103.813 48.2838 103.666 48.322 103.547 48.407C103.428 48.492 103.344 48.6177 103.313 48.7599L102.306 52.1532L101.311 48.7599C101.27 48.6228 101.185 48.5031 101.068 48.4197C100.951 48.3363 100.809 48.2941 100.665 48.2997C100.577 48.2945 100.489 48.3072 100.406 48.3369C100.323 48.3667 100.247 48.4129 100.183 48.4728C100.119 48.5327 100.068 48.6049 100.033 48.685C99.9978 48.7652 99.9799 48.8515 99.98 48.9388L99.2566 53.1885C99.2322 53.2935 99.2171 53.4004 99.2113 53.508C99.2046 53.5726 99.2123 53.6379 99.2336 53.6993C99.255 53.7607 99.2897 53.8168 99.3351 53.8636C99.3806 53.9104 99.4359 53.9469 99.497 53.9705C99.5582 53.994 99.6238 54.0042 99.6894 54.0001C99.8103 54.0074 99.9295 53.9683 100.022 53.8909C100.115 53.8136 100.174 53.7039 100.187 53.5847L100.71 49.9868L101.795 53.6167C101.823 53.7235 101.886 53.8182 101.975 53.8857C102.063 53.9533 102.171 53.9899 102.283 53.9899C102.395 53.9899 102.503 53.9533 102.591 53.8857C102.679 53.8182 102.743 53.7235 102.771 53.6167L103.856 49.9868L104.379 53.5847C104.392 53.7051 104.452 53.8158 104.546 53.8933C104.64 53.9708 104.761 54.0091 104.883 54.0001C104.948 54.0042 105.012 53.9942 105.073 53.971C105.133 53.9477 105.188 53.9117 105.233 53.8655C105.278 53.8193 105.312 53.7639 105.333 53.7033C105.354 53.6426 105.361 53.5782 105.354 53.5144C105.35 53.4285 105.339 53.3431 105.322 53.2588L104.644 48.9388Z" fill="#C4390A"/>
<path d="M110.763 48.811C110.608 48.3957 110.343 48.3062 110.117 48.3062C109.966 48.3029 109.82 48.3515 109.702 48.4436C109.584 48.5358 109.502 48.6657 109.471 48.811L107.804 53.1886C107.752 53.3106 107.719 53.44 107.707 53.572C107.706 53.6336 107.719 53.6947 107.746 53.7502C107.773 53.8057 107.813 53.8542 107.862 53.8915C107.951 53.9638 108.064 54.0023 108.179 54.0002C108.285 54.0001 108.389 53.9658 108.474 53.9024C108.559 53.839 108.621 53.7499 108.65 53.6487L108.954 52.7987H111.254L111.564 53.6487C111.592 53.7494 111.652 53.8383 111.736 53.9017C111.82 53.9652 111.923 53.9998 112.029 54.0002C112.095 54.0034 112.161 53.9925 112.222 53.9683C112.283 53.944 112.338 53.9069 112.384 53.8596C112.422 53.8216 112.451 53.7766 112.471 53.7273C112.491 53.6779 112.501 53.6251 112.5 53.572C112.497 53.4955 112.482 53.42 112.455 53.3483L110.763 48.811ZM110.963 51.9296H109.316L110.13 49.661L110.963 51.9296Z" fill="#C4390A"/>
<path d="M117.331 53.0414H116.072V48.8237C116.08 48.6931 116.036 48.5645 115.949 48.4658C115.854 48.3814 115.731 48.3347 115.603 48.3347C115.476 48.3347 115.353 48.3814 115.258 48.4658C115.204 48.5152 115.161 48.5757 115.133 48.643C115.105 48.7103 115.093 48.7829 115.096 48.8556V53.4824C115.089 53.5504 115.097 53.6191 115.121 53.6836C115.144 53.748 115.181 53.8065 115.23 53.8549C115.279 53.9032 115.338 53.9402 115.403 53.9631C115.468 53.986 115.538 53.9942 115.607 53.9872H117.331C117.396 53.9949 117.463 53.9888 117.525 53.9693C117.588 53.9498 117.646 53.9174 117.695 53.8743C117.744 53.8311 117.783 53.7781 117.81 53.7188C117.837 53.6595 117.851 53.5953 117.851 53.5303C117.851 53.4653 117.837 53.401 117.81 53.3418C117.783 53.2825 117.744 53.2295 117.695 53.1863C117.646 53.1432 117.588 53.1108 117.525 53.0913C117.463 53.0718 117.396 53.0657 117.331 53.0734V53.0414Z" fill="#C4390A"/>
<path d="M122.235 50.53C121.946 50.4576 121.674 50.3295 121.434 50.153C121.382 50.1038 121.34 50.0443 121.312 49.9782C121.285 49.9122 121.271 49.8411 121.273 49.7695C121.27 49.696 121.284 49.6228 121.311 49.5546C121.339 49.4864 121.381 49.4247 121.434 49.3733C121.508 49.3067 121.595 49.2555 121.689 49.2225C121.783 49.1896 121.883 49.1757 121.983 49.1816C122.214 49.1833 122.438 49.2522 122.629 49.3797C122.952 49.5778 123.165 49.5523 123.333 49.3797C123.375 49.3387 123.408 49.2899 123.43 49.2361C123.452 49.1823 123.463 49.1247 123.463 49.0666C123.463 48.8237 123.275 48.6192 122.913 48.4723C122.621 48.3523 122.307 48.2915 121.99 48.2933C121.75 48.2855 121.512 48.3269 121.29 48.4149C121.067 48.5029 120.866 48.6356 120.698 48.8046C120.564 48.9429 120.46 49.1063 120.391 49.2853C120.322 49.4642 120.29 49.6549 120.297 49.8462C120.295 50.1419 120.388 50.4306 120.562 50.6706C120.906 51.0398 121.358 51.2943 121.854 51.3991C122.153 51.4695 122.435 51.6 122.681 51.7826C122.742 51.8385 122.79 51.907 122.821 51.9832C122.852 52.0594 122.866 52.1414 122.862 52.2235C122.865 52.3418 122.844 52.4595 122.799 52.5694C122.755 52.6793 122.688 52.7791 122.603 52.8626C122.388 53.0359 122.119 53.1305 121.841 53.1305C121.564 53.1305 121.294 53.0359 121.079 52.8626C120.967 52.7818 120.836 52.7311 120.698 52.7156C120.625 52.7133 120.553 52.7312 120.491 52.7674C120.428 52.8036 120.376 52.8565 120.343 52.9201C120.297 53.0023 120.272 53.0945 120.271 53.1885C120.271 53.4377 120.459 53.6486 120.833 53.8275C121.177 53.9612 121.543 54.0284 121.912 54.0256C122.178 54.0366 122.442 53.9934 122.69 53.8989C122.938 53.8043 123.164 53.6604 123.353 53.476C123.525 53.3105 123.66 53.1114 123.75 52.8914C123.84 52.6714 123.883 52.4352 123.876 52.1979C123.881 51.8782 123.784 51.565 123.598 51.3033C123.241 50.9062 122.762 50.6348 122.235 50.53Z" fill="#C4390A"/>
<path d="M10.1719 42.8166C10.4345 43.075 10.7898 43.22 11.1602 43.22C11.5306 43.22 11.8859 43.075 12.1485 42.8166C12.2834 42.6814 12.389 42.5205 12.459 42.3436C12.529 42.1667 12.5618 41.9776 12.5555 41.7878V31.1156C12.5624 30.7455 12.4209 30.3877 12.1618 30.1206C11.9027 29.8535 11.5472 29.6989 11.1731 29.6905C10.803 29.691 10.448 29.8356 10.1848 30.0931C9.98039 30.2975 9.84886 30.5622 9.81013 30.8472C9.60451 30.677 9.38881 30.5191 9.16417 30.3743C8.42445 29.918 7.56821 29.6808 6.69657 29.6905C5.85685 29.6707 5.02428 29.8474 4.2666 30.2061C3.50892 30.5647 2.84754 31.0953 2.33628 31.7546C1.28647 33.0982 0.740773 34.7607 0.792419 36.4581C0.750634 38.0542 1.22597 39.6217 2.14895 40.9314C2.64702 41.6608 3.32173 42.2552 4.11156 42.6604C4.90139 43.0656 5.78119 43.2687 6.67073 43.2512C7.83853 43.249 8.95795 42.7894 9.7843 41.9731C9.8149 42.2891 9.95131 42.586 10.1719 42.8166ZM9.752 36.4261C9.77943 37.392 9.55708 38.3489 9.10603 39.206C8.88907 39.6344 8.55189 39.9918 8.13487 40.2355C7.71785 40.4792 7.23866 40.5988 6.7547 40.58C6.26863 40.6007 5.78676 40.4828 5.36646 40.2404C4.94617 39.9979 4.60515 39.6411 4.384 39.2124C3.93078 38.3538 3.70834 37.3943 3.73803 36.4261C3.72671 35.6438 3.86931 34.8667 4.15791 34.1383C4.32192 33.5893 4.66355 33.1088 5.13034 32.7706C5.59713 32.4323 6.16327 32.255 6.74179 32.2659C7.22648 32.2524 7.70524 32.374 8.12333 32.617C8.54142 32.86 8.88196 33.2144 9.10603 33.6398C9.56781 34.5068 9.79061 35.4788 9.752 36.4581V36.4261Z" fill="#C4390A"/>
<path d="M17.7424 41.6983V25.722C17.7592 25.3332 17.6278 24.9523 17.3742 24.6548C17.2361 24.5109 17.0682 24.3982 16.882 24.3243C16.6959 24.2504 16.4958 24.2171 16.2954 24.2266C15.9318 24.2164 15.5781 24.3445 15.3071 24.5845C15.1495 24.7351 15.0264 24.9175 14.9461 25.1193C14.8659 25.321 14.8304 25.5375 14.842 25.754V41.7303C14.8267 42.1208 14.9578 42.5032 15.2102 42.8039C15.35 42.9526 15.5203 43.07 15.7097 43.1482C15.8991 43.2265 16.1032 43.2638 16.3083 43.2576C16.6706 43.2645 17.0218 43.1342 17.2902 42.8934C17.4515 42.7406 17.5759 42.5538 17.6542 42.3469C17.7325 42.14 17.7626 41.9184 17.7424 41.6983Z" fill="#C4390A"/>
<path d="M32.9431 29.6904C31.9834 29.6683 31.041 29.9456 30.2494 30.4828C29.8473 30.7768 29.4848 31.1205 29.1707 31.5053C28.8892 31.1181 28.5543 30.7718 28.1759 30.4765C27.4485 29.9481 26.5652 29.6719 25.663 29.6904C24.7837 29.665 23.9184 29.9131 23.189 30.3998C23.0721 30.4853 22.9599 30.577 22.8531 30.6746C22.792 30.4775 22.6909 30.2948 22.5559 30.1378C22.4163 29.9893 22.2459 29.8724 22.0564 29.7952C21.8668 29.718 21.6626 29.6822 21.4578 29.6904C21.0956 29.6771 20.7428 29.8057 20.4759 30.0483C20.3159 30.1961 20.1907 30.3769 20.1092 30.5779C20.0277 30.7789 19.9919 30.9952 20.0044 31.2114V41.6982C19.9891 42.0888 20.1202 42.4711 20.3726 42.7718C20.6424 43.0462 21.008 43.2083 21.3946 43.2249C21.7812 43.2415 22.1597 43.1115 22.4526 42.8613C22.6133 42.7141 22.739 42.5334 22.8206 42.3322C22.9021 42.1311 22.9375 41.9145 22.9241 41.6982V34.7517C22.8812 34.1039 23.0891 33.4641 23.5055 32.9624C23.7167 32.7421 23.9744 32.5706 24.2602 32.4602C24.5461 32.3497 24.853 32.303 25.1592 32.3233C25.7271 32.292 26.2852 32.4798 26.716 32.8473C26.9639 33.0996 27.1552 33.4007 27.2777 33.731C27.4001 34.0614 27.4508 34.4135 27.4265 34.7645V41.6982C27.4106 42.09 27.5443 42.4733 27.8012 42.7718C27.9382 42.9205 28.1062 43.038 28.2935 43.1164C28.4809 43.1947 28.6832 43.2319 28.8864 43.2256C29.245 43.2288 29.5922 43.1014 29.8618 42.8677C30.0203 42.7174 30.1443 42.5352 30.2257 42.3335C30.307 42.1318 30.3438 41.9152 30.3334 41.6982V34.7517C30.2905 34.1039 30.4983 33.4641 30.9148 32.9624C31.1258 32.7401 31.3844 32.5674 31.6717 32.4569C31.9589 32.3463 32.2675 32.3007 32.5749 32.3233C33.1403 32.2963 33.6948 32.4837 34.1252 32.8473C34.3731 33.0996 34.5645 33.4007 34.6869 33.731C34.8094 34.0614 34.8601 34.4135 34.8358 34.7645V41.6982C34.8203 42.0858 34.949 42.4655 35.1975 42.7654C35.4668 43.0426 35.8333 43.207 36.2215 43.2248C36.6096 43.2427 36.9899 43.1125 37.284 42.8613C37.4448 42.7141 37.5704 42.5334 37.652 42.3322C37.7335 42.1311 37.7689 41.9145 37.7556 41.6982V34.8284C37.8196 33.5032 37.3768 32.2027 36.5153 31.1858C36.0632 30.6976 35.5102 30.3113 34.8938 30.0533C34.2774 29.7953 33.6121 29.6715 32.9431 29.6904Z" fill="#C4390A"/>
<path d="M49.8289 41.1551C50.8824 39.8152 51.4327 38.1549 51.3857 36.4581C51.4283 34.8609 50.9505 33.2925 50.0227 31.9847C49.5145 31.2896 48.8514 30.7196 48.0848 30.3186C47.3182 29.9177 46.4686 29.6966 45.6018 29.6725C44.735 29.6484 43.8742 29.8219 43.0861 30.1797C42.2979 30.5374 41.6036 31.0697 41.0567 31.7355C39.9951 33.0908 39.4446 34.7699 39.4999 36.4836C39.4595 38.0598 39.9304 39.6073 40.8435 40.8995C41.3516 41.5957 42.015 42.1669 42.7822 42.5686C43.5494 42.9703 44.3999 43.1917 45.2675 43.2158C46.1352 43.2399 46.9969 43.066 47.7857 42.7075C48.5745 42.3491 49.2692 41.8157 49.816 41.1487L49.8289 41.1551ZM47.8006 39.2379C47.5654 39.653 47.2227 39.9986 46.8077 40.2391C46.3928 40.4796 45.9205 40.6064 45.4396 40.6064C44.9586 40.6064 44.4864 40.4796 44.0714 40.2391C43.6564 39.9986 43.3137 39.653 43.0786 39.2379C42.6296 38.3778 42.4075 37.4194 42.4326 36.4517C42.4201 35.6687 42.565 34.891 42.8589 34.1639C43.022 33.6143 43.3634 33.1332 43.8304 32.7948C44.2974 32.4564 44.864 32.2795 45.4428 32.2914C45.9264 32.2791 46.4038 32.4014 46.8206 32.6443C47.2375 32.8872 47.577 33.241 47.8006 33.6654C48.2597 34.5218 48.4825 35.4829 48.4465 36.4517C48.4783 37.4201 48.2557 38.38 47.8006 39.2379Z" fill="#C4390A"/>
<path d="M65.3885 29.6905C64.2482 29.6742 63.1418 30.0747 62.2814 30.8152C62.2346 30.5644 62.1208 30.3306 61.952 30.1378C61.8124 29.9893 61.6419 29.8725 61.4524 29.7952C61.2628 29.718 61.0586 29.6823 60.8538 29.6905C60.4918 29.6779 60.1392 29.8064 59.8719 30.0484C59.713 30.1969 59.5885 30.3779 59.5071 30.5787C59.4257 30.7795 59.3893 30.9954 59.4004 31.2114V41.6983C59.3851 42.0889 59.5162 42.4712 59.7686 42.7719C60.0385 43.0463 60.404 43.2084 60.7907 43.225C61.1773 43.2416 61.5557 43.1116 61.8486 42.8614C62.0094 42.7142 62.135 42.5334 62.2166 42.3323C62.2981 42.1312 62.3335 41.9146 62.3202 41.6983V34.9371C62.2997 34.5811 62.3527 34.2247 62.476 33.8896C62.5992 33.5545 62.7902 33.2477 63.0372 32.988C63.515 32.5496 64.1426 32.306 64.7942 32.306C65.4459 32.306 66.0735 32.5496 66.5513 32.988C66.798 33.2479 66.9887 33.5547 67.112 33.8898C67.2352 34.2248 67.2884 34.5811 67.2683 34.9371V41.6983C67.253 42.0889 67.3841 42.4712 67.6365 42.7719C67.7738 42.9203 67.9418 43.0376 68.1291 43.1159C68.3164 43.1942 68.5185 43.2316 68.7217 43.2256C69.0887 43.2378 69.4459 43.107 69.7165 42.8614C69.8772 42.7142 70.0029 42.5334 70.0845 42.3323C70.166 42.1312 70.2014 41.9146 70.1881 41.6983V34.8285C70.2509 33.5023 69.8057 32.2015 68.9413 31.1859C68.4938 30.6971 67.9444 30.3103 67.331 30.0521C66.7176 29.7939 66.0548 29.6706 65.3885 29.6905Z" fill="#C4390A"/>
<path d="M81.2865 42.8166C81.5492 43.0749 81.9045 43.2199 82.2749 43.2199C82.6452 43.2199 83.0005 43.0749 83.2632 42.8166C83.3968 42.6805 83.5017 42.5194 83.5716 42.3428C83.6414 42.1661 83.675 41.9774 83.6702 41.7877V31.1155C83.6758 30.9292 83.6432 30.7437 83.5743 30.5701C83.5055 30.3966 83.4019 30.2387 83.2697 30.1058C83.0078 29.8448 82.653 29.6957 82.2813 29.6904C82.0968 29.6892 81.9139 29.7241 81.7432 29.7932C81.5724 29.8623 81.4172 29.9642 81.2865 30.093C81.078 30.2971 80.9459 30.5653 80.9119 30.8535C80.7078 30.6794 80.492 30.5192 80.2659 30.3742C79.5291 29.9169 78.6745 29.6794 77.8048 29.6904C76.964 29.6702 76.1304 29.8466 75.3716 30.2053C74.6128 30.5639 73.9503 31.0948 73.438 31.7546C72.3873 33.098 71.8395 34.7601 71.8877 36.458C71.8427 38.0545 72.3183 39.623 73.2442 40.9314C73.7414 41.6616 74.416 42.2566 75.206 42.6619C75.996 43.0672 76.8763 43.2698 77.766 43.2511C78.3446 43.2521 78.9177 43.1397 79.4521 42.9203C79.9865 42.7009 80.4717 42.379 80.8796 41.973C80.913 42.2922 81.0567 42.5902 81.2865 42.8166ZM77.8629 40.6055C77.3759 40.6267 76.893 40.5091 76.4716 40.2666C76.0501 40.0242 75.708 39.6671 75.4857 39.2379C75.0325 38.3793 74.8101 37.4198 74.8398 36.4516C74.8278 35.6687 74.9727 34.8911 75.2661 34.1638C75.4301 33.6149 75.7717 33.1343 76.2385 32.7961C76.7053 32.4578 77.2715 32.2805 77.85 32.2914C78.3336 32.2791 78.811 32.4013 79.2278 32.6442C79.6446 32.8871 79.9842 33.2409 80.2078 33.6654C80.6669 34.5218 80.8897 35.4828 80.8537 36.4516C80.8835 37.4178 80.661 38.3752 80.2078 39.2315C79.9928 39.6606 79.6572 40.0191 79.2412 40.264C78.8252 40.5088 78.3466 40.6296 77.8629 40.6119V40.6055Z" fill="#C4390A"/>
<path d="M89.5027 41.6984V32.4449H89.9355C91.2274 32.4449 91.4018 31.531 91.4018 31.1668C91.4018 30.8025 91.2597 29.8887 89.9355 29.8887H89.5091V27.5625C89.5234 27.1768 89.3895 26.8001 89.1345 26.5081C88.997 26.3582 88.828 26.2399 88.6394 26.1616C88.4508 26.0832 88.2472 26.0466 88.0428 26.0543C87.6813 26.0451 87.3299 26.1731 87.0609 26.4122C86.9007 26.5574 86.7749 26.7358 86.6922 26.9346C86.6096 27.1334 86.5723 27.3478 86.5829 27.5625V29.8375H86.163C84.8711 29.8375 84.7031 30.745 84.7031 31.1156C84.7031 31.4863 84.8452 32.3937 86.163 32.3937H86.5829V41.6984C86.5694 42.0897 86.7029 42.4722 86.9576 42.772C87.0949 42.9203 87.2629 43.0376 87.4502 43.1159C87.6374 43.1942 87.8396 43.2317 88.0428 43.2257C88.409 43.2332 88.7645 43.1031 89.0376 42.8614C89.1954 42.7123 89.3187 42.5311 89.3989 42.3303C89.4792 42.1295 89.5146 41.9139 89.5027 41.6984Z" fill="#C4390A"/>
<path d="M103.23 37.8512V31.2114C103.248 30.8213 103.114 30.4392 102.855 30.1442C102.718 29.9944 102.549 29.8761 102.36 29.7977C102.172 29.7193 101.968 29.6827 101.764 29.6905C101.402 29.6779 101.049 29.8064 100.782 30.0484C100.622 30.1961 100.496 30.3769 100.415 30.5779C100.333 30.7789 100.298 30.9952 100.31 31.2114V37.7809C100.31 39.6981 99.5221 40.6119 97.8296 40.6119C96.1372 40.6119 95.362 39.7108 95.362 37.7809V31.2114C95.3773 30.8209 95.2462 30.4385 94.9938 30.1378C94.8542 29.9893 94.6838 29.8724 94.4943 29.7952C94.3047 29.718 94.1005 29.6823 93.8957 29.6905C93.5336 29.6779 93.1811 29.8064 92.9138 30.0484C92.7538 30.1961 92.6286 30.3769 92.5471 30.5779C92.4656 30.7789 92.4298 30.9952 92.4423 31.2114V37.8512C92.3735 39.2227 92.8354 40.5687 93.7342 41.6152C94.2607 42.1596 94.8997 42.5852 95.6075 42.8632C96.3154 43.1411 97.0755 43.2647 97.8361 43.2256C99.2159 43.2888 100.569 42.832 101.621 41.9475C102.175 41.4219 102.606 40.783 102.884 40.0754C103.162 39.3678 103.28 38.6087 103.23 37.8512Z" fill="#C4390A"/>
<path d="M108.431 41.6982V35.787C108.405 35.0407 108.632 34.3074 109.077 33.7037C109.52 33.1565 110.153 32.792 110.853 32.6812C112.21 32.4 112.494 31.697 112.494 31.1538C112.499 30.9605 112.464 30.7681 112.391 30.5888C112.317 30.4095 112.207 30.2472 112.067 30.1122C111.916 29.9662 111.735 29.8524 111.538 29.7777C111.34 29.703 111.129 29.6689 110.918 29.6776C110.492 29.6915 110.074 29.7898 109.688 29.9665C109.302 30.1432 108.956 30.3949 108.67 30.7065C108.573 30.796 108.482 30.8982 108.392 30.9941C108.368 30.6774 108.241 30.3768 108.03 30.1377C107.891 29.9897 107.722 29.8731 107.534 29.7959C107.345 29.7187 107.142 29.6827 106.938 29.6904C106.576 29.6771 106.223 29.8057 105.957 30.0483C105.796 30.1957 105.67 30.3763 105.587 30.5773C105.504 30.7783 105.467 30.9947 105.479 31.2114V41.6982C105.463 42.09 105.596 42.4733 105.853 42.7718C106.123 43.0462 106.489 43.2083 106.875 43.2249C107.262 43.2415 107.64 43.1115 107.933 42.8613C108.097 42.7151 108.226 42.5352 108.312 42.3342C108.398 42.1333 108.438 41.9162 108.431 41.6982Z" fill="#C4390A"/>
<path d="M123.816 40.2157C123.822 40.0395 123.792 39.864 123.726 39.7001C123.661 39.5363 123.561 39.3876 123.435 39.2635C122.905 38.7394 122.363 38.8033 121.497 39.4807C121.152 39.7624 120.777 40.0066 120.38 40.2093C119.771 40.4803 119.109 40.6176 118.442 40.6119C117.875 40.6548 117.307 40.5384 116.804 40.2761C116.302 40.0138 115.884 39.6162 115.599 39.1293C115.355 38.6755 115.206 38.1778 115.16 37.6658H122.511C122.926 37.693 123.337 37.5704 123.668 37.3207C123.822 37.1577 123.939 36.9639 124.012 36.7522C124.084 36.5406 124.11 36.3161 124.087 36.0938C124.109 34.629 123.656 33.196 122.796 32.0038C122.297 31.2757 121.622 30.6825 120.832 30.2785C120.042 29.8744 119.163 29.6723 118.274 29.6904C117.41 29.6722 116.554 29.8554 115.775 30.2251C114.997 30.5948 114.317 31.1406 113.791 31.8185C112.746 33.1525 112.201 34.8031 112.247 36.49C112.243 37.3566 112.374 38.2187 112.634 39.0462C112.946 40.0646 113.521 40.9853 114.301 41.7174C115.404 42.7058 116.851 43.2346 118.338 43.1936C119.889 43.2139 121.406 42.7486 122.673 41.8644C123.422 41.334 123.816 40.7844 123.816 40.2157ZM115.128 35.2822C115.186 34.795 115.316 34.3191 115.515 33.8699C115.718 33.3658 116.078 32.9387 116.543 32.6504C117.007 32.362 117.552 32.2273 118.099 32.2658C118.606 32.2367 119.112 32.351 119.555 32.5954C119.999 32.8399 120.364 33.2044 120.606 33.6462C120.888 34.1439 121.062 34.6947 121.116 35.263L115.128 35.2822Z" fill="#C4390A"/>
</g>
<defs>
<clipPath id="clip0">
<rect width="123.283" height="54" fill="white" transform="translate(0.792969)"/>
</clipPath>
</defs>
</svg>
