<svg width="125" height="54" fill="none" xmlns="http://www.w3.org/2000/svg"><g clip-path="url(#clip0)"><path d="M76.002 15.574c.1-.665.153-1.335.155-2.007a13.505 13.505 0 0 0-4.121-9.407A13.798 13.798 0 0 0 62.44.288c-3.587 0-7.032 1.39-9.596 3.872a13.505 13.505 0 0 0-4.121 9.407v.441c6.976-.907 16.117-.94 27.279 1.566z" fill="#F5A506"/><path d="M92.597 20.782c-34.85-13.938-56.044-4-58.86-2.518l-.259.14-.077.04a3.048 3.048 0 0 0-1.228 1.488 3.01 3.01 0 0 0-.081 1.92 3.042 3.042 0 0 0 1.098 1.584 3.1 3.1 0 0 0 1.839.618 3.054 3.054 0 0 0 1.699-.492C54.582 12.27 92.28 21.747 92.28 21.747h.117c.14 0 .273-.054.373-.151a.522.522 0 0 0 .157-.367.507.507 0 0 0-.33-.447z" fill="#408927"/><path d="M3.292 48.306a2.268 2.268 0 0 0-1.853.901 3.35 3.35 0 0 0-.078 3.834 2.275 2.275 0 0 0 1.938.978 2.262 2.262 0 0 0 1.847-.875 3.06 3.06 0 0 0 .646-1.975 3.12 3.12 0 0 0-.568-1.86 2.24 2.24 0 0 0-.835-.749 2.268 2.268 0 0 0-1.097-.254zm1.486 2.85c.007.446-.102.886-.316 1.278a1.257 1.257 0 0 1-1.17.639 1.257 1.257 0 0 1-1.169-.639 2.534 2.534 0 0 1-.316-1.31 2.772 2.772 0 0 1 .2-1.06 1.28 1.28 0 0 1 .492-.666c.234-.161.515-.242.8-.23a1.303 1.303 0 0 1 1.17.64c.226.413.333.88.31 1.348zm9.192-2.85a.481.481 0 0 0-.34.116.471.471 0 0 0-.163.319l-.6 3.591-1.047-3.649a.498.498 0 0 0-.488-.373.507.507 0 0 0-.488.373l-1.053 3.643-.6-3.585a.478.478 0 0 0-.165-.317.488.488 0 0 0-.34-.118.464.464 0 0 0-.342.134.44.44 0 0 0-.122.333c.003.117.016.235.038.351l.814 4.314a.775.775 0 0 0 .136.345.593.593 0 0 0 .497.217.595.595 0 0 0 .452-.166.835.835 0 0 0 .207-.384l.956-3.374.956 3.374a.712.712 0 0 0 .317.473c.1.054.214.08.33.077a.607.607 0 0 0 .503-.217.858.858 0 0 0 .142-.345l.808-4.32a1.72 1.72 0 0 0 .045-.358.437.437 0 0 0-.13-.32.468.468 0 0 0-.322-.134zm6.79.121a.499.499 0 0 0-.156.39v3.362l-2.435-3.458a1.593 1.593 0 0 0-.265-.306.52.52 0 0 0-.33-.109c-.135 0-.458.058-.458.543v4.64a.514.514 0 0 0 .122.358.493.493 0 0 0 .853-.358v-3.362l2.435 3.458c.068.116.155.22.259.306a.54.54 0 0 0 .336.109c.136 0 .452-.057.452-.543v-4.64a.514.514 0 0 0-.123-.358.513.513 0 0 0-.69-.032zm6.162.844a.436.436 0 0 0 .451-.275.424.424 0 0 0 .027-.185.424.424 0 0 0-.292-.433.436.436 0 0 0-.186-.02h-1.938a.463.463 0 0 0-.483.303.449.449 0 0 0-.021.201v4.582a.449.449 0 0 0 .301.481.463.463 0 0 0 .203.024h1.938a.47.47 0 0 0 .479-.268.457.457 0 0 0-.285-.628.47.47 0 0 0-.194-.018H25.48V51.61h1.292a.445.445 0 0 0 .375-.118.434.434 0 0 0 .129-.368.424.424 0 0 0-.297-.435.439.439 0 0 0-.188-.019H25.5v-1.399h1.422zm5.148-.914h-1.292a.469.469 0 0 0-.48.306.455.455 0 0 0-.024.2v4.581a.456.456 0 0 0 .302.479.469.469 0 0 0 .202.026h1.395c.413.018.824-.075 1.189-.268.347-.198.633-.485.826-.831a3.274 3.274 0 0 0 .407-1.726 3.044 3.044 0 0 0-.542-1.846 2.288 2.288 0 0 0-.873-.71 2.314 2.314 0 0 0-1.11-.21zm1.511 2.767c.017.445-.086.886-.297 1.278a1.324 1.324 0 0 1-.528.525 1.342 1.342 0 0 1-.732.16h-.794v-3.88h.75a1.42 1.42 0 0 1 1.291.697c.208.373.315.794.31 1.22zm10.769-.23a1.365 1.365 0 0 0 .504-1.1 1.335 1.335 0 0 0-.414-.99 1.59 1.59 0 0 0-1.182-.447H42.09a.464.464 0 0 0-.375.133.453.453 0 0 0-.129.372v4.582a.449.449 0 0 0 .301.481.464.464 0 0 0 .203.024h1.292a1.958 1.958 0 0 0 1.421-.518 1.589 1.589 0 0 0 .485-1.17 1.448 1.448 0 0 0-.381-1.009 1.383 1.383 0 0 0-.556-.358zm-.646-.498a.738.738 0 0 1-.536.191h-.6v-1.38h.645a.716.716 0 0 1 .517.166.64.64 0 0 1 .194.492.678.678 0 0 1-.233.53h.013zm.607 1.853a.746.746 0 0 1-.226.562.995.995 0 0 1-.736.269h-.795v-1.65h.808a.96.96 0 0 1 .71.256.761.761 0 0 1 .226.562h.013zm6.616-3.943a.527.527 0 0 0-.452.281l-1.111 1.79-1.105-1.809a.533.533 0 0 0-.647-.249.453.453 0 0 0-.154.102.402.402 0 0 0-.116.294c.007.127.052.25.13.352l1.407 2.275v2.147a.514.514 0 0 0 .123.358.49.49 0 0 0 .362.153.468.468 0 0 0 .45-.3.499.499 0 0 0 .034-.211V51.36l1.415-2.275a.73.73 0 0 0 .13-.358.433.433 0 0 0-.123-.294.494.494 0 0 0-.343-.128zm9.94.051h-2.655a.429.429 0 0 0-.452.27.418.418 0 0 0-.026.184.424.424 0 0 0 .29.44c.06.02.125.027.188.02h.846v4.218a.546.546 0 0 0 .116.358.497.497 0 0 0 .369.153.488.488 0 0 0 .33-.121.505.505 0 0 0 .154-.39V49.27h.84a.436.436 0 0 0 .452-.275.424.424 0 0 0 .026-.185.425.425 0 0 0-.292-.433.436.436 0 0 0-.186-.02zm6.958-.051c-.142 0-.484.058-.484.55v1.853h-2.507v-1.853c0-.492-.336-.55-.484-.55-.149 0-.485.058-.485.55v4.594c0 .492.343.55.485.55.142 0 .484-.057.484-.55v-1.866h2.494v1.866c0 .492.342.55.49.55.15 0 .485-.057.485-.55v-4.594c.013-.492-.33-.55-.478-.55zm5.833.965a.439.439 0 0 0 .348-.119.428.428 0 0 0 .13-.341.422.422 0 0 0-.132-.337.433.433 0 0 0-.346-.117h-1.9a.47.47 0 0 0-.485.304.457.457 0 0 0-.024.201v4.582a.458.458 0 0 0 .306.48.47.47 0 0 0 .204.025h1.899a.469.469 0 0 0 .479-.268.456.456 0 0 0-.285-.628.47.47 0 0 0-.194-.018h-1.44V51.61h1.291a.436.436 0 0 0 .452-.275.424.424 0 0 0 .026-.185.424.424 0 0 0-.292-.433.438.438 0 0 0-.186-.02h-1.291V49.27h1.44zm10.192-.46c-.155-.415-.42-.505-.646-.505a.65.65 0 0 0-.414.138.638.638 0 0 0-.232.367l-1.66 4.378c-.055.12-.09.25-.103.383a.406.406 0 0 0 .155.32.498.498 0 0 0 .715.014.49.49 0 0 0 .131-.225l.304-.85h2.26l.31.85a.48.48 0 0 0 .466.351.462.462 0 0 0 .442-.273c.02-.05.03-.102.03-.155a.711.711 0 0 0-.046-.224l-1.712-4.569zm.2 3.119h-1.634l.814-2.269.82 2.269zm7.785-3.502a.479.479 0 0 0-.162.39v3.36l-2.435-3.456a1.413 1.413 0 0 0-.258-.307.553.553 0 0 0-.336-.109c-.136 0-.453.058-.453.543v4.64c0 .127.051.249.142.339a.487.487 0 0 0 .827-.34v-3.36l2.436 3.457c.069.115.156.218.258.306.097.072.215.11.336.109.136 0 .459-.057.459-.543v-4.64a.533.533 0 0 0-.123-.358.52.52 0 0 0-.691-.032zm3.915 0a.498.498 0 0 0-.155.39v4.67a.514.514 0 0 0 .122.359.507.507 0 0 0 .812-.179.5.5 0 0 0 .035-.211v-4.64a.496.496 0 0 0-.123-.358.52.52 0 0 0-.691-.032zm8.894.511a.634.634 0 0 0-.203-.466.645.645 0 0 0-.482-.173.598.598 0 0 0-.646.46l-1.007 3.393-.995-3.393a.644.644 0 0 0-.646-.46.654.654 0 0 0-.482.173.644.644 0 0 0-.203.466l-.723 4.25c-.025.105-.04.211-.046.319a.444.444 0 0 0 .286.462.457.457 0 0 0 .192.03.474.474 0 0 0 .498-.415l.523-3.598 1.085 3.63a.505.505 0 0 0 .976 0l1.085-3.63.523 3.598c.013.12.073.23.167.308a.475.475 0 0 0 .337.107.452.452 0 0 0 .35-.135.438.438 0 0 0 .1-.162c.021-.06.028-.125.021-.189a1.691 1.691 0 0 0-.032-.255l-.678-4.32zm6.119-.128c-.155-.415-.42-.505-.646-.505a.65.65 0 0 0-.415.138.635.635 0 0 0-.231.367l-1.667 4.378a1.272 1.272 0 0 0-.097.383.392.392 0 0 0 .155.32.49.49 0 0 0 .317.108.495.495 0 0 0 .471-.351l.304-.85h2.3l.31.85a.476.476 0 0 0 .465.351.463.463 0 0 0 .355-.14.397.397 0 0 0 .116-.288.714.714 0 0 0-.045-.224l-1.692-4.537zm.2 3.119h-1.647l.814-2.269.833 2.269zm6.368 1.111h-1.259v-4.217a.495.495 0 0 0-.123-.358.52.52 0 0 0-.691 0 .503.503 0 0 0-.162.39v4.626a.456.456 0 0 0 .307.48.472.472 0 0 0 .204.025h1.724a.468.468 0 0 0 .479-.268.455.455 0 0 0-.115-.533.466.466 0 0 0-.364-.113v-.032zm4.904-2.511a2.292 2.292 0 0 1-.801-.377.514.514 0 0 1-.161-.383.527.527 0 0 1 .161-.397.756.756 0 0 1 .549-.191c.231.001.455.07.646.198.323.198.536.172.704 0a.426.426 0 0 0 .13-.313c0-.243-.188-.448-.55-.595a2.393 2.393 0 0 0-.923-.179 1.745 1.745 0 0 0-1.292.512 1.428 1.428 0 0 0-.401 1.041 1.39 1.39 0 0 0 .265.825c.344.369.796.623 1.292.728.299.07.581.201.827.384a.558.558 0 0 1 .181.44.855.855 0 0 1-.259.64 1.214 1.214 0 0 1-1.524 0 .804.804 0 0 0-.381-.147.387.387 0 0 0-.355.204.562.562 0 0 0-.072.268c0 .25.188.46.562.64.344.133.71.2 1.079.198a1.955 1.955 0 0 0 1.441-.55 1.71 1.71 0 0 0 .523-1.278 1.503 1.503 0 0 0-.278-.895 2.484 2.484 0 0 0-1.363-.773zM10.172 42.817a1.41 1.41 0 0 0 1.976 0 1.398 1.398 0 0 0 .408-1.03v-10.67a1.392 1.392 0 0 0-.394-.995 1.422 1.422 0 0 0-.989-.43c-.37 0-.725.145-.988.402-.205.204-.336.47-.375.754a6.739 6.739 0 0 0-.646-.473 4.604 4.604 0 0 0-2.467-.683 5.384 5.384 0 0 0-2.43.515c-.758.359-1.42.89-1.93 1.549a7.278 7.278 0 0 0-1.545 4.703 7.426 7.426 0 0 0 1.357 4.473 5.31 5.31 0 0 0 1.963 1.73c.79.405 1.67.608 2.559.59a4.443 4.443 0 0 0 3.113-1.278c.03.316.167.613.388.844zm-.42-6.39a5.625 5.625 0 0 1-.646 2.779 2.503 2.503 0 0 1-.971 1.03 2.54 2.54 0 0 1-1.38.344 2.561 2.561 0 0 1-1.389-.34 2.525 2.525 0 0 1-.982-1.028 5.6 5.6 0 0 1-.646-2.786 5.975 5.975 0 0 1 .42-2.288 2.61 2.61 0 0 1 .972-1.367 2.661 2.661 0 0 1 1.612-.505 2.6 2.6 0 0 1 1.381.351c.418.243.759.597.983 1.023a5.53 5.53 0 0 1 .646 2.818v-.032zm7.99 5.271V25.722a1.542 1.542 0 0 0-.368-1.067 1.395 1.395 0 0 0-1.079-.428 1.43 1.43 0 0 0-.988.357 1.514 1.514 0 0 0-.465 1.17V41.73c-.015.39.116.773.368 1.074a1.44 1.44 0 0 0 1.098.454 1.43 1.43 0 0 0 .982-.365 1.47 1.47 0 0 0 .452-1.195zM32.943 29.69a4.61 4.61 0 0 0-2.694.793 5.848 5.848 0 0 0-1.078 1.022 5.137 5.137 0 0 0-.995-1.028 4.133 4.133 0 0 0-2.513-.787 4.238 4.238 0 0 0-2.474.71c-.117.085-.23.177-.336.275a1.508 1.508 0 0 0-.297-.537 1.422 1.422 0 0 0-1.098-.448 1.384 1.384 0 0 0-.982.358 1.476 1.476 0 0 0-.472 1.163v10.487c-.015.39.116.773.369 1.074a1.528 1.528 0 0 0 2.08.09 1.464 1.464 0 0 0 .471-1.164v-6.946a2.538 2.538 0 0 1 .582-1.79 2.087 2.087 0 0 1 1.653-.639 2.212 2.212 0 0 1 1.557.524 2.503 2.503 0 0 1 .71 1.917v6.934c-.015.392.118.775.375 1.074a1.409 1.409 0 0 0 1.085.454 1.47 1.47 0 0 0 .976-.358 1.52 1.52 0 0 0 .471-1.17v-6.946a2.538 2.538 0 0 1 .582-1.79 2.088 2.088 0 0 1 1.66-.64 2.245 2.245 0 0 1 1.55.525 2.501 2.501 0 0 1 .71 1.917v6.934c-.015.388.114.767.362 1.067a1.528 1.528 0 0 0 2.087.096 1.462 1.462 0 0 0 .472-1.163v-6.87a5.243 5.243 0 0 0-1.24-3.642 4.664 4.664 0 0 0-1.622-1.133 4.709 4.709 0 0 0-1.95-.363zm16.886 11.465a7.272 7.272 0 0 0 1.557-4.697 7.389 7.389 0 0 0-1.363-4.473 5.635 5.635 0 0 0-1.938-1.666 5.701 5.701 0 0 0-4.999-.14 5.643 5.643 0 0 0-2.03 1.556 7.315 7.315 0 0 0-1.556 4.749 7.325 7.325 0 0 0 1.343 4.416 5.635 5.635 0 0 0 1.94 1.669 5.7 5.7 0 0 0 7.033-1.42l.013.006zM47.8 39.238c-.236.415-.578.76-.993 1.001a2.729 2.729 0 0 1-2.737 0 2.69 2.69 0 0 1-.992-1.001 5.7 5.7 0 0 1-.646-2.786 5.855 5.855 0 0 1 .426-2.288c.163-.55.504-1.03.971-1.37a2.656 2.656 0 0 1 1.613-.503c.483-.012.96.11 1.378.353.416.243.756.597.98 1.021a5.47 5.47 0 0 1 .645 2.787 5.555 5.555 0 0 1-.645 2.786zm17.588-9.548a4.662 4.662 0 0 0-3.107 1.125 1.425 1.425 0 0 0-.329-.677 1.423 1.423 0 0 0-1.098-.448 1.391 1.391 0 0 0-.982.358 1.495 1.495 0 0 0-.472 1.163v10.487c-.015.39.116.773.369 1.074a1.525 1.525 0 0 0 2.08.09 1.463 1.463 0 0 0 .471-1.164v-6.76a2.6 2.6 0 0 1 .717-1.95 2.6 2.6 0 0 1 1.757-.682 2.6 2.6 0 0 1 1.757.682 2.628 2.628 0 0 1 .717 1.95v6.76c-.015.39.116.773.368 1.074a1.414 1.414 0 0 0 1.086.454 1.41 1.41 0 0 0 1.363-.894 1.45 1.45 0 0 0 .103-.634v-6.87a5.236 5.236 0 0 0-1.247-3.642 4.605 4.605 0 0 0-1.61-1.134 4.65 4.65 0 0 0-1.943-.361zm15.899 13.127a1.41 1.41 0 0 0 1.976 0 1.426 1.426 0 0 0 .407-1.03v-10.67a1.367 1.367 0 0 0-.4-1.01 1.41 1.41 0 0 0-1.983-.013 1.27 1.27 0 0 0-.375.76 5.92 5.92 0 0 0-.646-.479 4.56 4.56 0 0 0-2.461-.684 5.391 5.391 0 0 0-2.433.515 5.331 5.331 0 0 0-1.934 1.55 7.297 7.297 0 0 0-1.55 4.703 7.382 7.382 0 0 0 1.356 4.473 5.298 5.298 0 0 0 1.962 1.73c.79.406 1.67.609 2.56.59a4.42 4.42 0 0 0 1.686-.33 4.382 4.382 0 0 0 1.428-.948c.033.32.177.617.407.844zm-3.424-2.212a2.566 2.566 0 0 1-1.391-.338 2.53 2.53 0 0 1-.986-1.03 5.6 5.6 0 0 1-.646-2.785 5.874 5.874 0 0 1 .426-2.288c.164-.55.506-1.03.972-1.368a2.661 2.661 0 0 1 1.612-.505c.484-.012.961.11 1.378.353.417.243.756.597.98 1.021a5.47 5.47 0 0 1 .646 2.787 5.574 5.574 0 0 1-.646 2.78c-.215.429-.55.787-.967 1.032a2.536 2.536 0 0 1-1.378.348v-.007zm11.64 1.093v-9.253h.433c1.291 0 1.466-.914 1.466-1.278 0-.365-.142-1.278-1.466-1.278h-.427v-2.326a1.517 1.517 0 0 0-.374-1.055 1.4 1.4 0 0 0-1.092-.454 1.424 1.424 0 0 0-.982.358 1.464 1.464 0 0 0-.478 1.15v2.275h-.42c-1.292 0-1.46.908-1.46 1.279 0 .37.142 1.278 1.46 1.278h.42v9.304c-.014.392.12.774.375 1.074a1.415 1.415 0 0 0 1.085.454 1.46 1.46 0 0 0 .995-.365 1.493 1.493 0 0 0 .465-1.163zm13.727-3.847v-6.64a1.511 1.511 0 0 0-.375-1.067 1.41 1.41 0 0 0-1.091-.454 1.391 1.391 0 0 0-1.349.888 1.461 1.461 0 0 0-.105.633v6.57c0 1.917-.788 2.83-2.48 2.83-1.693 0-2.468-.9-2.468-2.83v-6.57a1.574 1.574 0 0 0-.368-1.073 1.422 1.422 0 0 0-1.098-.448 1.391 1.391 0 0 0-1.349.888 1.461 1.461 0 0 0-.105.633v6.64a5.363 5.363 0 0 0 1.292 3.764 5.3 5.3 0 0 0 1.874 1.248 5.348 5.348 0 0 0 2.228.363 5.493 5.493 0 0 0 3.785-1.279 5.204 5.204 0 0 0 1.263-1.872 5.153 5.153 0 0 0 .346-2.224zm5.201 3.847v-5.911a3.315 3.315 0 0 1 .646-2.083 2.86 2.86 0 0 1 1.776-1.023c1.357-.281 1.641-.984 1.641-1.527a1.402 1.402 0 0 0-.427-1.042 1.555 1.555 0 0 0-1.149-.434 3.206 3.206 0 0 0-2.248 1.028c-.097.09-.188.192-.278.288a1.461 1.461 0 0 0-.362-.856 1.42 1.42 0 0 0-1.092-.448 1.381 1.381 0 0 0-.981.358 1.486 1.486 0 0 0-.37.53 1.45 1.45 0 0 0-.108.633v10.487c-.016.392.117.775.374 1.074a1.527 1.527 0 0 0 2.08.09 1.492 1.492 0 0 0 .498-1.164zm15.385-1.482a1.264 1.264 0 0 0-.381-.953c-.53-.524-1.072-.46-1.938.218-.345.281-.72.526-1.117.728a4.672 4.672 0 0 1-1.938.403 3.047 3.047 0 0 1-1.638-.336 3.012 3.012 0 0 1-1.205-1.147 3.81 3.81 0 0 1-.439-1.463h7.351c.415.027.826-.096 1.157-.345a1.549 1.549 0 0 0 .419-1.227 6.815 6.815 0 0 0-1.291-4.09 5.312 5.312 0 0 0-1.964-1.725 5.377 5.377 0 0 0-2.558-.589 5.557 5.557 0 0 0-2.499.535 5.496 5.496 0 0 0-1.984 1.593 7.252 7.252 0 0 0-1.544 4.672 8.398 8.398 0 0 0 .387 2.556 6.127 6.127 0 0 0 1.667 2.671 5.812 5.812 0 0 0 4.037 1.477 7.407 7.407 0 0 0 4.335-1.33c.749-.53 1.143-1.08 1.143-1.648zm-8.688-4.934a4.92 4.92 0 0 1 .387-1.412 2.562 2.562 0 0 1 1.028-1.22 2.602 2.602 0 0 1 1.556-.384 2.697 2.697 0 0 1 1.456.33 2.66 2.66 0 0 1 1.051 1.05c.282.498.456 1.049.51 1.617l-5.988.02z" fill="#C4390A"/></g><defs><clipPath id="clip0"><path fill="#fff" transform="translate(.793)" d="M0 0h123.283v54H0z"/></clipPath></defs></svg>