<svg width="64" height="64" fill="none" xmlns="http://www.w3.org/2000/svg"><path d="M10.888 51.081c-.2.193-.412.29-.634.29a.836.836 0 0 1-.312-.064 1.953 1.953 0 0 1-.376-.247c-.265-.201-.397-.412-.397-.634 0-.143.082-.312.247-.505a4.2 4.2 0 0 1 .623-.602c.258-.215.548-.433.87-.655a21.2 21.2 0 0 1 2.793-1.59c.136-.057.261-.1.376-.129.115-.028.233-.043.355-.043.243 0 .45.043.623.13.179.078.33.189.45.332.123.144.223.308.302.494.086.18.154.37.204.57.057.193.104.394.14.601.035.2.071.387.107.559.057.294.114.634.172 1.02.064.38.121.777.171 1.193.05.408.097.816.14 1.224.05.401.093.777.13 1.128.035.344.06.645.074.903.022.25.032.43.032.537 0 .501-.247.795-.74.88a5.63 5.63 0 0 1-.538.097 2.137 2.137 0 0 1-.172.011.749.749 0 0 1-.537-.193c-.129-.13-.204-.323-.225-.58-.08-.96-.169-1.913-.269-2.858a25.45 25.45 0 0 0-.462-2.836c-.043-.207-.118-.365-.225-.472a.528.528 0 0 0-.387-.162c-.143 0-.322.058-.537.172-.215.115-.44.255-.677.42-.236.164-.473.34-.709.526-.23.179-.433.34-.612.483zm8.078 1.697a5.543 5.543 0 0 1 1.58-3.932 5.463 5.463 0 0 1 1.728-1.181 5.277 5.277 0 0 1 2.127-.43 6.3 6.3 0 0 1 2.278.409c.709.264 1.325.63 1.847 1.095.53.459.946 1 1.247 1.622a4.45 4.45 0 0 1 .461 1.998c0 .466-.075.917-.225 1.354-.15.437-.365.845-.645 1.224-.272.38-.601.727-.988 1.043-.38.315-.802.587-1.268.816a7.154 7.154 0 0 1-1.503.516 6.93 6.93 0 0 1-1.644.193c-.752 0-1.436-.115-2.052-.344a4.53 4.53 0 0 1-1.579-.945 4.439 4.439 0 0 1-1.01-1.493c-.236-.58-.354-1.228-.354-1.945zm9.11 0c0-.48-.108-.934-.323-1.364a3.623 3.623 0 0 0-.88-1.128 4.235 4.235 0 0 0-1.312-.763 4.41 4.41 0 0 0-1.6-.29c-.394 0-.763.08-1.106.237-.344.15-.642.358-.892.623a2.96 2.96 0 0 0-.602.924c-.143.35-.215.73-.215 1.138 0 1.075.273 1.905.817 2.492.544.588 1.307.881 2.288.881.523 0 1.017-.071 1.482-.215a4.08 4.08 0 0 0 1.214-.59c.351-.251.627-.541.827-.87.2-.337.301-.695.301-1.075zm3.394 0a5.543 5.543 0 0 1 1.58-3.932 5.463 5.463 0 0 1 1.728-1.181 5.277 5.277 0 0 1 2.127-.43 6.3 6.3 0 0 1 2.278.409c.709.264 1.325.63 1.847 1.095.53.459.946 1 1.246 1.622a4.45 4.45 0 0 1 .462 1.998c0 .466-.075.917-.225 1.354-.15.437-.365.845-.645 1.224-.272.38-.601.727-.988 1.043-.38.315-.802.587-1.268.816a7.154 7.154 0 0 1-1.504.516 6.93 6.93 0 0 1-1.643.193c-.752 0-1.436-.115-2.052-.344a4.53 4.53 0 0 1-1.579-.945 4.439 4.439 0 0 1-1.01-1.493c-.236-.58-.354-1.228-.354-1.945zm9.11 0c0-.48-.108-.934-.323-1.364a3.623 3.623 0 0 0-.881-1.128 4.235 4.235 0 0 0-1.31-.763 4.41 4.41 0 0 0-1.601-.29c-.394 0-.763.08-1.107.237-.343.15-.64.358-.891.623a2.96 2.96 0 0 0-.602.924c-.143.35-.215.73-.215 1.138 0 1.075.273 1.905.817 2.492.544.588 1.307.881 2.288.881.523 0 1.017-.071 1.482-.215a4.08 4.08 0 0 0 1.214-.59c.351-.251.627-.541.827-.87.2-.337.301-.695.301-1.075zm10.355-7.551c.064-.201.157-.348.279-.44a.64.64 0 0 1 .419-.151c.064 0 .132.007.204.021a.785.785 0 0 1 .236.086l.398.204a.953.953 0 0 1 .408.322c.093.13.14.276.14.441 0 .122-.022.247-.065.376a140.442 140.442 0 0 1-1.697 4.78.773.773 0 0 0-.065.28c0 .121.05.182.15.182.101 0 .22-.054.355-.161.38-.25.784-.448 1.214-.59a4.216 4.216 0 0 1 1.321-.216c.495 0 .924.097 1.29.29.372.187.68.434.923.742.244.307.426.658.548 1.052.122.394.183.799.183 1.214a3.75 3.75 0 0 1-.29 1.493 3.551 3.551 0 0 1-1.944 1.923 3.47 3.47 0 0 1-1.376.28 2.91 2.91 0 0 1-1.192-.248 3.024 3.024 0 0 1-.977-.687c-.28-.3-.502-.652-.666-1.053a3.667 3.667 0 0 1-.237-1.332c0-.143.007-.29.022-.44l.064-.44.086-.538-.064-.021a706.795 706.795 0 0 1-1.354 3.706 141.788 141.788 0 0 0-1.31 3.717c-.13.393-.366.59-.71.59-.064 0-.136-.007-.214-.021a1.139 1.139 0 0 1-.247-.086l-.387-.204c-.358-.172-.537-.426-.537-.763 0-.129.025-.254.075-.376.408-1.21.827-2.406 1.257-3.588.43-1.181.866-2.37 1.31-3.566.022-.065.04-.122.054-.172a.422.422 0 0 0 .032-.14c0-.071-.035-.107-.107-.107-.079 0-.197.043-.355.129a3.312 3.312 0 0 1-.784.333 3.279 3.279 0 0 1-.838.107c-.372 0-.712-.068-1.02-.204a2.478 2.478 0 0 1-.795-.58 2.696 2.696 0 0 1-.505-.86 3.344 3.344 0 0 1-.172-1.084c0-.186.014-.362.043-.527.029-.172.061-.325.097-.462.043-.143.082-.265.118-.365l.097-.225c.043-.1.071-.18.085-.237a.763.763 0 0 0 .022-.16c0-.037-.007-.062-.022-.076-.014-.014-.02-.04-.02-.075 0-.043.028-.1.085-.172a1.14 1.14 0 0 1 .269-.247c.3-.208.615-.365.945-.473a3.24 3.24 0 0 1 .988-.16c.365 0 .713.064 1.042.192.337.122.63.305.881.548.258.244.462.545.612.903.158.358.237.77.237 1.235 0 .014.021-.032.064-.14.05-.107.108-.24.172-.397.072-.165.143-.337.215-.516.071-.179.129-.333.172-.462.143-.4.283-.798.419-1.192.143-.394.282-.791.419-1.192zM53.92 55.57c.222 0 .415-.05.58-.15a1.35 1.35 0 0 0 .419-.408c.107-.165.186-.351.236-.559.058-.208.086-.415.086-.623 0-.25-.043-.476-.129-.677a1.471 1.471 0 0 0-.333-.526 1.425 1.425 0 0 0-.483-.333 1.5 1.5 0 0 0-.59-.118c-.101 0-.212.01-.334.032a1.59 1.59 0 0 0-.344.107 1.26 1.26 0 0 0-.3.172.52.52 0 0 0-.172.247c.028.058.043.1.043.13a.771.771 0 0 1-.022.16 3.722 3.722 0 0 0-.043.237 2.208 2.208 0 0 0-.043.44c0 .208.029.423.086.645.065.222.158.426.28.612.121.179.272.326.45.44.18.115.384.172.613.172zm-7.917-6.51c0 .13.014.273.043.43.029.15.075.294.14.43.064.136.154.25.268.344a.66.66 0 0 0 .43.14c.2 0 .354-.097.462-.29a1.37 1.37 0 0 0 .172-.688c0-.158-.026-.315-.076-.473a1.202 1.202 0 0 0-.204-.419 1.117 1.117 0 0 0-.354-.3 1.032 1.032 0 0 0-.505-.119.227.227 0 0 0-.194.108.856.856 0 0 0-.118.257c-.021.1-.039.204-.053.312a3.647 3.647 0 0 0-.011.269z" fill="#6DAD45"/><path d="M46.823 33.231c4.496-2.747 6.1-8.77 3.08-14.436-1.624-3.046-4.982-3.182-8.432-3.818-6.3-1.162-3.877-11.563-12.841-9.77-8.682 1.737-9.41 10.458-7.528 15.477" stroke="#6DAD45" stroke-width="2" stroke-linecap="round" stroke-linejoin="round"/><path d="M22.925 25.852c3.802-1.03 9.57-1.875 14.822.255 8.81 3.57 12.835 14.157 12.835 14.157s-10.26 4.796-19.07 1.225c-5.174-2.097-8.698-6.614-10.725-9.985m24.129-.171c-1.927 1.209-5.549 5.18-4.618 11.395M22.963 25.754c.316-2.415-1.244-6.75-9.775-8.615-.246 3.88.822 7.52 1.387 8.854-1.335.565-4.635 2.433-7.16 5.39 7.422 4.6 11.784 2.02 13.239.068" stroke="#6DAD45" stroke-width="2" stroke-linecap="round" stroke-linejoin="round"/><circle cx="29.886" cy="13.991" r="2.509" stroke="#6DAD45" stroke-width="2" stroke-linecap="round" stroke-linejoin="round"/></svg>