<svg width="64" height="64" fill="none" xmlns="http://www.w3.org/2000/svg"><path d="M4 41.16h4.956c1.586 0 10.217 10.56 21.986 13.535l15.539-3.223c3.155-1.062 2.202-3.867 0-4.19-2.203-.322-6.905-.134-10.07 0" stroke="#6DAD45" stroke-width="2" stroke-linecap="round"/><path d="M23.151 39.365l9.92 7.206c1.404 1.222 3.16 1.527 4.284 0 2.541-3.452-14.744-16.427-16.98-18.131-4.307-3.284-11.379 0-11.379 0H4" stroke="#6DAD45" stroke-width="2" stroke-linecap="round"/><path d="M41.619 19.833c2.445 0 4.431-2.205 4.431-4.916 0-2.712-1.986-4.917-4.431-4.917-2.445 0-4.431 2.205-4.431 4.917 0 2.711 1.986 4.916 4.43 4.916v0zm8.884 0c2.44 0 4.43-2.205 4.43-4.916 0-2.712-1.989-4.917-4.43-4.917-2.444 0-4.433 2.205-4.433 4.917 0 2.711 1.989 4.916 4.433 4.916zm6.241-1.299c-1.801-.313-3.578 1.084-4.047 3.183-.47 2.096.571 3.982 2.373 4.294 1.8.31 3.579-1.086 4.05-3.183.469-2.097-.576-3.984-2.376-4.294z" stroke="#6DAD45" stroke-width="2" stroke-linecap="round" stroke-linejoin="round"/><path d="M38.986 20.505c-.47-2.1-2.247-3.497-4.048-3.184-1.799.31-2.845 2.196-2.374 4.295.468 2.096 2.248 3.494 4.047 3.182 1.802-.312 2.844-2.197 2.375-4.293v0zm12.868 3.688c-.46-2.903-2.923-5.129-5.885-5.129h-.026c-2.962 0-5.425 2.226-5.884 5.129-2.109.943-3.586 3.097-3.586 5.6 0 3.366 2.674 6.106 5.961 6.106h.027a5.826 5.826 0 0 0 3.495-1.165 5.828 5.828 0 0 0 3.495 1.165h.027c3.287 0 5.961-2.74 5.961-6.107 0-2.502-1.477-4.656-3.585-5.6z" stroke="#6DAD45" stroke-width="2" stroke-linecap="round" stroke-linejoin="round"/></svg>