<svg width="162" height="35" viewBox="0 0 162 35" fill="none" xmlns="http://www.w3.org/2000/svg">
<path d="M28.0016 13.4147V19.1106V19.3355C28.0016 26.3055 23.0865 32.1513 16.5331 33.5004C16.0118 33.5753 15.7139 32.9008 16.0863 32.601C20.0332 29.5282 22.5652 24.7316 22.5652 19.4104V19.1856V13.4896C22.1184 13.4147 21.7461 13.0399 21.7461 12.5153C21.7461 11.9907 22.1929 11.541 22.7142 11.541C22.9376 11.541 23.2355 11.616 23.3844 11.8408C23.5334 11.6909 23.7568 11.541 24.0547 11.541C24.3525 11.541 24.5759 11.616 24.7249 11.8408C24.8738 11.6909 25.0972 11.541 25.3951 11.541C25.6185 11.541 25.9164 11.616 26.0654 11.8408C26.2143 11.6909 26.4377 11.541 26.7356 11.541C26.959 11.541 27.2569 11.616 27.4058 11.8408C27.5548 11.6909 27.7782 11.541 28.0761 11.541C28.5974 11.541 29.0442 11.9907 29.0442 12.5153C28.9697 12.965 28.5229 13.4147 28.0016 13.4147Z" fill="#F5A506"/>
<path d="M41.3318 33.8754C42.8957 33.8754 43.5659 32.9011 44.0872 32.9011C44.3851 32.9011 44.6085 33.1259 44.6085 33.5007C44.6085 34.1752 43.1191 34.9246 41.3318 34.9246C38.353 34.9246 36.7891 32.3015 36.7891 29.6034C36.7891 26.9054 38.353 24.2822 41.4063 24.2822C43.268 24.2822 44.3851 25.2565 44.3851 25.7812C44.3851 26.1559 44.1617 26.3807 43.8638 26.3807C43.268 26.3807 42.9702 25.3315 41.4063 25.3315C39.0977 25.3315 38.1296 27.5049 38.1296 29.5285C38.1296 31.552 39.0977 33.8754 41.3318 33.8754Z" fill="#005E61"/>
<path d="M53.7677 34.4757C53.6932 34.7755 53.4698 34.9254 53.1719 34.9254C52.7996 34.9254 52.5762 34.7005 52.5762 34.4007C52.5762 34.2509 52.7251 33.8761 52.7251 33.7262L55.9274 25.0324C56.0763 24.5827 56.3742 24.208 56.821 24.208C57.3423 24.208 57.5657 24.5827 57.7147 25.0324L60.9169 33.7262C60.9914 33.8761 61.0659 34.1759 61.0659 34.4007C61.0659 34.7755 60.768 34.9254 60.4701 34.9254C60.0977 34.9254 59.9488 34.7005 59.8743 34.4757L59.2041 32.602H54.3635L53.7677 34.4757ZM56.8955 25.8568L54.8848 31.5528H58.9062L56.8955 25.8568Z" fill="#005E61"/>
<path d="M70.8952 34.2506C70.8952 34.7003 70.6718 34.9251 70.2249 34.9251C69.8526 34.9251 69.5547 34.6254 69.5547 34.2506V25.1071C69.5547 24.7324 69.7781 24.4326 70.2249 24.4326H72.757C74.8422 24.4326 76.1082 25.9316 76.1082 27.7303C76.1082 29.529 74.6932 31.0279 72.757 31.0279H70.7462V34.2506H70.8952ZM70.8952 29.8288H72.8314C74.0974 29.8288 74.9911 28.8545 74.9911 27.6553C74.9911 26.6061 74.3953 25.4819 72.8314 25.4819H70.9696V29.8288H70.8952Z" fill="#005E61"/>
<path d="M85.8636 33.6511H88.9914C89.3638 33.6511 89.5872 33.8759 89.5872 34.2506C89.5872 34.6254 89.2893 34.8502 88.9914 34.8502H85.2679C84.8211 34.8502 84.5977 34.5504 84.5977 34.1757V25.1071C84.5977 24.7324 84.8211 24.4326 85.2679 24.4326H88.9914C89.3638 24.4326 89.5872 24.6575 89.5872 25.0322C89.5872 25.4069 89.2893 25.6318 88.9914 25.6318H85.8636V29.0793H88.6936C89.0659 29.0793 89.2893 29.3041 89.2893 29.6789C89.2893 30.0536 88.9914 30.2785 88.6936 30.2785H85.8636V33.6511Z" fill="#005E61"/>
<path d="M99.7914 33.6513H102.547C102.919 33.6513 103.143 33.8761 103.143 34.2509C103.143 34.6256 102.845 34.8504 102.547 34.8504H99.1956C98.7488 34.8504 98.5254 34.5506 98.5254 34.1759V25.0324C98.5254 24.5827 98.7488 24.3579 99.1956 24.3579C99.568 24.3579 99.8659 24.6577 99.8659 25.0324V33.6513H99.7914Z" fill="#005E61"/>
<path d="M112.897 33.6513H115.652C116.025 33.6513 116.248 33.8761 116.248 34.2509C116.248 34.6256 115.95 34.8504 115.652 34.8504H112.301C111.854 34.8504 111.631 34.5506 111.631 34.1759V25.0324C111.631 24.5827 111.854 24.3579 112.301 24.3579C112.748 24.3579 112.971 24.6577 112.971 25.0324V33.6513H112.897Z" fill="#005E61"/>
<path d="M126.005 34.2509C126.005 34.7005 125.781 34.9254 125.334 34.9254C124.962 34.9254 124.664 34.6256 124.664 34.2509V25.0324C124.664 24.5827 124.887 24.3579 125.334 24.3579C125.707 24.3579 126.005 24.6577 126.005 25.0324V34.2509Z" fill="#005E61"/>
<path d="M136.356 34.2508C136.356 34.7005 136.133 34.9254 135.686 34.9254C135.314 34.9254 135.016 34.6256 135.016 34.2508V25.1074C135.016 24.5827 135.165 24.3579 135.611 24.3579C135.984 24.3579 136.133 24.5078 136.505 25.0324L141.792 32.602V25.0324C141.792 24.5827 142.016 24.3579 142.463 24.3579C142.835 24.3579 143.133 24.6577 143.133 25.0324V34.2508C143.133 34.7755 142.984 35.0003 142.537 35.0003C142.165 35.0003 142.016 34.8504 141.644 34.3258L136.356 26.7562V34.2508Z" fill="#005E61"/>
<path d="M156.463 24.3579C159.441 24.3579 161.005 26.981 161.005 29.6791C161.005 32.3772 159.441 35.0003 156.463 35.0003C153.484 35.0003 151.92 32.3772 151.92 29.6791C151.92 26.9061 153.484 24.3579 156.463 24.3579ZM156.463 33.8761C158.771 33.8761 159.665 31.7027 159.665 29.6791C159.665 27.6556 158.846 25.4821 156.463 25.4821C154.154 25.4821 153.26 27.6556 153.26 29.6791C153.26 31.7027 154.08 33.8761 156.463 33.8761Z" fill="#005E61"/>
<path d="M42.002 2.69808H42.5233C43.9383 2.69808 44.0872 1.79872 44.0872 1.34904C44.0872 0.524625 43.268 0 42.5233 0H41.8531C39.9168 0 38.6508 1.27409 38.6508 3.14776V5.69594H38.204C37.3104 5.69594 36.7891 6.22057 36.7891 7.04498C36.7891 7.86939 37.3104 8.39402 38.204 8.39402H38.6508V17.9122C38.6508 18.8116 39.2466 19.4112 40.0658 19.4112C40.9594 19.4112 41.4807 18.8116 41.4807 17.9122V8.46896H42.3744C43.268 8.46896 43.7893 7.94434 43.7893 7.11993C43.7893 6.29551 43.268 5.77089 42.3744 5.77089H41.4807V3.14776C41.5552 2.84797 41.6297 2.69808 42.002 2.69808Z" fill="#005E61"/>
<path d="M50.9381 5.69531C46.9912 5.69531 44.9805 9.14285 44.9805 12.5904C44.9805 16.0379 46.9912 19.4855 50.9381 19.4855C54.8851 19.4855 56.8958 16.0379 56.8958 12.5904C56.8958 9.14285 54.8851 5.69531 50.9381 5.69531ZM50.9381 16.8623C48.704 16.8623 47.8848 14.539 47.8848 12.5904C47.8848 10.6418 48.704 8.31844 50.9381 8.31844C53.1722 8.31844 53.9914 10.6418 53.9914 12.5904C53.9914 14.539 53.2467 16.8623 50.9381 16.8623Z" fill="#005E61"/>
<path d="M65.7587 5.69531C64.5671 5.69531 63.4501 6.07005 62.5564 6.81951C62.4075 6.14499 61.8862 5.69531 61.1415 5.69531C60.2479 5.69531 59.7266 6.29489 59.7266 7.19424V17.9116C59.7266 18.811 60.3223 19.4105 61.1415 19.4105C62.0351 19.4105 62.5564 18.811 62.5564 17.9116V11.0165C62.5564 8.99296 63.8969 8.31844 65.0884 8.31844C66.28 8.31844 67.6204 9.06791 67.6204 11.0165V17.9116C67.6204 18.811 68.2162 19.4105 69.0354 19.4105C69.929 19.4105 70.4503 18.811 70.4503 17.9116V10.8666C70.5993 7.34414 68.2162 5.69531 65.7587 5.69531Z" fill="#005E61"/>
<path d="M83.7044 0.0742188C82.8108 0.0742188 82.2895 0.673791 82.2895 1.57315V6.74446C81.5448 6.14489 80.5767 5.62026 79.3107 5.62026C75.5127 5.62026 73.502 9.0678 73.502 12.5153C73.502 15.9629 75.5127 19.4104 79.3107 19.4104C80.6511 19.4104 81.6937 19.0357 82.364 18.3612C82.5129 19.0357 83.0342 19.4104 83.7789 19.4104C84.6726 19.4104 85.1938 18.8109 85.1938 17.9115V1.6481C85.1194 0.748737 84.5236 0.0742188 83.7044 0.0742188ZM82.4384 12.5903C82.4384 14.5389 81.6193 16.8622 79.3851 16.8622C77.151 16.8622 76.3318 14.5389 76.3318 12.5903C76.3318 10.6417 77.151 8.31834 79.3851 8.31834C81.6193 8.31834 82.4384 10.6417 82.4384 12.5903Z" fill="#005E61"/>
<path d="M98.4513 5.69531C97.8555 5.69531 97.1853 6.07004 97.1108 6.89446C96.1427 6.07004 95.1746 5.69531 93.9831 5.69531C90.0361 5.69531 88.0254 9.14285 88.0254 12.5904C88.0254 16.0379 90.0361 19.4855 93.9831 19.4855C95.1746 19.4855 96.2172 19.0358 97.1108 18.2114C97.1853 19.0358 97.8555 19.4855 98.4513 19.4855C99.1216 19.4855 99.8663 18.9608 99.8663 18.0615V7.11929C99.8663 6.21994 99.1216 5.69531 98.4513 5.69531ZM93.9831 8.31844C96.2172 8.31844 97.0364 10.6418 97.0364 12.5904C97.0364 14.539 96.2172 16.8623 93.9831 16.8623C91.7489 16.8623 90.9298 14.539 90.9298 12.5904C90.9298 10.6418 91.7489 8.31844 93.9831 8.31844Z" fill="#005E61"/>
<path d="M111.257 16.713H106.268L112.002 8.24399C112.3 7.79432 112.523 7.41958 112.523 6.9699C112.523 6.44528 112.151 5.8457 111.108 5.8457H104.108C103.214 5.8457 102.693 6.37033 102.693 7.19474C102.693 8.01916 103.214 8.54378 104.108 8.54378H108.502L102.767 16.9378C102.47 17.3875 102.246 17.7622 102.246 18.2119C102.246 18.7365 102.618 19.3361 103.661 19.3361H111.183C112.076 19.3361 112.598 18.8115 112.598 17.9871C112.598 17.1626 112.151 16.713 111.257 16.713Z" fill="#005E61"/>
<path d="M116.622 5.69531C115.728 5.69531 115.207 6.29489 115.207 7.19424V17.9116C115.207 18.811 115.803 19.4105 116.622 19.4105C117.516 19.4105 118.037 18.811 118.037 17.9116V7.19424C118.111 6.29489 117.516 5.69531 116.622 5.69531Z" fill="#005E61"/>
<path d="M116.619 1.42383C115.725 1.42383 114.906 2.17329 114.906 3.14759C114.906 4.04695 115.651 4.87136 116.619 4.87136C117.513 4.87136 118.332 4.1219 118.332 3.14759C118.332 2.17329 117.587 1.42383 116.619 1.42383Z" fill="#005E61"/>
<path d="M126.825 5.69531C122.878 5.69531 120.867 9.14285 120.867 12.5904C120.867 16.0379 122.878 19.4855 126.825 19.4855C130.772 19.4855 132.783 16.0379 132.783 12.5904C132.783 9.14285 130.772 5.69531 126.825 5.69531ZM126.825 16.8623C124.591 16.8623 123.772 14.539 123.772 12.5904C123.772 10.6418 124.591 8.31844 126.825 8.31844C129.059 8.31844 129.878 10.6418 129.878 12.5904C129.878 14.539 129.133 16.8623 126.825 16.8623Z" fill="#005E61"/>
<path d="M141.643 5.69531C140.452 5.69531 139.335 6.07005 138.441 6.81951C138.292 6.14499 137.771 5.69531 137.026 5.69531C136.133 5.69531 135.611 6.29489 135.611 7.19424V17.9116C135.611 18.811 136.207 19.4105 137.026 19.4105C137.92 19.4105 138.441 18.811 138.441 17.9116V11.0165C138.441 8.99296 139.782 8.31844 140.973 8.31844C142.165 8.31844 143.505 9.06791 143.505 11.0165V17.9116C143.505 18.811 144.101 19.4105 144.92 19.4105C145.814 19.4105 146.335 18.811 146.335 17.9116V10.8666C146.484 7.34414 144.026 5.69531 141.643 5.69531Z" fill="#005E61"/>
<path d="M159.59 15.1386C159.143 15.1386 158.845 15.3634 158.473 15.7381C157.877 16.2628 156.984 16.8623 155.345 16.8623C153.483 16.8623 152.217 15.6632 152.068 13.7895H159.516C160.558 13.7895 161.079 13.2649 161.079 12.2906C161.079 9.0679 158.92 5.69531 155.271 5.69531C152.217 5.69531 149.164 8.0936 149.164 12.5904C149.164 15.8131 150.802 19.4855 155.345 19.4855C157.877 19.4855 160.782 17.9116 160.782 16.4876C160.707 15.5883 160.111 15.1386 159.59 15.1386ZM158.101 11.3912H151.994C152.143 10.1921 152.664 8.16855 155.122 8.31844C157.132 8.31844 157.952 10.0422 158.101 11.3912Z" fill="#005E61"/>
<path d="M26.6595 12.0669C26.4361 12.0669 26.2871 12.2168 26.2871 12.4416C26.2871 12.6665 26.4361 12.8164 26.6595 12.8164C26.8829 12.8164 27.0318 12.6665 27.0318 12.4416C27.1063 12.2917 26.8829 12.0669 26.6595 12.0669Z" fill="#137677"/>
<path d="M24.054 12.0669C23.8306 12.0669 23.6816 12.2168 23.6816 12.4416C23.6816 12.6665 23.8306 12.8164 24.054 12.8164C24.2774 12.8164 24.4263 12.6665 24.4263 12.4416C24.4263 12.2917 24.2029 12.0669 24.054 12.0669Z" fill="#137677"/>
<path d="M22.7141 12.0669C22.4907 12.0669 22.3418 12.2168 22.3418 12.4416C22.3418 12.6665 22.4907 12.8164 22.7141 12.8164C22.9376 12.8164 23.0865 12.6665 23.0865 12.4416C23.0865 12.2917 22.9376 12.0669 22.7141 12.0669Z" fill="#137677"/>
<path d="M25.3938 12.0669C25.1704 12.0669 25.0215 12.2168 25.0215 12.4416C25.0215 12.6665 25.1704 12.8164 25.3938 12.8164C25.6172 12.8164 25.7662 12.6665 25.7662 12.4416C25.7662 12.2917 25.5428 12.0669 25.3938 12.0669Z" fill="#137677"/>
<path d="M28.0013 12.0669C27.7778 12.0669 27.6289 12.2168 27.6289 12.4416C27.6289 12.6665 27.7778 12.8164 28.0013 12.8164C28.2247 12.8164 28.3736 12.6665 28.3736 12.4416C28.3736 12.2917 28.2247 12.0669 28.0013 12.0669Z" fill="#137677"/>
<path d="M16.9789 9.29351C15.9363 8.4691 12.6596 8.39415 10.5 8.54404C10.1276 8.54404 10.1276 8.91878 10.5 8.84383C12.3617 8.69394 15.6384 8.76888 16.5321 9.51835C16.7555 9.74319 17.1279 9.44341 16.9789 9.29351Z" fill="#137677"/>
<path d="M14.0015 10.4921C14.2994 10.4921 14.5228 10.642 14.6717 10.8669C14.8206 10.717 14.8951 10.642 15.0441 10.4921C15.2675 10.2673 14.8206 9.96749 14.8206 9.96749C14.5228 9.74266 14.1504 9.66771 13.7036 9.59276C13.0334 9.51782 12.4376 9.51782 11.7674 9.44287C11.3206 9.44287 11.1717 9.66771 11.1717 9.66771C11.1717 9.66771 11.0227 9.89255 11.1717 10.1923C11.3951 10.642 11.693 11.0167 11.9908 11.3915C12.2142 11.6913 12.5866 12.066 12.9589 12.1409C13.1823 12.1409 13.3313 12.066 13.4802 11.9911C13.2568 11.8412 13.1079 11.6163 13.1079 11.3165C13.1823 10.8669 13.5547 10.4921 14.0015 10.4921Z" fill="#137677"/>
<path d="M1.26549 7.64495C1.33997 7.57001 1.41444 7.57001 1.48891 7.49506C1.71232 7.34517 1.93573 7.19528 2.45703 7.19528C2.90385 7.19528 3.20173 7.34517 3.42515 7.49506C3.64856 7.64495 3.79749 7.79485 4.24431 7.79485C4.61667 7.79485 4.84008 7.64495 5.06349 7.49506C5.28691 7.34517 5.51032 7.19528 6.03161 7.19528C6.10608 7.19528 6.25502 7.19528 6.32949 7.19528C6.40396 7.19528 6.5529 7.27022 6.70184 7.49506C6.77631 7.57001 6.85079 7.57001 6.92526 7.57001C7.0742 7.57001 7.22313 7.42011 7.22313 7.27022C7.22313 7.12033 7.14866 7.04538 7.07419 6.97043C6.99972 6.97043 6.99973 6.89549 6.92526 6.89549C6.70184 6.7456 6.5529 6.5957 6.10608 6.5957C5.65925 6.5957 5.51032 6.7456 5.28691 6.89549C5.0635 7.04538 4.84008 7.19528 4.31879 7.19528C3.87197 7.19528 3.57408 7.04538 3.35067 6.89549C3.12726 6.7456 2.97831 6.5957 2.53149 6.5957C2.15914 6.5957 1.93573 6.7456 1.71232 6.89549C1.63785 6.97044 1.48891 7.04538 1.33997 7.12033C1.19103 7.19527 0.967615 7.19528 0.744204 7.19528C0.520792 7.19528 0.297378 7.12033 0.148438 7.12033V7.64495C0.297378 7.7199 0.446322 7.79485 0.744204 7.79485C0.967615 7.79485 1.11655 7.7199 1.26549 7.64495Z" fill="#137677"/>
<path d="M1.26769 6.14521C1.34216 6.07026 1.41663 6.07026 1.4911 5.99531C1.71451 5.84542 1.93793 5.69553 2.45922 5.69553C2.90604 5.69553 3.20393 5.84542 3.42734 5.99531C3.65075 6.1452 3.79968 6.2951 4.2465 6.2951C4.61886 6.2951 4.84227 6.1452 5.06568 5.99531C5.28909 5.84542 5.51251 5.69553 6.0338 5.69553C6.55509 5.69553 6.77849 5.84542 7.0019 5.99531C7.22532 6.1452 7.37426 6.2951 7.82108 6.2951C8.26791 6.2951 8.41685 6.1452 8.64026 5.99531C8.86367 5.84542 9.08707 5.69553 9.60837 5.69553C10.0552 5.69553 10.3531 5.84542 10.5765 5.99531C10.7999 6.1452 10.9488 6.2951 11.3957 6.2951C11.768 6.2951 11.917 6.22015 12.1404 6.07026C12.1404 6.07026 12.2148 6.07026 12.2148 5.99531C12.4382 5.84542 12.6617 5.69553 13.1085 5.69553C13.3319 5.69553 13.4808 5.84542 13.4808 5.84542C13.5553 5.92036 13.6298 5.92037 13.7042 5.92037C13.8532 5.92037 14.0021 5.77047 14.0021 5.62058C14.0021 5.54563 13.9277 5.47068 13.8532 5.39574C13.7042 5.24584 13.4808 5.1709 13.1829 5.1709C12.8106 5.1709 12.5872 5.32079 12.3638 5.47068C12.1404 5.62058 11.917 5.77047 11.3957 5.77047C10.9488 5.77047 10.651 5.62058 10.4275 5.47068C10.2041 5.32079 10.0552 5.1709 9.60837 5.1709C9.23601 5.1709 9.01261 5.32079 8.7892 5.47068C8.56579 5.62058 8.34237 5.77047 7.82108 5.77047C7.37426 5.77047 7.07638 5.62058 6.85297 5.47068C6.62956 5.32079 6.48062 5.1709 6.0338 5.1709C5.66145 5.1709 5.43803 5.32079 5.21462 5.47068C4.99121 5.62058 4.7678 5.77047 4.2465 5.77047C3.79968 5.77047 3.5018 5.62058 3.27839 5.47068C3.05498 5.32079 2.90604 5.1709 2.45922 5.1709C2.08687 5.1709 1.86345 5.32079 1.64004 5.47068C1.56557 5.54563 1.41663 5.62058 1.26769 5.69553C1.11875 5.77047 0.895337 5.77047 0.671925 5.77047C0.448514 5.77047 0.225113 5.69553 0.0761719 5.69553V6.14521C0.225113 6.22015 0.374044 6.2951 0.671925 6.2951C0.969807 6.2951 1.11875 6.22015 1.26769 6.14521Z" fill="#137677"/>
<path d="M1.2677 4.64691C1.34217 4.57197 1.41664 4.57197 1.49111 4.49702C1.71453 4.34713 1.93794 4.19724 2.45924 4.19724C2.90606 4.19724 3.20395 4.34713 3.42736 4.49702C3.65077 4.64691 3.79971 4.79681 4.24653 4.79681C4.61889 4.79681 4.84231 4.64691 5.06572 4.49702C5.28913 4.34713 5.51255 4.19724 6.03384 4.19724C6.55514 4.19724 6.77854 4.34713 7.00195 4.49702C7.22537 4.64691 7.37431 4.79681 7.82114 4.79681C8.26796 4.79681 8.41691 4.64691 8.64032 4.49702C8.86374 4.34713 9.08714 4.19724 9.60843 4.19724C10.0553 4.19724 10.3531 4.34713 10.5766 4.49702C10.8 4.64691 10.9489 4.79681 11.3957 4.79681C11.7681 4.79681 11.9915 4.64691 12.2149 4.49702C12.4383 4.34713 12.6617 4.19724 13.183 4.19724C13.6299 4.19724 13.9277 4.34713 14.1512 4.49702C14.3746 4.64691 14.5235 4.79681 14.9703 4.79681C15.1193 4.79681 15.1938 4.79681 15.2682 4.79681C15.4916 4.72186 15.6406 4.64691 15.7895 4.57197C15.864 4.57197 15.864 4.49702 15.9385 4.49702C15.9385 4.49702 15.9385 4.49702 16.0129 4.49702C16.1619 4.42207 16.2363 4.34713 16.3853 4.27218C16.5342 4.19724 16.6832 4.34713 16.7576 4.34713C16.8321 4.42207 16.9066 4.42207 16.9811 4.42207C17.13 4.42207 17.2789 4.27218 17.2789 4.12229C17.2789 3.9724 17.2045 3.89745 17.0555 3.82251C16.9811 3.82251 16.8321 3.74756 16.7576 3.74756C16.3853 3.74756 16.1619 3.89745 15.9385 4.04734C15.715 4.19724 15.4916 4.34713 14.9703 4.34713C14.5235 4.34713 14.2256 4.19724 14.0022 4.04734C13.7788 3.89745 13.6299 3.74756 13.183 3.74756C12.8107 3.74756 12.5873 3.89745 12.3639 4.04734C12.1405 4.19724 11.917 4.34713 11.3957 4.34713C10.9489 4.34713 10.651 4.19724 10.4276 4.04734C10.2042 3.89745 10.0553 3.74756 9.60843 3.74756C9.23608 3.74756 9.01267 3.89745 8.78926 4.04734C8.56585 4.19724 8.34243 4.34713 7.82114 4.34713C7.37431 4.34713 7.07643 4.19724 6.85301 4.04734C6.6296 3.89745 6.48067 3.74756 6.03384 3.74756C5.66149 3.74756 5.43807 3.89745 5.21466 4.04734C4.99124 4.19724 4.76783 4.34713 4.24653 4.34713C3.79971 4.34713 3.50182 4.19724 3.27841 4.04734C3.055 3.89745 2.90606 3.74756 2.45924 3.74756C2.08688 3.74756 1.86347 3.89745 1.64005 4.04734C1.56558 4.12229 1.41664 4.19724 1.2677 4.27218C1.11876 4.34713 0.895342 4.34713 0.67193 4.34713C0.448517 4.34713 0.225114 4.27218 0.0761719 4.27218V4.72186C0.225114 4.7968 0.374046 4.87175 0.67193 4.87175C0.969813 4.7968 1.11876 4.79681 1.2677 4.64691Z" fill="#137677"/>
<path d="M1.266 9.14301C1.34047 9.06806 1.41494 9.06806 1.48941 8.99312C1.71282 8.84322 1.93624 8.69333 2.45753 8.69333C2.90436 8.69333 3.20224 8.84322 3.42565 8.99312C3.57459 9.14301 3.72353 9.21796 3.94694 9.21796C3.94694 9.21796 4.17035 9.21796 4.46824 9.06806C4.61718 8.99312 4.76612 8.99312 4.91506 9.06806C4.98953 9.06806 4.98953 9.14301 5.064 9.14301C5.21294 9.14301 5.36188 8.99311 5.36188 8.84322C5.36188 8.69333 5.21294 8.54343 5.064 8.54343C4.98953 8.54343 4.98953 8.54343 4.91506 8.54343C4.84059 8.61838 4.76612 8.61838 4.69165 8.61838H4.61718C4.5427 8.61838 4.39377 8.69333 4.17036 8.69333C3.72353 8.69333 3.42565 8.54343 3.20224 8.39354C2.97883 8.24365 2.82988 8.09375 2.38306 8.09375C2.0107 8.09375 1.7873 8.24365 1.56389 8.39354C1.48942 8.46849 1.34048 8.54343 1.19153 8.61838C1.04259 8.69333 0.819179 8.69333 0.595767 8.69333C0.372355 8.69333 0.148941 8.61838 0 8.61838V9.14301C0.148941 9.21796 0.297885 9.2929 0.595767 9.2929C0.96812 9.2929 1.11706 9.21796 1.266 9.14301Z" fill="#137677"/>
<path d="M1.266 3.22236C1.34047 3.14741 1.41494 3.14741 1.48941 3.07247C1.71282 2.92257 1.93624 2.77268 2.45753 2.77268C2.90435 2.77268 3.20224 2.92257 3.42565 3.07247C3.64906 3.22236 3.79799 3.37225 4.24482 3.37225C4.61717 3.37225 4.84058 3.22236 5.064 3.07247C5.28741 2.92257 5.51082 2.77268 6.03211 2.77268C6.55341 2.77268 6.77681 2.92257 7.00022 3.07247C7.22363 3.22236 7.37258 3.37225 7.8194 3.37225C8.26622 3.37225 8.41517 3.22236 8.63858 3.07247C8.86199 2.92257 9.0854 2.77268 9.60669 2.77268C10.0535 2.77268 10.3514 2.92257 10.5748 3.07247C10.7982 3.22236 10.9472 3.37225 11.394 3.37225C11.7663 3.37225 11.9897 3.22236 12.2132 3.07247C12.4366 2.92257 12.66 2.77268 13.1813 2.77268C13.6281 2.77268 13.926 2.92257 14.1494 3.07247C14.3728 3.22236 14.5218 3.37225 14.9686 3.37225C15.3409 3.37225 15.5643 3.22236 15.7877 3.07247C16.0112 2.92257 16.2346 2.77268 16.7559 2.77268C17.2027 2.77268 17.5006 2.92257 17.724 3.07247L17.7984 3.14741L18.1708 3.37225C18.2453 3.37225 18.2453 3.4472 18.3197 3.4472C18.4687 3.4472 18.6176 3.29731 18.6176 3.14741C18.6176 2.99752 18.5432 2.92257 18.3942 2.84762C17.9474 2.84762 17.724 2.69773 17.5006 2.54784C17.2772 2.39794 17.1282 2.24805 16.6814 2.24805C16.309 2.24805 16.0856 2.39794 15.8622 2.54784C15.6388 2.69773 15.4154 2.84762 14.8941 2.84762C14.4473 2.84762 14.1494 2.69773 13.926 2.54784C13.7026 2.39794 13.5536 2.24805 13.1068 2.24805C12.7345 2.24805 12.511 2.39794 12.2876 2.54784C12.0642 2.69773 11.8408 2.84762 11.3195 2.84762C10.8727 2.84762 10.5748 2.69773 10.3514 2.54784C10.128 2.39794 9.97905 2.24805 9.53223 2.24805C9.15987 2.24805 8.93646 2.39794 8.71305 2.54784C8.48963 2.69773 8.26622 2.84762 7.74493 2.84762C7.2981 2.84762 7.00023 2.69773 6.77682 2.54784C6.55341 2.39794 6.40446 2.24805 5.95764 2.24805C5.58529 2.24805 5.36187 2.39794 5.13846 2.54784C4.91505 2.69773 4.69165 2.84762 4.17035 2.84762C3.72353 2.84762 3.42565 2.69773 3.20223 2.54784C2.97882 2.39794 2.82988 2.24805 2.38305 2.24805C2.0107 2.24805 1.7873 2.39794 1.56388 2.54784C1.48941 2.62278 1.34047 2.69773 1.19153 2.77268C1.04259 2.84762 0.819178 2.84762 0.595766 2.84762C0.372355 2.84762 0.148941 2.77268 0 2.77268V3.22236C0.148941 3.29731 0.297884 3.37225 0.595766 3.37225C0.968119 3.37225 1.11706 3.29731 1.266 3.22236Z" fill="#137677"/>
<path d="M29.192 10.7166V0.0742188H0.148438V0.299058V1.6481C0.297379 1.72304 0.446322 1.79799 0.744205 1.79799C1.04209 1.79799 1.19103 1.72304 1.33997 1.6481C1.41444 1.57315 1.48892 1.57315 1.56339 1.4982C1.7868 1.34831 2.0102 1.19842 2.5315 1.19842C2.97832 1.19842 3.2762 1.34831 3.49962 1.4982C3.72303 1.6481 3.87197 1.79799 4.3188 1.79799C4.69115 1.79799 4.91456 1.6481 5.13797 1.4982C5.36138 1.34831 5.58479 1.19842 6.10609 1.19842C6.62738 1.19842 6.8508 1.34831 7.07421 1.4982C7.29762 1.6481 7.44657 1.79799 7.89339 1.79799C8.34022 1.79799 8.48915 1.6481 8.71256 1.4982C8.93597 1.34831 9.15939 1.19842 9.68068 1.19842C10.1275 1.19842 10.4254 1.34831 10.6488 1.4982C10.8722 1.6481 11.0211 1.79799 11.468 1.79799C11.8403 1.79799 12.0637 1.6481 12.2872 1.4982C12.5106 1.34831 12.734 1.19842 13.2553 1.19842C13.7021 1.19842 14 1.34831 14.2234 1.4982C14.4468 1.6481 14.5957 1.79799 15.0426 1.79799C15.4149 1.79799 15.6383 1.6481 15.8617 1.4982C16.0852 1.34831 16.3086 1.19842 16.8299 1.19842C17.2767 1.19842 17.5746 1.34831 17.798 1.4982C18.0214 1.6481 18.1703 1.79799 18.6172 1.79799C19.064 1.79799 19.2129 1.6481 19.4363 1.4982C19.6598 1.34831 19.8832 1.19842 20.4045 1.19842H20.7023C20.7768 3.97144 19.7342 6.66952 18.6916 9.36759C18.5427 9.66738 18.4682 9.96716 18.3193 10.3419C16.9043 13.9393 16.3086 17.162 16.383 20.3098C15.4149 20.5346 13.7021 21.0593 12.734 20.8344C12.5106 20.7595 12.3616 20.9094 12.2872 21.0593C12.2127 21.2092 12.2872 21.359 12.3616 21.434C12.3616 21.434 12.3616 21.434 12.3616 21.5089C12.3616 21.8837 12.1382 22.1835 11.8403 22.3333C11.5424 22.4832 11.1701 22.4832 10.7977 22.2584L10.6488 22.1085C10.5743 22.0336 10.4254 22.0336 10.3509 22.0336C10.202 22.1085 10.1275 22.1835 10.1275 22.3333C10.1275 22.4832 10.202 22.6331 10.2765 22.7081C10.4999 22.858 10.6488 23.1578 10.5743 23.4575C10.4999 23.7573 10.2764 23.9822 9.97856 23.9822C9.97856 23.9822 9.90409 23.9822 9.82962 23.9822C9.01044 24.282 8.48915 24.8066 8.11679 25.631C7.96785 25.9308 7.89339 26.2306 7.81892 26.6053C7.66997 27.2798 7.52103 28.0293 6.99973 28.3291C5.0635 28.404 3.20174 28.0293 1.48891 27.2049V10.5667C1.56338 10.4918 1.63785 10.4918 1.71233 10.4168C1.93574 10.267 2.15914 10.1171 2.5315 10.1171C2.68044 10.1171 2.90385 10.192 2.90385 10.192C2.97832 10.267 3.05279 10.267 3.12726 10.267C3.2762 10.267 3.42515 10.1171 3.42515 9.96716C3.42515 9.81727 3.35067 9.74233 3.2762 9.74233C3.12726 9.66738 2.97832 9.59243 2.75491 9.59243C2.38256 9.59243 2.15915 9.74233 1.93574 9.89222C1.86127 9.96717 1.71233 10.0421 1.56339 10.1171C1.41445 10.192 1.19103 10.192 0.967619 10.192C0.744207 10.192 0.520793 10.1171 0.371852 10.1171V10.6417V26.8301V26.9051V26.98V27.5047V27.5796V27.6546V34.6246V34.8494H6.25503H13.9255C22.4152 34.8494 29.3409 27.8794 29.3409 19.3355V19.1106V14.2391C29.8622 13.8644 30.2346 13.1899 30.2346 12.5153C30.0856 11.7659 29.7133 11.0914 29.192 10.7166ZM28.0005 13.4147V19.1106V19.3355C28.0005 26.3055 23.0854 32.1514 16.532 33.5004C16.0107 33.5753 15.7128 32.9008 16.0852 32.601C20.0321 29.5282 22.5641 24.7316 22.5641 19.4104V19.1856V13.4897C22.1173 13.4147 21.7449 13.04 21.7449 12.5153C21.7449 11.9907 22.1918 11.541 22.713 11.541C22.9365 11.541 23.2343 11.616 23.3833 11.8408C23.5322 11.6909 23.7556 11.541 24.0535 11.541C24.3514 11.541 24.5748 11.616 24.7238 11.8408C24.8727 11.6909 25.0961 11.541 25.394 11.541C25.6174 11.541 25.9153 11.616 26.0642 11.8408C26.2132 11.6909 26.4366 11.541 26.7345 11.541C26.9579 11.541 27.2558 11.616 27.4047 11.8408C27.5536 11.6909 27.777 11.541 28.0749 11.541C28.5962 11.541 29.0431 11.9907 29.0431 12.5153C28.9686 12.965 28.5218 13.4147 28.0005 13.4147Z" fill="#005E61"/>
</svg>
