<svg width="162" height="35" fill="none" xmlns="http://www.w3.org/2000/svg"><path d="M28.002 13.415v5.92c0 6.97-4.915 12.816-11.469 14.165-.521.075-.82-.6-.447-.899 3.947-3.073 6.48-7.87 6.48-13.19V13.49a.973.973 0 0 1-.82-.975.99.99 0 0 1 .968-.974c.224 0 .521.075.67.3.15-.15.373-.3.67-.3.299 0 .522.075.67.3.15-.15.373-.3.671-.3.224 0 .521.075.67.3.15-.15.373-.3.67-.3.224 0 .522.075.67.3.15-.15.373-.3.671-.3a.99.99 0 0 1 .968.974c-.074.45-.521.9-1.042.9z" fill="#F5A506"/><path d="M41.332 33.875c1.564 0 2.234-.974 2.755-.974.298 0 .521.225.521.6 0 .674-1.489 1.424-3.276 1.424-2.979 0-4.543-2.623-4.543-5.322 0-2.698 1.564-5.32 4.617-5.32 1.862 0 2.98.973 2.98 1.498 0 .375-.224.6-.522.6-.596 0-.894-1.05-2.458-1.05-2.308 0-3.276 2.174-3.276 4.198 0 2.023.968 4.346 3.202 4.346zm12.436.601c-.075.3-.298.45-.596.45-.372 0-.596-.226-.596-.525 0-.15.15-.525.15-.675l3.201-8.694c.15-.45.447-.824.894-.824.521 0 .745.375.894.824l3.202 8.694c.074.15.149.45.149.675 0 .374-.298.524-.596.524-.372 0-.521-.224-.596-.45l-.67-1.873h-4.84l-.596 1.874zm3.127-8.62l-2.01 5.697h4.021l-2.01-5.696zm14 8.394c0 .45-.223.675-.67.675a.67.67 0 0 1-.67-.674v-9.144c0-.375.223-.674.67-.674h2.532c2.085 0 3.351 1.499 3.351 3.297 0 1.799-1.415 3.298-3.351 3.298h-2.01v3.223h.148zm0-4.421h1.936c1.266 0 2.16-.974 2.16-2.174 0-1.049-.596-2.173-2.16-2.173H70.97v4.347h-.075zm14.969 3.822h3.127c.373 0 .596.225.596.6a.59.59 0 0 1-.596.6h-3.723c-.447 0-.67-.3-.67-.675v-9.069c0-.375.223-.674.67-.674h3.723c.373 0 .596.224.596.6a.59.59 0 0 1-.596.599h-3.127v3.447h2.83c.372 0 .595.225.595.6a.59.59 0 0 1-.595.6h-2.83v3.372zm13.927 0h2.756c.372 0 .596.225.596.6a.59.59 0 0 1-.596.6h-3.351c-.447 0-.67-.3-.67-.675v-9.144c0-.45.223-.674.67-.674.372 0 .67.3.67.674v8.62h-.075zm13.106 0h2.755c.373 0 .596.225.596.6a.59.59 0 0 1-.596.6h-3.351c-.447 0-.67-.3-.67-.675v-9.144c0-.45.223-.674.67-.674.447 0 .67.3.67.674v8.62h-.074zm13.108.599c0 .45-.224.675-.671.675a.67.67 0 0 1-.67-.674v-9.219c0-.45.223-.674.67-.674.373 0 .671.3.671.674v9.219zm10.351 0c0 .45-.223.675-.67.675a.67.67 0 0 1-.67-.674v-9.144c0-.524.149-.75.595-.75.373 0 .522.15.894.675l5.287 7.57v-7.57c0-.45.224-.674.671-.674.372 0 .67.3.67.674v9.219c0 .525-.149.75-.596.75-.372 0-.521-.15-.893-.675l-5.288-7.57v7.495zm20.107-9.892c2.978 0 4.542 2.623 4.542 5.321 0 2.698-1.564 5.321-4.542 5.321-2.979 0-4.543-2.623-4.543-5.32 0-2.774 1.564-5.322 4.543-5.322zm0 9.518c2.308 0 3.202-2.173 3.202-4.197 0-2.023-.819-4.197-3.202-4.197-2.309 0-3.203 2.174-3.203 4.197 0 2.024.82 4.197 3.203 4.197zM42.002 2.698h.521c1.415 0 1.564-.9 1.564-1.349C44.087.525 43.268 0 42.523 0h-.67c-1.936 0-3.202 1.274-3.202 3.148v2.548h-.447c-.894 0-1.415.525-1.415 1.349s.521 1.349 1.415 1.349h.447v9.518c0 .9.596 1.5 1.415 1.5.893 0 1.415-.6 1.415-1.5V8.47h.893c.894 0 1.415-.525 1.415-1.35 0-.823-.521-1.348-1.415-1.348h-.893V3.148c.074-.3.149-.45.521-.45zm8.936 2.997c-3.947 0-5.958 3.448-5.958 6.895 0 3.448 2.011 6.895 5.958 6.895s5.958-3.447 5.958-6.895c0-3.447-2.01-6.895-5.958-6.895zm0 11.167c-2.234 0-3.053-2.323-3.053-4.272 0-1.948.819-4.272 3.053-4.272s3.053 2.324 3.053 4.272c0 1.949-.744 4.272-3.053 4.272zM65.759 5.695c-1.192 0-2.309.375-3.203 1.125-.148-.675-.67-1.125-1.414-1.125-.894 0-1.415.6-1.415 1.5v10.717c0 .899.595 1.498 1.415 1.498.893 0 1.414-.599 1.414-1.498v-6.895c0-2.024 1.34-2.699 2.532-2.699s2.532.75 2.532 2.699v6.895c0 .899.596 1.498 1.415 1.498.894 0 1.415-.599 1.415-1.498v-7.045c.15-3.523-2.234-5.172-4.691-5.172zM83.704.074c-.893 0-1.414.6-1.414 1.5v5.17c-.745-.6-1.713-1.124-2.98-1.124-3.797 0-5.808 3.448-5.808 6.895 0 3.448 2.01 6.895 5.809 6.895 1.34 0 2.383-.374 3.053-1.049.149.675.67 1.05 1.415 1.05.894 0 1.415-.6 1.415-1.5V1.648c-.075-.9-.67-1.574-1.49-1.574zM82.438 12.59c0 1.949-.819 4.272-3.053 4.272s-3.053-2.323-3.053-4.272c0-1.948.819-4.272 3.053-4.272s3.053 2.324 3.053 4.272zm16.013-6.895c-.595 0-1.266.375-1.34 1.2-.968-.825-1.936-1.2-3.128-1.2-3.947 0-5.958 3.448-5.958 6.895 0 3.448 2.011 6.895 5.958 6.895 1.192 0 2.234-.45 3.128-1.274a1.366 1.366 0 0 0 1.34 1.274c.67 0 1.415-.524 1.415-1.424V7.12c0-.9-.744-1.424-1.415-1.424zm-4.468 2.623c2.234 0 3.053 2.324 3.053 4.272 0 1.949-.819 4.272-3.053 4.272S90.93 14.54 90.93 12.59c0-1.948.819-4.272 3.053-4.272zm17.274 8.395h-4.989l5.734-8.469c.298-.45.521-.824.521-1.274 0-.525-.372-1.124-1.415-1.124h-7c-.894 0-1.415.524-1.415 1.349 0 .824.521 1.349 1.415 1.349h4.394l-5.735 8.394c-.297.45-.521.824-.521 1.274 0 .524.372 1.124 1.415 1.124h7.522c.893 0 1.415-.524 1.415-1.349 0-.824-.447-1.274-1.341-1.274zm5.365-11.018c-.894 0-1.415.6-1.415 1.5v10.717c0 .899.596 1.498 1.415 1.498.894 0 1.415-.599 1.415-1.498V7.194c.074-.9-.521-1.499-1.415-1.499zm-.003-4.271c-.894 0-1.713.75-1.713 1.724 0 .899.745 1.723 1.713 1.723.894 0 1.713-.75 1.713-1.723 0-.975-.745-1.724-1.713-1.724zm10.206 4.271c-3.947 0-5.958 3.448-5.958 6.895 0 3.448 2.011 6.895 5.958 6.895s5.958-3.447 5.958-6.895c0-3.447-2.011-6.895-5.958-6.895zm0 11.167c-2.234 0-3.053-2.323-3.053-4.272 0-1.948.819-4.272 3.053-4.272s3.053 2.324 3.053 4.272c0 1.949-.745 4.272-3.053 4.272zm14.818-11.167c-1.191 0-2.308.375-3.202 1.125-.149-.675-.67-1.125-1.415-1.125-.893 0-1.415.6-1.415 1.5v10.717c0 .899.596 1.498 1.415 1.498.894 0 1.415-.599 1.415-1.498v-6.895c0-2.024 1.341-2.699 2.532-2.699 1.192 0 2.532.75 2.532 2.699v6.895c0 .899.596 1.498 1.415 1.498.894 0 1.415-.599 1.415-1.498v-7.045c.149-3.523-2.309-5.172-4.692-5.172zm17.947 9.444c-.447 0-.745.224-1.117.6-.596.524-1.489 1.123-3.128 1.123-1.862 0-3.128-1.199-3.277-3.072h7.448c1.042 0 1.563-.525 1.563-1.5 0-3.222-2.159-6.595-5.808-6.595-3.054 0-6.107 2.399-6.107 6.895 0 3.223 1.638 6.895 6.181 6.895 2.532 0 5.437-1.573 5.437-2.997-.075-.9-.671-1.35-1.192-1.35zm-1.489-3.748h-6.107c.149-1.199.67-3.222 3.128-3.073 2.01 0 2.83 1.724 2.979 3.073z" fill="#005E61"/><path d="M26.66 12.067c-.224 0-.373.15-.373.375 0 .224.15.374.373.374s.372-.15.372-.374c.074-.15-.15-.375-.372-.375zm-2.606 0c-.223 0-.372.15-.372.375 0 .224.149.374.372.374s.372-.15.372-.374c0-.15-.223-.375-.372-.375zm-1.34 0c-.223 0-.372.15-.372.375 0 .224.149.374.372.374.224 0 .373-.15.373-.374 0-.15-.15-.375-.373-.375zm2.68 0c-.224 0-.372.15-.372.375 0 .224.148.374.372.374.223 0 .372-.15.372-.374 0-.15-.223-.375-.372-.375zm2.607 0c-.223 0-.372.15-.372.375 0 .224.149.374.372.374.224 0 .373-.15.373-.374 0-.15-.15-.375-.373-.375zM16.979 9.294c-1.043-.825-4.32-.9-6.479-.75-.372 0-.372.375 0 .3 1.862-.15 5.138-.075 6.032.674.224.225.596-.075.447-.224zm-2.977 1.198a.78.78 0 0 1 .67.375l.372-.375c.223-.225-.223-.525-.223-.525-.298-.224-.67-.3-1.117-.374-.67-.075-1.266-.075-1.937-.15-.446 0-.595.225-.595.225s-.15.225 0 .524c.223.45.521.825.819 1.2.223.3.596.674.968.749.223 0 .372-.075.521-.15a.788.788 0 0 1-.372-.675c.074-.45.447-.824.893-.824zM1.265 7.645c.075-.075.15-.075.224-.15.223-.15.447-.3.968-.3.447 0 .745.15.968.3.224.15.372.3.82.3.372 0 .595-.15.818-.3.224-.15.447-.3.969-.3h.297c.075 0 .224.075.373.3.074.075.149.075.223.075.15 0 .298-.15.298-.3s-.074-.225-.149-.3C7 6.97 7 6.895 6.925 6.895c-.223-.15-.372-.3-.819-.3-.447 0-.596.15-.82.3-.222.15-.446.3-.967.3a1.65 1.65 0 0 1-.968-.3c-.224-.15-.373-.3-.82-.3-.372 0-.595.15-.819.3-.074.075-.223.15-.372.225-.149.075-.372.075-.596.075-.223 0-.447-.075-.596-.075v.525c.15.075.298.15.596.15.224 0 .373-.075.521-.15zm.003-1.5c.074-.075.149-.075.223-.15.224-.15.447-.3.968-.3.447 0 .745.15.968.3.224.15.373.3.82.3.372 0 .595-.15.819-.3.223-.15.447-.3.968-.3.521 0 .744.15.968.3.223.15.372.3.82.3.446 0 .595-.15.818-.3.224-.15.447-.3.968-.3.447 0 .745.15.968.3.224.15.373.3.82.3.372 0 .521-.075.744-.225 0 0 .075 0 .075-.075.223-.15.447-.3.893-.3.224 0 .373.15.373.15.074.075.149.075.223.075.15 0 .298-.15.298-.3 0-.074-.074-.15-.149-.224-.149-.15-.372-.225-.67-.225-.372 0-.596.15-.82.3-.223.15-.446.3-.967.3-.447 0-.745-.15-.969-.3-.223-.15-.372-.3-.819-.3-.372 0-.595.15-.819.3-.223.15-.447.3-.968.3a1.65 1.65 0 0 1-.968-.3c-.223-.15-.372-.3-.82-.3-.372 0-.595.15-.818.3-.224.15-.447.3-.968.3a1.65 1.65 0 0 1-.969-.3c-.223-.15-.372-.3-.819-.3-.372 0-.596.15-.819.3-.074.075-.223.15-.372.225-.15.074-.373.074-.596.074-.223 0-.447-.074-.596-.074v.45c.15.074.298.15.596.15s.447-.076.596-.15zm0-1.498c.074-.075.149-.075.223-.15.224-.15.447-.3.968-.3.447 0 .745.15.968.3.224.15.373.3.82.3.372 0 .595-.15.819-.3.223-.15.447-.3.968-.3.521 0 .745.15.968.3.223.15.372.3.82.3.446 0 .595-.15.818-.3.224-.15.447-.3.968-.3.447 0 .745.15.969.3.223.15.372.3.819.3.372 0 .595-.15.819-.3.223-.15.447-.3.968-.3.447 0 .745.15.968.3.224.15.373.3.82.3h.297c.224-.075.373-.15.521-.225.075 0 .075-.075.15-.075h.074c.149-.075.223-.15.372-.225.15-.075.298.075.373.075.074.075.149.075.223.075.149 0 .298-.15.298-.3s-.075-.225-.224-.3c-.074 0-.223-.074-.297-.074-.373 0-.596.15-.82.3-.223.15-.446.3-.968.3a1.65 1.65 0 0 1-.968-.3c-.223-.15-.372-.3-.819-.3-.372 0-.596.15-.82.3-.223.15-.446.3-.967.3a1.65 1.65 0 0 1-.968-.3c-.224-.15-.373-.3-.82-.3-.372 0-.595.15-.819.3-.223.15-.447.3-.968.3a1.65 1.65 0 0 1-.968-.3c-.223-.15-.372-.3-.82-.3-.372 0-.595.15-.818.3-.224.15-.447.3-.968.3a1.65 1.65 0 0 1-.969-.3c-.223-.15-.372-.3-.819-.3-.372 0-.596.15-.819.3-.074.074-.223.15-.372.224-.15.075-.373.075-.596.075-.223 0-.447-.075-.596-.075v.45c.15.075.298.15.596.15.298-.075.447-.075.596-.225zm-.002 4.496c.074-.075.149-.075.223-.15.224-.15.447-.3.969-.3.446 0 .744.15.968.3.149.15.298.225.52.225 0 0 .224 0 .522-.15a.472.472 0 0 1 .447 0c.075 0 .075.075.149.075.149 0 .298-.15.298-.3s-.15-.3-.298-.3h-.149c-.074.075-.149.075-.223.075h-.075c-.074 0-.223.075-.447.075a1.65 1.65 0 0 1-.968-.3c-.223-.15-.372-.3-.819-.3-.372 0-.596.15-.82.3-.074.075-.223.15-.371.225-.15.075-.373.075-.596.075-.224 0-.447-.075-.596-.075v.525c.149.075.298.15.596.15.372 0 .521-.075.67-.15zm0-5.921c.074-.075.149-.075.223-.15.224-.15.447-.3.969-.3.446 0 .744.15.968.3.223.15.372.3.819.3.372 0 .596-.15.819-.3.223-.15.447-.3.968-.3.521 0 .745.15.968.3.224.15.373.3.82.3.446 0 .595-.15.819-.3.223-.15.446-.3.968-.3.447 0 .744.15.968.3.223.15.372.3.819.3.372 0 .596-.15.82-.3.223-.15.446-.3.967-.3.447 0 .745.15.968.3.224.15.373.3.82.3.372 0 .595-.15.819-.3.223-.15.447-.3.968-.3.447 0 .745.15.968.3l.074.075.373.225c.074 0 .074.075.149.075.149 0 .298-.15.298-.3s-.075-.224-.224-.3c-.447 0-.67-.15-.893-.3-.224-.15-.373-.299-.82-.299-.372 0-.595.15-.819.3-.223.15-.447.3-.968.3a1.65 1.65 0 0 1-.968-.3c-.223-.15-.372-.3-.82-.3-.371 0-.595.15-.818.3-.224.15-.447.3-.969.3a1.65 1.65 0 0 1-.968-.3c-.223-.15-.372-.3-.819-.3-.372 0-.596.15-.819.3-.223.15-.447.3-.968.3a1.65 1.65 0 0 1-.968-.3c-.224-.15-.373-.3-.82-.3-.372 0-.595.15-.819.3-.223.15-.446.3-.968.3a1.65 1.65 0 0 1-.968-.3c-.223-.15-.372-.3-.819-.3-.372 0-.596.15-.82.3-.074.075-.223.15-.371.225-.15.075-.373.075-.596.075-.224 0-.447-.075-.596-.075v.45c.149.074.298.15.596.15.372 0 .521-.076.67-.15z" fill="#137677"/><path d="M29.192 10.717V.074H.148V1.65c.15.074.298.149.596.149s.447-.075.596-.15c.074-.075.149-.075.223-.15.224-.15.447-.3.968-.3.447 0 .745.15.969.3.223.15.372.3.819.3.372 0 .596-.15.819-.3.223-.15.447-.3.968-.3.521 0 .745.15.968.3.224.15.373.3.82.3.446 0 .595-.15.819-.3.223-.15.446-.3.968-.3.447 0 .744.15.968.3.223.15.372.3.819.3.372 0 .596-.15.82-.3.223-.15.446-.3.967-.3.447 0 .745.15.968.3.224.15.373.3.82.3.372 0 .595-.15.819-.3.223-.15.447-.3.968-.3.447 0 .745.15.968.3.223.15.372.3.82.3.446 0 .595-.15.818-.3.224-.15.447-.3.968-.3h.298c.075 2.773-.968 5.472-2.01 8.17-.15.3-.224.6-.373.974-1.415 3.597-2.01 6.82-1.936 9.968-.968.225-2.68.75-3.649.524-.223-.075-.372.075-.447.225-.074.15 0 .3.075.375v.075a.922.922 0 0 1-.522.824c-.298.15-.67.15-1.042-.075l-.15-.15c-.074-.074-.223-.074-.297-.074-.149.075-.224.15-.224.3s.075.3.15.374c.223.15.372.45.297.75-.074.3-.298.524-.595.524h-.15c-.819.3-1.34.825-1.712 1.649-.15.3-.224.6-.298.974-.149.675-.298 1.424-.82 1.724-1.935.075-3.797-.3-5.51-1.124V10.567c.074-.075.149-.075.223-.15.224-.15.447-.3.82-.3.148 0 .372.075.372.075.074.075.149.075.223.075.15 0 .298-.15.298-.3s-.074-.225-.149-.225c-.149-.075-.298-.15-.521-.15-.372 0-.596.15-.82.3-.074.075-.223.15-.372.225-.149.075-.372.075-.595.075-.224 0-.447-.075-.596-.075V34.85h13.553c8.49 0 15.416-6.97 15.416-15.513v-5.098c.521-.375.894-1.05.894-1.724-.15-.75-.522-1.424-1.043-1.798zM28 13.415v5.92c0 6.97-4.915 12.816-11.468 14.165-.521.075-.82-.6-.447-.899 3.947-3.073 6.48-7.87 6.48-13.19V13.49a.973.973 0 0 1-.82-.975.99.99 0 0 1 .968-.974c.223 0 .521.075.67.3.15-.15.373-.3.67-.3.298 0 .522.075.67.3.15-.15.373-.3.671-.3.223 0 .521.075.67.3.15-.15.373-.3.67-.3.224 0 .522.075.67.3.15-.15.373-.3.67-.3.522 0 .97.45.97.974-.075.45-.522.9-1.044.9z" fill="#005E61"/></svg>