<svg width="264" height="70" fill="none" xmlns="http://www.w3.org/2000/svg"><path d="M221.622 9.1v1.4l-.232.233v.467l-.232.233v.467l-.231.233v.467l-.232.233-.231.234-.232.233-.232.467-.231.233-.232.233-.231.234-.232.233-.231.233-.232.234h-.463l-.232.233-.231.233h-.463l-.232.234-.463.233h-.463l-.464.233h-1.852l-.232-.233h-.694l-.464-.233h-.231l-.463-.234-.232-.233h-.231l-.464-.233-.231-.234-.232-.233-.231-.233-.232-.234-.232-.233-.231-.233-.232-.234-.231-.466-.232-.234-.231-.233-.232-.233-.232-.467v-.233l-.231-.467v-.233l-.232-.467v-.7l-.231-.233v-1.4l.231-.467v-.467l.232-.466v-.234l.231-.466v-.234l.232-.233.232-.233.231-.467.232-.233.231-.234.232-.233.231-.233.232-.234.232-.233.231-.233.232-.234.231-.233h.464l.231-.233.232-.234h.463l.231-.233h.695l.463-.233h2.084l.232.233h.463l.232.233h.463l.232.234h.231l.463.233.232.233.231.234h.464l.231.233.232.233.231.234.232.466.231.234.232.233.232.233.231.234V5.6l.232.467.231.233v.467l.232.233v.233l.232.467v1.4zm-13.433 19.133V26.6l.232-.467v-.7l.232-.466.231-.234V24.5l.232-.467.231-.233.232-.233.231-.234V23.1l.232-.467h.463l.232-.233.231-.233.232-.234.232-.233h.463l.231-.233h.232l.463-.234h.926l.463-.233h.695l.232.233h.695l.463.234h.694l.232.233.232.233h.463l.231.234.232.233.231.233.232.234.232.233.231.233.232.234.231.466v.234l.232.233.232.467v.233l.231.467v.233l.232.467v.7l.231.466v35.7l-.231.467v.7l-.232.467v.233l-.231.467v.233l-.232.467-.232.233v.233l-.231.467-.232.233-.231.234-.232.233-.232.233-.231.234h-.232l-.463.233-.231.233-.232.234h-.232l-.463.233h-.694l-.232.233h-1.853l-.231-.233h-.695l-.463-.233h-.232l-.463-.234-.231-.233h-.232l-.232-.233-.231-.234-.463-.233-.232-.233-.232-.234-.231-.233v-.233l-.232-.234-.231-.466-.232-.234V65.8l-.231-.467-.232-.233v-.7l-.232-.467v-35.7z" fill="#FF7337"/><path opacity=".7" d="M96.337 45.033v2.1l-.232.7V49l-.231.7v.467l-.232.7-.231.7v.466l-.232.7-.232.7-.231.467-.232.7-.231.467-.232.7-.231.466-.232.7-.232.467-.463.467-.231.466-.232.7-.463.467-.232.467-.463.466-.463.467-.232.467-.463.466-.463.467-.463.467-.463.466-.463.467-.463.233-.464.467-.463.467-.463.233-.463.467-.695.233-.463.467-.463.233-.695.233-.463.234-.695.466-.463.234-.695.233-.694.233-.464.234h-.694l-.695.233-.695.233-.463.234h-.695l-.694.233H74.8l-.695.233H70.4l-.695-.233h-1.389l-.695-.233h-.695l-.694-.234-.695-.233h-.695l-.463-.233-.695-.234-.694-.233-.695-.233-.463-.234-.695-.233-.463-.233-.695-.467-.463-.233-.695-.234-.463-.466-.463-.234-.463-.466-.695-.467-.463-.233-.463-.467-.464-.467-.463-.466-.463-.234-.463-.466-.463-.467-.232-.467-.463-.466-.463-.467-.232-.7-.463-.467-.231-.466-.464-.467-.231-.7-.463-.467-.232-.466-.231-.7-.232-.467-.232-.7-.231-.467-.232-.7-.231-.466-.232-.7-.231-.467-.232-.7v-.7l-.232-.467v-.7l-.231-.7v-.7l-.232-.7V42l.232-.467v-1.4l.231-.466v-.7l.232-.7.232-.467.231-.7v-.467l.232-.7.231-.466.232-.7.231-.467.232-.7.232-.467.463-.466.231-.7.232-.467.463-.467.232-.466.463-.467.231-.7.464-.467.463-.466.231-.467.463-.467.464-.466.463-.234.463-.466.463-.467.463-.467.463-.233.463-.467.464-.466.463-.234.695-.466.463-.234.463-.233.695-.467.463-.233.694-.233.464-.234.694-.233.464-.233.694-.234.695-.233.463-.233h.695l.695-.234h.694l.464-.233h.694l.695-.233h4.863l.695.233h1.389l.695.233.695.234h.695l.463.233.695.233.694.234.463.233.695.233.695.234.463.233.695.233.463.234.463.466.695.234.463.466.463.234.695.466.463.234.463.466.463.467.463.233.464.467.463.467.463.466.463.467.463.467.232.466.463.467.463.467.232.466.463.467.231.7.464.467.231.466.232.7.463.467.232.467.231.7.232.466.231.7.232.467.231.7.232.467.232.7v.466l.231.7.232.7V41.3l.231.7v1.167l.232.7v1.166z" fill="#FF7337"/><path d="M258.212 34.3h-1.621l-.232-.233h-.463l-.232-.234h-.463l-.231-.233h-.232l-.463-.233-.695-.234h-.231l-.464-.233-.231-.233h-.463l-.232-.234h-.463l-.232-.233h-.463l-.231-.233h-1.158l-.463-.234h-2.085l-.463.234h-.926l-.463.233h-.232l-.463.233h-.232l-.463.234-.231.233-.463.233-.232.234h-.463l-.232.233-.231.233-.232.234-.463.466-.232.234-.231.233-.232.233-.231.234-.232.466-.232.234-.231.466-.232.234v.233l-.231.467-.232.233-.231.467v.466l-.232.234v.466l-.232.234v.466l-.231.467v.467l-.232.233v1.4l-.231.233V46.2l.231.467v1.166l.232.467v.467l.231.233v.467l.232.466v.234l.232.466.231.234v.466l.232.467.231.233.232.467.231.233.232.234.232.466.231.234.232.233.231.467.232.233.231.233.232.234.232.233.463.233.231.234.232.233.463.233.232.234.463.233.231.233h.464l.231.234.463.233h.695l.463.233h3.474l.231-.233h.695l.232-.233h.695l.231-.234h.463l.695-.233.232-.233h.231l.463-.234h.463l.232-.233h.232l.463-.233h.231l.232-.234h.695l.231-.233h2.084l.232.233h.232l.463.234h.231l.232.233.232.233h.231l.232.234.231.233.232.233.231.234.232.233.232.233v.234l.231.233.232.467v.233l.231.233v.7l.232.234v1.866l-.232.467v.467l-.231.233v.233l-.232.467-.231.233v.234l-.232.233-.232.233-.231.234-.232.233-.231.233-.232.234-.231.233-.232.233h-.232l-.463.234-.231.233-.232.233-.232.234h-.463l-.231.233-.463.233h-.232l-.232.234h-.463l-.231.233h-.463l-.232.233h-.463l-.232.234h-.463l-.232.233h-.463l-.463.233h-.695l-.231.234h-.926l-.464.233h-1.621l-.231.233h-3.242l-.695-.233h-1.39l-.463-.233h-.694l-.695-.234-.695-.233h-.463l-.695-.233-.463-.234-.695-.233-.463-.233-.695-.234-.463-.233-.463-.467-.695-.233-.463-.233-.463-.467-.463-.233-.695-.467-.463-.233-.463-.467-.463-.233-.464-.467-.231-.467-.463-.466-.463-.467-.464-.467-.463-.466-.231-.467-.463-.467-.232-.466-.463-.467-.232-.467-.463-.466-.232-.7-.231-.467-.463-.467-.232-.7-.231-.466-.232-.7-.232-.467-.231-.7-.232-.467-.231-.7v-.466l-.232-.7-.231-.7V50.4l-.232-.7V49l-.232-.467v-1.4l-.231-.7V42.7l.231-.7v-1.4l.232-.467v-.7l.232-.466v-.7l.231-.7.232-.467v-.7l.231-.467.232-.7.231-.466.232-.7.232-.467.231-.467.232-.7.463-.466.231-.467.232-.467.232-.7.463-.466.231-.467.464-.467.231-.466.463-.467.463-.467.232-.466.463-.467.463-.467.463-.233.464-.467.463-.466.463-.234.463-.466.463-.234.463-.466.464-.234.463-.466.463-.234.695-.233.463-.233.463-.234.695-.233.463-.233.695-.234.463-.233.694-.233h.464l.694-.234.464-.233h1.389l.695-.233h4.863l.231.233h1.39l.463.233h.926l.464.234h.231l.463.233h.695l.463.233h.232l.463.234h.232l.463.233h.231l.463.233h.232l.232.234.463.233h.231l.463.233.232.234h.232l.231.233.463.233.232.234.232.233h.231l.232.233.231.234.232.233.231.233.232.234.232.233v.233l.231.234.232.233v.467l.231.233v.467l.232.466v2.1l-.232.234v.466l-.231.234v.233l-.232.233v.234l-.231.233v.233l-.232.234v.233l-.232.233-.231.234v.233l-.232.233-.231.234h-.232l-.231.233-.232.233-.232.234h-.231l-.232.233h-1.389zm-75.728-1.633h-3.936l-.464-.234h-.694l-.232-.233h-.231l-.464-.233-.231-.234H176l-.231-.233-.232-.233-.232-.234-.231-.233v-.233l-.232-.234-.231-.233v-.467l-.232-.233v-.233l-.231-.467V28l-.232-.233v-1.4l.232-.467v-.467l.231-.466v-.234l.232-.233v-.467l.231-.233.232-.233.231-.234.232-.233.232-.233.231-.234h.232l.231-.233.232-.233.232-.234h.231l.463-.233h.695l.232-.233h3.936v-9.1l.232-.467v-.7l.232-.467.231-.233v-.467l.232-.233.231-.233.232-.234V9.1l.231-.467.232-.233.232-.233h.463l.231-.234.232-.233.232-.233h.231l.463-.234h.232l.463-.233h.463l.463-.233h1.158l.232.233h1.158l.231.233h.463l.232.234.232.233h.231l.463.233.232.234.232.233.231.233.232.234.231.233.232.233.231.467v.233l.232.234.232.466v.234l.231.466v.234l.232.466v.7l.231.467v8.4h4.169l.231.233h1.158l.232.234h.463l.231.233h.232l.232.233h.231l.232.234h.231l.232.233.232.233.231.234.232.233.231.233v.234l.232.233v.233l.231.234v.233l.232.233v.934l.232.466v1.4l-.232.234v.933l-.232.233v.234l-.231.466v.234l-.232.233h-.231v.233l-.232.234-.231.233-.232.233h-.232v.234l-.231.233h-.232l-.231.233h-.464l-.231.234h-.463l-.232.233h-5.558V63l-.231.233V64.4l-.232.467v.233l-.231.467v.233l-.232.467-.232.233v.233l-.231.234-.232.466-.231.234-.232.233-.231.233-.232.234h-.232l-.463.233-.231.233h-.232l-.232.234-.463.233h-.694l-.232.233h-1.853l-.463-.233h-.463l-.463-.233h-.232l-.463-.234-.231-.233h-.232l-.232-.233-.463-.234-.231-.233-.232-.233-.232-.234-.231-.233-.232-.233v-.234l-.231-.466-.232-.234V65.8l-.231-.467-.232-.233v-.7l-.232-.467V32.667zm-16.674 2.566h-.231l-.232-.233h-.695l-.231-.233h-.464l-.463-.234h-.231l-.232-.233-.231-.233h-.464l-.231-.234h-.232l-.463-.233-.231-.233h-.232l-.463-.234-.232-.233h-.463l-.232-.233-.463-.234h-.231l-.463-.233h-.232l-.463-.233-.232-.234h-.694l-.464-.233h-.231l-.463-.233h-2.779l-.232.233h-.463l-.232.233h-.231l-.232.234-.231.233h-.232l-.232.233-.231.234v.233l-.232.233v.234l-.231.233v2.1l.231.233.232.234v.233h.231l.232.233v.234h.232l.231.233.232.233h.231l.232.234.232.233h.231l.232.233h.231l.232.234h.231l.232.233.463.233h.232l.231.234h.463l.232.233h.232l.463.233.231.234h.464l.231.233h.463l.232.233.463.234h.232l.463.233h.231l.463.233.464.234h.231l.463.233.695.233.695.467.463.233h.232l.463.234.231.233.463.233.464.234.231.233h.463l.232.233.463.234.232.233.231.233.463.234.232.233.463.233.232.234.231.233.232.467.463.233.232.233.231.234.232.233.231.467.232.233.232.233.231.467.232.233.231.467.232.233.231.467v.233l.232.467.232.467v.233l.231.467v.933l.232.467v3.966l-.232.467v.467l-.231.466v.467l-.232.467-.232.466-.231.467-.232.467-.231.466-.232.467-.231.467-.232.466-.232.467-.463.233-.231.467-.232.467-.463.233-.463.467-.232.233-.463.467-.463.233-.463.467-.463.233-.464.233-.463.234-.463.233-.463.467h-.463l-.695.233-.463.233-.463.234-.695.233-.463.233h-.695l-.463.234h-.695l-.695.233h-1.157l-.695.233h-3.242l-.463-.233h-1.622l-.463-.233h-.694l-.464-.234h-.463l-.463-.233h-.463l-.232-.233h-.463l-.463-.234h-.463l-.463-.233h-.232l-.463-.233-.463-.234h-.463l-.232-.233-.463-.233-.463-.234h-.232l-.463-.233-.463-.233-.232-.234-.463-.233-.231-.233-.464-.234-.231-.233-.232-.233-.463-.234-.232-.233-.231-.233-.232-.234-.463-.233-.231-.233-.232-.234-.232-.233-.231-.233v-.234l-.232-.233-.231-.233-.232-.467v-.233l-.231-.234v-.7l-.232-.233v-1.867l.232-.233v-.233l.231-.234v-.466l.232-.234V56.7l.231-.233v-.234l.232-.233.231-.233.232-.234.232-.233.231-.233.232-.234.231-.233.232-.233h.231l.232-.234h.232l.231-.233h.927l.231-.233h1.39l.231.233h.927l.231.233h.463l.232.234h.231l.464.233h.231l.232.233h.231l.232.234.463.233h.232l.231.233.232.234h.231l.232.233.463.233h.232l.231.234.232.233h.463l.232.233.231.234h.232l.463.233h.231l.232.233h.463l.232.234h.463l.232.233h1.157l.464.233h2.315l.232-.233h1.158l.231-.233h.464v-.234h.231l.232-.233.231-.233.232-.234.231-.233v-.233l.232-.234V53.9l-.232-.233v-.234l-.231-.233-.232-.233v-.234h-.231l-.232-.233-.231-.233h-.232l-.232-.234h-.231l-.232-.233-.231-.233h-.232l-.231-.234h-.232l-.232-.233-.231-.233h-.463l-.232-.234h-.232l-.463-.233h-.231l-.232-.233h-.463l-.232-.234-.463-.233h-.231l-.463-.233h-.232l-.463-.234-.232-.233h-.463l-.232-.233-.463-.234h-.463l-.231-.233-.464-.233h-.231l-.463-.234-.463-.233h-.232l-.463-.233-.232-.234-.463-.233h-.232l-.463-.233-.463-.234-.231-.233-.464-.233-.231-.234-.463-.233-.232-.233-.231-.234-.464-.233-.231-.233-.463-.234-.232-.233-.232-.233-.231-.234-.463-.233-.232-.233-.231-.467-.232-.233-.232-.234-.231-.466-.232-.234-.231-.233-.232-.467-.232-.233-.231-.467-.232-.233v-.467l-.231-.466-.232-.234v-.466l-.231-.467v-.7l-.232-.467v-3.966l.232-.7V31.5l.231-.467v-.466l.232-.467.231-.467v-.466l.232-.467.231-.467.232-.466.232-.467.231-.467.463-.233.232-.467.232-.466.463-.234.231-.466.463-.234.232-.466.463-.234.232-.466.463-.234.463-.233.463-.233.463-.234.464-.466.463-.234.463-.233.463-.233h.463l.463-.234.464-.233.694-.233h.463l.464-.234h.694l.463-.233h.695l.463-.233h5.327l.231.233h1.158l.463.233h.695l.463.234h.695l.463.233h.463l.232.233h.463l.463.234.232.233h.463l.463.233h.232l.463.234.231.233.464.233h.231l.463.234.232.233.463.233.232.234.231.233h.232l.463.233.231.234.232.233.232.233.231.234.232.466.231.234.232.233.232.233v.234l.231.233.232.467v.233l.231.233V28l.232.233V30.8l-.232.233v.467l-.231.467v.233l-.232.233-.231.234v.233l-.232.233-.232.234-.231.233v.233l-.232.234h-.231l-.232.233-.232.233h-.231l-.463.234h-.232L167.2 35h-.464l-.463.233h-.463zM132.696 9.1v.7l-.232.233v.7l-.231.467v.233l-.232.467v.233l-.232.467-.231.233-.232.234v.233l-.231.467-.232.233-.231.233-.232.234-.463.233-.232.233-.231.234h-.232l-.463.233-.232.233h-.231l-.463.234-.232.233h-.695l-.463.233h-1.621l-.463-.233h-.695l-.231-.233h-.464l-.231-.234-.232-.233h-.463l-.231-.233-.232-.234-.463-.233-.232-.233-.231-.234-.232-.233-.231-.233-.232-.234-.232-.466-.231-.234-.232-.233v-.233l-.231-.467-.232-.233V11.2l-.232-.233V10.5l-.231-.233v-2.8l.231-.234v-.466l.232-.234v-.466l.232-.234.231-.233v-.233l.232-.467.231-.233.232-.234.232-.233.231-.233.232-.234.231-.233.232-.233.463-.234.232-.233h.231l.463-.233.232-.234h.231l.464-.233h.694l.232-.233h2.084l.463.233h.232l.463.233h.232l.231.234h.463l.232.233.232.233.463.234h.231l.232.233.231.233.232.234.232.466.231.234.232.233.231.233.232.234.231.233v.467l.232.233.232.467V7l.231.233V8.4l.232.233V9.1zm-13.663 19.133v-1.4l.232-.233v-.933l.231-.234v-.466l.232-.234.232-.233v-.467l.231-.233.232-.233.231-.234.232-.233.231-.467h.232l.232-.233.231-.233.232-.234.463-.233h.231l.232-.233h.463l.232-.234h1.158l.231-.233h.695l.463.233h.695l.231.234h.695l.232.233.463.233h.231l.232.234.232.233.231.233.232.234.231.233.232.233.232.234.231.466.232.234.231.233v.467l.232.233v.467l.231.233v.467l.232.233v37.567l-.232.233v.467l-.231.233v.467l-.232.233v.467l-.231.233-.232.233-.231.467-.232.233-.232.234-.231.233-.232.233-.231.234h-.232l-.232.233-.231.233-.463.234h-.232l-.231.233h-.695l-.463.233h-1.853l-.231-.233h-.695l-.232-.233h-.463l-.232-.234-.231-.233h-.463l-.232-.233-.231-.234-.232-.233-.232-.233-.231-.234-.232-.233-.231-.233-.232-.234-.231-.466v-.234l-.232-.233-.232-.467V65.1l-.231-.467v-.7l-.232-.466V28.233zM100.738 7.467V6.3l.232-.467v-.7l.231-.466v-.234l.232-.466.232-.234V3.5l.231-.467.232-.233.231-.233.232-.234.231-.233.232-.233.232-.234.231-.233h.232l.231-.233.464-.234h.231l.232-.233h.463l.231-.233h2.548l.463.233h.695l.231.233.232.234h.463l.232.233.231.233.232.234.231.233.232.233.231.234.232.233.232.233.231.234.232.233v.467l.231.233.232.467V4.9l.232.467v.7l.231.466V63.7l-.231.467v.7l-.232.233v.467l-.232.233-.231.467v.233l-.232.233-.231.234-.232.466-.232.234-.231.233-.232.233-.231.234h-.232l-.231.233-.232.233h-.463l-.232.234-.231.233h-.695l-.463.233h-1.853l-.231-.233h-.695l-.463-.233h-.232l-.231-.234-.464-.233h-.231l-.232-.233-.231-.234-.232-.233-.232-.233-.231-.234-.232-.233-.231-.233-.232-.234-.231-.466-.232-.234V65.8l-.232-.467V65.1l-.231-.467v-.7l-.232-.466v-56zM.463 7v-.7l.231-.467v-.7l.232-.466V4.2l.232-.233V3.5l.231-.233.232-.234V2.8l.231-.467.232-.233.232-.233.231-.234.232-.233.231-.233.232-.234h.463L3.937.7l.231-.233H4.4l.463-.234h.695L5.789 0h2.084l.464.233h.231l.463.234h.232L9.726.7h.232l.231.233.232.234.231.233.464.233.231.234.232.233.231.233v.234l.232.233.231.233.232.467v.233l.232.467.231.233v.7l.232.467v19.133h.231l.232-.466.232-.234.463-.233.231-.233.232-.234.463-.233.231-.233.464-.234.231-.233.463-.233.232-.234.463-.233h.463l.232-.233.463-.234h.463l.463-.233h.695l.463-.233h.463l.232-.234h2.084l.463-.233h1.853l.463.233h1.853l.463.234h.463l.695.233h.463l.463.233h.463l.695.234.463.233.463.233.463.234.464.233.463.233.463.234.463.233.463.233.232.234.463.466.463.234.463.233.232.467.463.233.232.467.463.466.231.234.464.466.231.467.232.467.231.466.463.234.232.466.232.467.231.7.232.467v.466l.231.467.232.467.232.7v.466l.231.467v.7l.232.467v1.866l.231.7v25.2l-.23.467v1.4l-.232.467v.233l-.231.467v.233l-.232.467-.232.233-.231.233v.234l-.232.466-.231.234-.232.233-.232.233-.231.234H39.6l-.232.233-.231.233h-.232l-.463.234-.232.233h-.694l-.232.233H35.43l-.463-.233h-.694l-.231-.233h-.232l-.463-.234-.232-.233h-.231l-.463-.233-.232-.234-.231-.233-.232-.233-.232-.234-.231-.233-.232-.233v-.234l-.231-.466-.232-.234-.231-.233v-.467l-.232-.233v-.467l-.232-.466V63l-.231-.233V37.8l-.232-.467v-.466l-.231-.234v-.466l-.232-.234v-.466l-.232-.234-.231-.466v-.234l-.232-.233-.231-.233-.232-.234-.231-.233-.232-.233-.232-.234-.231-.233-.232-.233-.231-.234-.463-.233-.232-.233h-.232l-.231-.234h-.463l-.232-.233h-.463l-.232-.233h-.694l-.232-.234h-3.242l-.232.234h-.926l-.232.233-.463.233H17.6l-.232.234-.463.233h-.232l-.231.233-.232.234-.231.233-.463.233-.232.234-.232.233v.467l-.231.233-.232.233-.231.467-.232.233v.234l-.231.466v.234l-.232.466v.234l-.232.466V38.5l-.231.467V63.7l-.232.233v.467l-.231.467v.233l-.232.233v.467l-.232.233-.231.234-.232.466-.231.234v.233l-.232.233-.463.234-.232.233-.231.233h-.232l-.231.234-.464.233h-.231l-.232.233h-.694l-.464.234H6.252l-.463-.234h-.695l-.231-.233H4.4l-.232-.233h-.231l-.464-.234-.231-.233-.232-.233-.231-.234-.232-.233-.231-.233-.232-.234-.232-.233-.231-.233-.232-.467v-.233l-.231-.234v-.466l-.232-.234v-.466l-.232-.234V63l-.231-.233V7z" fill="#FF7337"/></svg>