<svg width="264" height="70" viewBox="0 0 264 70" fill="none" xmlns="http://www.w3.org/2000/svg">
<path d="M221.622 9.1V9.33334V9.8V10.0333V10.5L221.39 10.7333V11.2L221.158 11.4333V11.9L220.927 12.1333V12.6L220.695 12.8333L220.464 13.0667L220.232 13.3L220 13.7667L219.769 14L219.537 14.2333L219.306 14.4667L219.074 14.7L218.843 14.9333L218.611 15.1667H218.148L217.916 15.4L217.685 15.6333H217.222L216.99 15.8667L216.527 16.1H216.295H216.064L215.6 16.3333H215.137H214.906H214.443H214.211H213.748L213.516 16.1H213.053H212.822L212.358 15.8667H212.127L211.664 15.6333L211.432 15.4H211.201L210.737 15.1667L210.506 14.9333L210.274 14.7L210.043 14.4667L209.811 14.2333L209.579 14L209.348 13.7667L209.116 13.5333L208.885 13.0667L208.653 12.8333L208.422 12.6L208.19 12.3667L207.958 11.9V11.6667L207.727 11.2V10.9667L207.495 10.5V10.2667V9.8L207.264 9.56667V9.1V8.86667V8.4V8.16667L207.495 7.7V7.46667V7.23334L207.727 6.76667V6.53334L207.958 6.06667V5.83334L208.19 5.6L208.422 5.36667L208.653 4.9L208.885 4.66667L209.116 4.43334L209.348 4.2L209.579 3.96667L209.811 3.73334L210.043 3.5L210.274 3.26667L210.506 3.03334L210.737 2.8H211.201L211.432 2.56667L211.664 2.33334H212.127L212.358 2.1H212.822H213.053L213.516 1.86667H213.748H214.211H214.443H214.906H215.137H215.6L215.832 2.1H216.295L216.527 2.33334H216.99L217.222 2.56667H217.453L217.916 2.8L218.148 3.03334L218.379 3.26667H218.843L219.074 3.5L219.306 3.73334L219.537 3.96667L219.769 4.43334L220 4.66667L220.232 4.9L220.464 5.13334L220.695 5.36667V5.6L220.927 6.06667L221.158 6.3V6.76667L221.39 7V7.23334L221.622 7.7V7.93334V8.4V8.63334V9.1Z" fill="#FF7337"/>
<path d="M208.189 28.2333V27.7667V27.3V26.8333V26.6L208.421 26.1333V25.6667V25.4333L208.653 24.9667L208.884 24.7333V24.5L209.116 24.0333L209.347 23.8L209.579 23.5667L209.81 23.3333V23.1L210.042 22.6333H210.505L210.737 22.4L210.968 22.1667L211.2 21.9333L211.432 21.7H211.895L212.126 21.4667H212.358L212.821 21.2333H213.053H213.516H213.747L214.21 21H214.442H214.905L215.137 21.2333H215.6H215.832L216.295 21.4667H216.526H216.989L217.221 21.7L217.453 21.9333H217.916L218.147 22.1667L218.379 22.4L218.61 22.6333L218.842 22.8667L219.074 23.1L219.305 23.3333L219.537 23.5667L219.768 24.0333V24.2667L220 24.5L220.232 24.9667V25.2L220.463 25.6667V25.9L220.695 26.3667V26.6V27.0667L220.926 27.5333V28V28.2333V62.5333V63V63.2333L220.695 63.7V64.1667V64.4L220.463 64.8667V65.1L220.232 65.5667V65.8L220 66.2667L219.768 66.5V66.7333L219.537 67.2L219.305 67.4333L219.074 67.6667L218.842 67.9L218.61 68.1333L218.379 68.3667H218.147L217.684 68.6L217.453 68.8333L217.221 69.0667H216.989L216.526 69.3H216.295H215.832L215.6 69.5333H215.137H214.905H214.442H214.21H213.747L213.516 69.3H213.053H212.821L212.358 69.0667H212.126L211.663 68.8333L211.432 68.6H211.2L210.968 68.3667L210.737 68.1333L210.274 67.9L210.042 67.6667L209.81 67.4333L209.579 67.2V66.9667L209.347 66.7333L209.116 66.2667L208.884 66.0333V65.8L208.653 65.3333L208.421 65.1V64.6333V64.4L208.189 63.9333V63.4667V63V62.7667V62.3V28.2333Z" fill="#FF7337"/>
<path opacity="0.7" d="M96.3369 45.0333V45.7333V46.4333V47.1333L96.1053 47.8333V48.3V49L95.8738 49.7V50.1667L95.6422 50.8667L95.4106 51.5667V52.0333L95.179 52.7333L94.9474 53.4333L94.7159 53.9L94.4843 54.6L94.2527 55.0667L94.0211 55.7667L93.7896 56.2333L93.558 56.9333L93.3264 57.4L92.8632 57.8667L92.6317 58.3333L92.4001 59.0333L91.9369 59.5L91.7053 59.9667L91.2422 60.4333L90.779 60.9L90.5474 61.3667L90.0843 61.8333L89.6211 62.3L89.158 62.7667L88.6948 63.2333L88.2317 63.7L87.7685 63.9333L87.3053 64.4L86.8422 64.8667L86.379 65.1L85.9159 65.5667L85.2211 65.8L84.758 66.2667L84.2948 66.5L83.6001 66.7333L83.1369 66.9667L82.4422 67.4333L81.979 67.6667L81.2843 67.9L80.5896 68.1333L80.1264 68.3667H79.4317L78.7369 68.6L78.0422 68.8333L77.579 69.0667H76.8843L76.1896 69.3H75.4948H74.8001L74.1053 69.5333H73.4106H72.4843H71.7896H71.0948H70.4001L69.7053 69.3H69.0106H68.3159L67.6211 69.0667H66.9264L66.2317 68.8333L65.5369 68.6H64.8422L64.379 68.3667L63.6843 68.1333L62.9896 67.9L62.2948 67.6667L61.8317 67.4333L61.1369 67.2L60.6738 66.9667L59.979 66.5L59.5159 66.2667L58.8211 66.0333L58.358 65.5667L57.8948 65.3333L57.4317 64.8667L56.7369 64.4L56.2738 64.1667L55.8106 63.7L55.3475 63.2333L54.8843 62.7667L54.4211 62.5333L53.958 62.0667L53.4948 61.6L53.2632 61.1333L52.8001 60.6667L52.3369 60.2L52.1053 59.5L51.6422 59.0333L51.4106 58.5667L50.9475 58.1L50.7159 57.4L50.2527 56.9333L50.0211 56.4667L49.7896 55.7667L49.558 55.3L49.3264 54.6L49.0948 54.1333L48.8632 53.4333L48.6317 52.9667L48.4001 52.2667L48.1685 51.8L47.9369 51.1V50.4L47.7053 49.9333V49.2333L47.4738 48.5333V47.8333L47.2422 47.1333V46.6667V45.9667V45.2667V44.5667V43.8667V43.4V42.7V42L47.4738 41.5333V40.8333V40.1333L47.7053 39.6667V38.9667L47.9369 38.2667L48.1685 37.8L48.4001 37.1V36.6333L48.6317 35.9333L48.8632 35.4667L49.0948 34.7667L49.3264 34.3L49.558 33.6L49.7896 33.1333L50.2527 32.6667L50.4843 31.9667L50.7159 31.5L51.179 31.0333L51.4106 30.5667L51.8738 30.1L52.1053 29.4L52.5685 28.9333L53.0317 28.4667L53.2632 28L53.7264 27.5333L54.1896 27.0667L54.6527 26.8333L55.1159 26.3667L55.579 25.9L56.0422 25.4333L56.5053 25.2L56.9685 24.7333L57.4317 24.2667L57.8948 24.0333L58.5896 23.5667L59.0527 23.3333L59.5159 23.1L60.2106 22.6333L60.6738 22.4L61.3685 22.1667L61.8317 21.9333L62.5264 21.7L62.9896 21.4667L63.6843 21.2333L64.379 21L64.8422 20.7667H65.5369L66.2317 20.5333H66.9264L67.3896 20.3H68.0843L68.779 20.0667H69.4738H70.1685H70.8632H71.558H72.2527H72.9474H73.6422L74.3369 20.3H75.0317H75.7264L76.4211 20.5333L77.1159 20.7667H77.8106L78.2738 21L78.9685 21.2333L79.6632 21.4667L80.1264 21.7L80.8211 21.9333L81.5159 22.1667L81.979 22.4L82.6738 22.6333L83.1369 22.8667L83.6001 23.3333L84.2948 23.5667L84.758 24.0333L85.2211 24.2667L85.9159 24.7333L86.379 24.9667L86.8422 25.4333L87.3053 25.9L87.7685 26.1333L88.2317 26.6L88.6948 27.0667L89.158 27.5333L89.6211 28L90.0843 28.4667L90.3159 28.9333L90.779 29.4L91.2422 29.8667L91.4738 30.3333L91.9369 30.8L92.1685 31.5L92.6317 31.9667L92.8632 32.4333L93.0948 33.1333L93.558 33.6L93.7896 34.0667L94.0211 34.7667L94.2527 35.2333L94.4843 35.9333L94.7159 36.4L94.9474 37.1L95.179 37.5667L95.4106 38.2667V38.7333L95.6422 39.4333L95.8738 40.1333V40.6V41.3L96.1053 42V42.4667V43.1667L96.3369 43.8667V44.3333V45.0333Z" fill="#FF7337"/>
<path d="M258.212 34.3H257.98H257.517H257.285H256.822H256.591L256.359 34.0667H255.896L255.664 33.8333H255.201L254.97 33.6H254.738L254.275 33.3667L253.58 33.1333H253.349L252.885 32.9L252.654 32.6667H252.191L251.959 32.4333H251.496L251.264 32.2H250.801L250.57 31.9667H250.106H249.643H249.412L248.949 31.7333H248.485H248.022H247.559H247.096H246.864L246.401 31.9667H245.938H245.475L245.012 32.2H244.78L244.317 32.4333H244.085L243.622 32.6667L243.391 32.9L242.928 33.1333L242.696 33.3667H242.233L242.001 33.6L241.77 33.8333L241.538 34.0667L241.075 34.5333L240.843 34.7667L240.612 35L240.38 35.2333L240.149 35.4667L239.917 35.9333L239.685 36.1667L239.454 36.6333L239.222 36.8667V37.1L238.991 37.5667L238.759 37.8L238.528 38.2667V38.7333L238.296 38.9667V39.4333L238.064 39.6667V40.1333L237.833 40.6V41.0667L237.601 41.3V41.7667V42.2333V42.7L237.37 42.9333V43.4V43.8667V44.3333V44.8V45.0333V45.5V45.9667V46.2L237.601 46.6667V47.1333V47.6V47.8333L237.833 48.3V48.7667L238.064 49V49.4667L238.296 49.9333V50.1667L238.528 50.6333L238.759 50.8667V51.3333L238.991 51.8L239.222 52.0333L239.454 52.5L239.685 52.7333L239.917 52.9667L240.149 53.4333L240.38 53.6667L240.612 53.9L240.843 54.3667L241.075 54.6L241.306 54.8333L241.538 55.0667L241.77 55.3L242.233 55.5333L242.464 55.7667L242.696 56L243.159 56.2333L243.391 56.4667L243.854 56.7L244.085 56.9333H244.549L244.78 57.1667L245.243 57.4H245.706H245.938L246.401 57.6333H246.864H247.328H247.559H248.022H248.485H248.717H248.949H249.18H249.643H249.875L250.106 57.4H250.57H250.801L251.033 57.1667H251.496H251.728L251.959 56.9333H252.422L253.117 56.7L253.349 56.4667H253.58L254.043 56.2333H254.275H254.506L254.738 56H254.97L255.433 55.7667H255.664L255.896 55.5333H256.128H256.359H256.591L256.822 55.3H257.054H257.285H257.517H257.98H258.212H258.443H258.906L259.138 55.5333H259.37L259.833 55.7667H260.064L260.296 56L260.528 56.2333H260.759L260.991 56.4667L261.222 56.7L261.454 56.9333L261.685 57.1667L261.917 57.4L262.149 57.6333V57.8667L262.38 58.1L262.612 58.5667V58.8L262.843 59.0333V59.2667V59.7333L263.075 59.9667V60.2V60.6667V60.9V61.1333V61.6V61.8333L262.843 62.3V62.5333V62.7667L262.612 63V63.2333L262.38 63.7L262.149 63.9333V64.1667L261.917 64.4L261.685 64.6333L261.454 64.8667L261.222 65.1L260.991 65.3333L260.759 65.5667L260.528 65.8L260.296 66.0333H260.064L259.601 66.2667L259.37 66.5L259.138 66.7333L258.906 66.9667H258.443L258.212 67.2L257.749 67.4333H257.517L257.285 67.6667H256.822L256.591 67.9H256.128L255.896 68.1333H255.433L255.201 68.3667H254.738L254.506 68.6H254.043L253.58 68.8333H253.349H252.885L252.654 69.0667H252.191H251.959H251.728L251.264 69.3H251.033H250.57H250.338H249.875H249.643L249.412 69.5333H249.18H248.717H248.485H248.254H248.022H247.791H247.559H246.864H246.17L245.475 69.3H244.78H244.085L243.622 69.0667H242.928L242.233 68.8333L241.538 68.6H241.075L240.38 68.3667L239.917 68.1333L239.222 67.9L238.759 67.6667L238.064 67.4333L237.601 67.2L237.138 66.7333L236.443 66.5L235.98 66.2667L235.517 65.8L235.054 65.5667L234.359 65.1L233.896 64.8667L233.433 64.4L232.97 64.1667L232.506 63.7L232.275 63.2333L231.812 62.7667L231.349 62.3L230.885 61.8333L230.422 61.3667L230.191 60.9L229.728 60.4333L229.496 59.9667L229.033 59.5L228.801 59.0333L228.338 58.5667L228.106 57.8667L227.875 57.4L227.412 56.9333L227.18 56.2333L226.949 55.7667L226.717 55.0667L226.485 54.6L226.254 53.9L226.022 53.4333L225.791 52.7333V52.2667L225.559 51.5667L225.328 50.8667V50.4L225.096 49.7V49L224.864 48.5333V47.8333V47.1333L224.633 46.4333V45.7333V45.2667V44.5667V43.8667V43.1667V42.7L224.864 42V41.3V40.6L225.096 40.1333V39.4333L225.328 38.9667V38.2667L225.559 37.5667L225.791 37.1V36.4L226.022 35.9333L226.254 35.2333L226.485 34.7667L226.717 34.0667L226.949 33.6L227.18 33.1333L227.412 32.4333L227.875 31.9667L228.106 31.5L228.338 31.0333L228.57 30.3333L229.033 29.8667L229.264 29.4L229.728 28.9333L229.959 28.4667L230.422 28L230.885 27.5333L231.117 27.0667L231.58 26.6L232.043 26.1333L232.506 25.9L232.97 25.4333L233.433 24.9667L233.896 24.7333L234.359 24.2667L234.822 24.0333L235.285 23.5667L235.749 23.3333L236.212 22.8667L236.675 22.6333L237.37 22.4L237.833 22.1667L238.296 21.9333L238.991 21.7L239.454 21.4667L240.149 21.2333L240.612 21L241.306 20.7667H241.77L242.464 20.5333L242.928 20.3H243.622H244.317L245.012 20.0667H245.475H246.17H246.864H247.559H247.791H248.022H248.254H248.717H248.949H249.18H249.643H249.875L250.106 20.3H250.57H250.801H251.264H251.496L251.959 20.5333H252.191H252.654H252.885L253.349 20.7667H253.58L254.043 21H254.275H254.738L255.201 21.2333H255.433L255.896 21.4667H256.128L256.591 21.7H256.822L257.285 21.9333H257.517L257.749 22.1667L258.212 22.4H258.443L258.906 22.6333L259.138 22.8667H259.37L259.601 23.1L260.064 23.3333L260.296 23.5667L260.528 23.8H260.759L260.991 24.0333L261.222 24.2667L261.454 24.5L261.685 24.7333L261.917 24.9667L262.149 25.2V25.4333L262.38 25.6667L262.612 25.9V26.3667L262.843 26.6V26.8333V27.0667L263.075 27.5333V27.7667V28V28.4667V28.7V28.9333V29.1667V29.4V29.6333L262.843 29.8667V30.1V30.3333L262.612 30.5667V30.8L262.38 31.0333V31.2667L262.149 31.5V31.7333L261.917 31.9667V32.2L261.685 32.4333L261.454 32.6667V32.9L261.222 33.1333L260.991 33.3667H260.759L260.528 33.6L260.296 33.8333L260.064 34.0667H259.833L259.601 34.3H259.37H258.906H258.675H258.443H258.212Z" fill="#FF7337"/>
<path d="M182.484 32.6667H179.474H179.242H178.779H178.548L178.084 32.4333H177.853H177.39L177.158 32.2H176.927L176.463 31.9667L176.232 31.7333H176L175.769 31.5L175.537 31.2667L175.305 31.0333L175.074 30.8V30.5667L174.842 30.3333L174.611 30.1V29.6333L174.379 29.4V29.1667L174.148 28.7V28.4667V28L173.916 27.7667V27.3V27.0667V26.6V26.3667L174.148 25.9V25.6667V25.4333L174.379 24.9667V24.7333L174.611 24.5V24.0333L174.842 23.8L175.074 23.5667L175.305 23.3333L175.537 23.1L175.769 22.8667L176 22.6333H176.232L176.463 22.4L176.695 22.1667L176.927 21.9333H177.158L177.621 21.7H177.853H178.316L178.548 21.4667H178.779H179.242H179.474H182.484V13.7667V13.5333V13.0667V12.6V12.3667L182.716 11.9V11.4333V11.2L182.948 10.7333L183.179 10.5V10.0333L183.411 9.79999L183.642 9.56666L183.874 9.33333V9.1L184.105 8.63333L184.337 8.4L184.569 8.16666H185.032L185.263 7.93333L185.495 7.7L185.727 7.46666H185.958L186.421 7.23333H186.653L187.116 7H187.348H187.579L188.042 6.76666H188.505H188.737H189.2L189.432 7H189.895H190.127H190.59L190.821 7.23333H191.284L191.516 7.46666L191.748 7.7H191.979L192.442 7.93333L192.674 8.16666L192.906 8.4L193.137 8.63333L193.369 8.86666L193.6 9.1L193.832 9.33333L194.063 9.79999V10.0333L194.295 10.2667L194.527 10.7333V10.9667L194.758 11.4333V11.6667L194.99 12.1333V12.3667V12.8333L195.221 13.3V13.7667V14V21.7H198.695H199.158H199.39L199.621 21.9333H199.853H200.084H200.548H200.779L201.011 22.1667H201.242H201.474L201.705 22.4H201.937L202.169 22.6333H202.4L202.632 22.8667H202.863L203.095 23.1L203.327 23.3333L203.558 23.5667L203.79 23.8L204.021 24.0333V24.2667L204.253 24.5V24.7333L204.484 24.9667V25.2L204.716 25.4333V25.9V26.1333V26.3667L204.948 26.8333V27.0667V27.5333V27.7667V28.2333L204.716 28.4667V28.9333V29.1667V29.4L204.484 29.6333V29.8667L204.253 30.3333V30.5667L204.021 30.8H203.79V31.0333L203.558 31.2667L203.327 31.5L203.095 31.7333H202.863V31.9667L202.632 32.2H202.4L202.169 32.4333H201.705L201.474 32.6667H201.242H201.011L200.779 32.9H200.548H200.316H199.853H199.621H199.39H199.158H198.695H195.221V62.5333V63L194.99 63.2333V63.7V64.1667V64.4L194.758 64.8667V65.1L194.527 65.5667V65.8L194.295 66.2667L194.063 66.5V66.7333L193.832 66.9667L193.6 67.4333L193.369 67.6667L193.137 67.9L192.906 68.1333L192.674 68.3667H192.442L191.979 68.6L191.748 68.8333H191.516L191.284 69.0667L190.821 69.3H190.59H190.127L189.895 69.5333H189.432H189.2H188.737H188.505H188.042L187.579 69.3H187.348H187.116L186.653 69.0667H186.421L185.958 68.8333L185.727 68.6H185.495L185.263 68.3667L184.8 68.1333L184.569 67.9L184.337 67.6667L184.105 67.4333L183.874 67.2L183.642 66.9667V66.7333L183.411 66.2667L183.179 66.0333V65.8L182.948 65.3333L182.716 65.1V64.6333V64.4L182.484 63.9333V63.4667V63V62.7667V62.3V32.6667Z" fill="#FF7337"/>
<path d="M165.81 35.2333H165.579L165.347 35H165.115H164.884H164.652L164.421 34.7667H164.189H163.957L163.494 34.5333H163.263L163.031 34.3L162.8 34.0667H162.336L162.105 33.8333H161.873L161.41 33.6L161.179 33.3667H160.947L160.484 33.1333L160.252 32.9H159.789L159.557 32.6667L159.094 32.4333H158.863L158.4 32.2H158.168L157.705 31.9667L157.473 31.7333H157.01H156.779L156.315 31.5H156.084L155.621 31.2667H155.389H154.926H154.694H154.231H154H153.768H153.536H153.305H153.073H152.842L152.61 31.5H152.379H152.147L151.915 31.7333H151.684L151.452 31.9667L151.221 32.2H150.989L150.757 32.4333L150.526 32.6667V32.9L150.294 33.1333V33.3667L150.063 33.6V34.0667V34.3V34.5333V34.7667V35V35.2333V35.4667V35.7L150.294 35.9333L150.526 36.1667V36.4H150.757L150.989 36.6333V36.8667H151.221L151.452 37.1L151.684 37.3333H151.915L152.147 37.5667L152.379 37.8H152.61L152.842 38.0333H153.073L153.305 38.2667H153.536L153.768 38.5L154.231 38.7333H154.463L154.694 38.9667H155.157L155.389 39.2H155.621L156.084 39.4333L156.315 39.6667H156.779L157.01 39.9H157.473L157.705 40.1333L158.168 40.3667H158.4L158.863 40.6H159.094L159.557 40.8333L160.021 41.0667H160.252L160.715 41.3L161.41 41.5333L162.105 42L162.568 42.2333H162.8L163.263 42.4667L163.494 42.7L163.957 42.9333L164.421 43.1667L164.652 43.4H165.115L165.347 43.6333L165.81 43.8667L166.042 44.1L166.273 44.3333L166.736 44.5667L166.968 44.8L167.431 45.0333L167.663 45.2667L167.894 45.5L168.126 45.9667L168.589 46.2L168.821 46.4333L169.052 46.6667L169.284 46.9L169.515 47.3667L169.747 47.6L169.979 47.8333L170.21 48.3L170.442 48.5333L170.673 49L170.905 49.2333L171.136 49.7V49.9333L171.368 50.4L171.6 50.8667V51.1L171.831 51.5667V52.0333V52.5L172.063 52.9667V53.2V53.6667V54.1333V54.8333V55.3V55.7667V56.2333V56.9333L171.831 57.4V57.8667L171.6 58.3333V58.8L171.368 59.2667L171.136 59.7333L170.905 60.2L170.673 60.6667L170.442 61.1333L170.21 61.6L169.979 62.0667L169.747 62.5333L169.515 63L169.052 63.2333L168.821 63.7L168.589 64.1667L168.126 64.4L167.663 64.8667L167.431 65.1L166.968 65.5667L166.505 65.8L166.042 66.2667L165.579 66.5L165.115 66.7333L164.652 66.9667L164.189 67.2L163.726 67.6667H163.263L162.568 67.9L162.105 68.1333L161.642 68.3667L160.947 68.6L160.484 68.8333H159.789L159.326 69.0667H158.631L157.936 69.3H157.242H156.779L156.084 69.5333H155.389H154.694H154H153.536H153.073H152.842L152.379 69.3H151.915H151.684H151.221H150.757L150.294 69.0667H149.831H149.6L149.136 68.8333H148.673L148.21 68.6H147.747L147.515 68.3667H147.052L146.589 68.1333H146.126L145.663 67.9H145.431L144.968 67.6667L144.505 67.4333H144.042L143.81 67.2L143.347 66.9667L142.884 66.7333H142.652L142.189 66.5L141.726 66.2667L141.494 66.0333L141.031 65.8L140.8 65.5667L140.336 65.3333L140.105 65.1L139.873 64.8667L139.41 64.6333L139.178 64.4L138.947 64.1667L138.715 63.9333L138.252 63.7L138.021 63.4667L137.789 63.2333L137.557 63L137.326 62.7667V62.5333L137.094 62.3L136.863 62.0667L136.631 61.6V61.3667L136.4 61.1333V60.9V60.4333L136.168 60.2V59.9667V59.7333V59.2667V59.0333V58.8V58.5667V58.3333L136.4 58.1V57.8667L136.631 57.6333V57.4V57.1667L136.863 56.9333V56.7L137.094 56.4667V56.2333L137.326 56L137.557 55.7667L137.789 55.5333L138.021 55.3L138.252 55.0667L138.484 54.8333L138.715 54.6L138.947 54.3667H139.178L139.41 54.1333H139.642L139.873 53.9H140.336H140.568H140.8L141.031 53.6667H141.263H141.726H141.957H142.421L142.652 53.9H142.884H143.347H143.579L143.81 54.1333H144.273L144.505 54.3667H144.736L145.2 54.6H145.431L145.663 54.8333H145.894L146.126 55.0667L146.589 55.3H146.821L147.052 55.5333L147.284 55.7667H147.515L147.747 56L148.21 56.2333H148.442L148.673 56.4667L148.905 56.7H149.368L149.6 56.9333L149.831 57.1667H150.063L150.526 57.4H150.757L150.989 57.6333H151.452L151.684 57.8667H152.147L152.379 58.1H152.842H153.305H153.536L154 58.3333H154.463H154.926H155.157H155.621H155.852H156.315L156.547 58.1H156.779H157.242H157.473H157.705L157.936 57.8667H158.168H158.4V57.6333H158.631L158.863 57.4L159.094 57.1667L159.326 56.9333L159.557 56.7V56.4667L159.789 56.2333V56V55.7667V55.5333V55.3V55.0667V54.6V54.3667V54.1333V53.9L159.557 53.6667V53.4333L159.326 53.2L159.094 52.9667V52.7333H158.863L158.631 52.5L158.4 52.2667H158.168L157.936 52.0333H157.705L157.473 51.8L157.242 51.5667H157.01L156.779 51.3333H156.547L156.315 51.1L156.084 50.8667H155.621L155.389 50.6333H155.157L154.694 50.4H154.463L154.231 50.1667H153.768L153.536 49.9333L153.073 49.7H152.842L152.379 49.4667H152.147L151.684 49.2333L151.452 49H150.989L150.757 48.7667L150.294 48.5333H149.831L149.6 48.3L149.136 48.0667H148.905L148.442 47.8333L147.979 47.6H147.747L147.284 47.3667L147.052 47.1333L146.589 46.9H146.357L145.894 46.6667L145.431 46.4333L145.2 46.2L144.736 45.9667L144.505 45.7333L144.042 45.5L143.81 45.2667L143.579 45.0333L143.115 44.8L142.884 44.5667L142.421 44.3333L142.189 44.1L141.957 43.8667L141.726 43.6333L141.263 43.4L141.031 43.1667L140.8 42.7L140.568 42.4667L140.336 42.2333L140.105 41.7667L139.873 41.5333L139.642 41.3L139.41 40.8333L139.178 40.6L138.947 40.1333L138.715 39.9V39.4333L138.484 38.9667L138.252 38.7333V38.2667L138.021 37.8V37.5667V37.1L137.789 36.6333V36.1667V35.7V35.2333V34.7667V34.0667V33.6V33.1333V32.6667L138.021 31.9667V31.5L138.252 31.0333V30.5667L138.484 30.1L138.715 29.6333V29.1667L138.947 28.7L139.178 28.2333L139.41 27.7667L139.642 27.3L139.873 26.8333L140.336 26.6L140.568 26.1333L140.8 25.6667L141.263 25.4333L141.494 24.9667L141.957 24.7333L142.189 24.2667L142.652 24.0333L142.884 23.5667L143.347 23.3333L143.81 23.1L144.273 22.8667L144.736 22.6333L145.2 22.1667L145.663 21.9333L146.126 21.7L146.589 21.4667H147.052L147.515 21.2333L147.979 21L148.673 20.7667H149.136L149.6 20.5333H150.294L150.757 20.3H151.452L151.915 20.0667H152.61H153.073H153.768H154.463H154.926H155.389H155.621H156.084H156.547H156.779H157.242L157.473 20.3H157.936H158.4H158.631L159.094 20.5333H159.557H159.789L160.252 20.7667H160.715H160.947L161.41 21H161.873L162.105 21.2333H162.568L163.031 21.4667L163.263 21.7H163.726L164.189 21.9333H164.421L164.884 22.1667L165.115 22.4L165.579 22.6333H165.81L166.273 22.8667L166.505 23.1L166.968 23.3333L167.2 23.5667L167.431 23.8H167.663L168.126 24.0333L168.357 24.2667L168.589 24.5L168.821 24.7333L169.052 24.9667L169.284 25.4333L169.515 25.6667L169.747 25.9L169.979 26.1333V26.3667L170.21 26.6L170.442 27.0667V27.3L170.673 27.5333V28L170.905 28.2333V28.4667V28.9333V29.1667V29.6333V29.8667V30.1V30.3333V30.8L170.673 31.0333V31.2667V31.5L170.442 31.9667V32.2L170.21 32.4333L169.979 32.6667V32.9L169.747 33.1333L169.515 33.3667L169.284 33.6V33.8333L169.052 34.0667H168.821L168.589 34.3L168.357 34.5333H168.126L167.663 34.7667H167.431L167.2 35H166.968H166.736L166.273 35.2333H166.042H165.81Z" fill="#FF7337"/>
<path d="M132.696 9.1V9.33334V9.8L132.464 10.0333V10.5V10.7333L132.233 11.2V11.4333L132.001 11.9V12.1333L131.769 12.6L131.538 12.8333L131.306 13.0667V13.3L131.075 13.7667L130.843 14L130.612 14.2333L130.38 14.4667L129.917 14.7L129.685 14.9333L129.454 15.1667H129.222L128.759 15.4L128.527 15.6333H128.296L127.833 15.8667L127.601 16.1H127.138H126.906L126.443 16.3333H126.212H125.748H125.517H125.054H124.822L124.359 16.1H124.127H123.664L123.433 15.8667H122.969L122.738 15.6333L122.506 15.4H122.043L121.812 15.1667L121.58 14.9333L121.117 14.7L120.885 14.4667L120.654 14.2333L120.422 14L120.191 13.7667L119.959 13.5333L119.727 13.0667L119.496 12.8333L119.264 12.6V12.3667L119.033 11.9L118.801 11.6667V11.2L118.569 10.9667V10.5L118.338 10.2667V9.8V9.56667V9.1V8.86667V8.4V8.16667V7.7V7.46667L118.569 7.23334V6.76667L118.801 6.53334V6.06667L119.033 5.83334L119.264 5.6V5.36667L119.496 4.9L119.727 4.66667L119.959 4.43334L120.191 4.2L120.422 3.96667L120.654 3.73334L120.885 3.5L121.117 3.26667L121.58 3.03334L121.812 2.8H122.043L122.506 2.56667L122.738 2.33334H122.969L123.433 2.1H123.664H124.127L124.359 1.86667H124.822H125.054H125.517H125.748H126.212H126.443L126.906 2.1H127.138L127.601 2.33334H127.833L128.064 2.56667H128.527L128.759 2.8L128.991 3.03334L129.454 3.26667H129.685L129.917 3.5L130.148 3.73334L130.38 3.96667L130.612 4.43334L130.843 4.66667L131.075 4.9L131.306 5.13334L131.538 5.36667L131.769 5.6V6.06667L132.001 6.3L132.233 6.76667V7L132.464 7.23334V7.7V7.93334V8.4L132.696 8.63334V9.1Z" fill="#FF7337"/>
<path d="M119.033 28.2333V27.7667V27.3V26.8333L119.265 26.6V26.1333V25.6667L119.496 25.4333V24.9667L119.728 24.7333L119.96 24.5V24.0333L120.191 23.8L120.423 23.5667L120.654 23.3333L120.886 23.1L121.117 22.6333H121.349L121.581 22.4L121.812 22.1667L122.044 21.9333L122.507 21.7H122.738L122.97 21.4667H123.433L123.665 21.2333H124.128H124.36H124.823L125.054 21H125.517H125.749L126.212 21.2333H126.444H126.907L127.138 21.4667H127.602H127.833L128.065 21.7L128.528 21.9333H128.759L128.991 22.1667L129.223 22.4L129.454 22.6333L129.686 22.8667L129.917 23.1L130.149 23.3333L130.381 23.5667L130.612 24.0333L130.844 24.2667L131.075 24.5V24.9667L131.307 25.2V25.6667L131.538 25.9V26.3667L131.77 26.6V27.0667V27.5333V28V28.2333V62.5333V63V63.2333V63.7V64.1667L131.538 64.4V64.8667L131.307 65.1V65.5667L131.075 65.8V66.2667L130.844 66.5L130.612 66.7333L130.381 67.2L130.149 67.4333L129.917 67.6667L129.686 67.9L129.454 68.1333L129.223 68.3667H128.991L128.759 68.6L128.528 68.8333L128.065 69.0667H127.833L127.602 69.3H127.138H126.907L126.444 69.5333H126.212H125.749H125.517H125.054H124.591L124.36 69.3H123.896H123.665L123.433 69.0667H122.97L122.738 68.8333L122.507 68.6H122.044L121.812 68.3667L121.581 68.1333L121.349 67.9L121.117 67.6667L120.886 67.4333L120.654 67.2L120.423 66.9667L120.191 66.7333L119.96 66.2667V66.0333L119.728 65.8L119.496 65.3333V65.1L119.265 64.6333V64.4V63.9333L119.033 63.4667V63V62.7667V62.3V28.2333Z" fill="#FF7337"/>
<path d="M100.738 7.46666V6.99999V6.53333V6.29999L100.97 5.83333V5.36666V5.13333L101.201 4.66666V4.43333L101.433 3.96666L101.665 3.73333V3.49999L101.896 3.03333L102.128 2.79999L102.359 2.56666L102.591 2.33333L102.822 2.09999L103.054 1.86666L103.286 1.63333L103.517 1.39999H103.749L103.98 1.16666L104.444 0.933326H104.675L104.907 0.699993H105.37L105.601 0.46666H106.065H106.296H106.759H107.222H107.454H107.917H108.149L108.612 0.699993H108.844H109.307L109.538 0.933326L109.77 1.16666H110.233L110.465 1.39999L110.696 1.63333L110.928 1.86666L111.159 2.09999L111.391 2.33333L111.622 2.56666L111.854 2.79999L112.086 3.03333L112.317 3.26666L112.549 3.49999V3.96666L112.78 4.19999L113.012 4.66666V4.89999L113.244 5.36666V5.59999V6.06666L113.475 6.53333V6.76666V7.23333V7.69999V62.5333V63V63.2333V63.7L113.244 64.1666V64.4V64.8666L113.012 65.1V65.5667L112.78 65.8L112.549 66.2666V66.5L112.317 66.7333L112.086 66.9667L111.854 67.4333L111.622 67.6666L111.391 67.9L111.159 68.1333L110.928 68.3666H110.696L110.465 68.6L110.233 68.8333H109.77L109.538 69.0667L109.307 69.3H108.844H108.612L108.149 69.5333H107.917H107.454H106.991H106.759H106.296L106.065 69.3H105.601H105.37L104.907 69.0667H104.675L104.444 68.8333L103.98 68.6H103.749L103.517 68.3666L103.286 68.1333L103.054 67.9L102.822 67.6666L102.591 67.4333L102.359 67.2L102.128 66.9667L101.896 66.7333L101.665 66.2666L101.433 66.0333V65.8L101.201 65.3333V65.1L100.97 64.6333V64.1666V63.9333L100.738 63.4667V63V62.7666V62.3V7.46666Z" fill="#FF7337"/>
<path d="M0.462891 7V6.53333V6.3L0.69447 5.83333V5.36667V5.13333L0.926049 4.66667V4.2L1.15763 3.96667V3.5L1.38921 3.26667L1.62079 3.03333V2.8L1.85236 2.33333L2.08394 2.1L2.31552 1.86667L2.5471 1.63333L2.77868 1.4L3.01026 1.16667L3.24184 0.933333H3.705L3.93657 0.7L4.16815 0.466667H4.39973L4.86289 0.233333H5.09447H5.55763L5.78921 0H6.25236H6.48394H6.9471H7.17868H7.64184H7.87342L8.33657 0.233333H8.56815L9.03131 0.466667H9.26289L9.72605 0.7H9.95763L10.1892 0.933333L10.4208 1.16667L10.6524 1.4L11.1155 1.63333L11.3471 1.86667L11.5787 2.1L11.8103 2.33333V2.56667L12.0418 2.8L12.2734 3.03333L12.505 3.5V3.73333L12.7366 4.2L12.9682 4.43333V4.9V5.13333L13.1997 5.6V6.06667V6.3V6.76667V7.23333V24.7333H13.4313L13.6629 24.2667L13.8945 24.0333L14.3576 23.8L14.5892 23.5667L14.8208 23.3333L15.2839 23.1L15.5155 22.8667L15.9787 22.6333L16.2103 22.4L16.6734 22.1667L16.905 21.9333L17.3682 21.7H17.8313L18.0629 21.4667L18.526 21.2333H18.9892L19.4524 21H19.6839H20.1471L20.6103 20.7667H21.0734L21.305 20.5333H21.7682H22.2313H22.6945H23.1576H23.3892L23.8524 20.3H24.3155H24.5471H25.0103H25.705L26.1682 20.5333H26.8629H27.326H28.0208L28.4839 20.7667H28.9471L29.6418 21H30.105L30.5682 21.2333H31.0313L31.726 21.4667L32.1892 21.7L32.6524 21.9333L33.1155 22.1667L33.5787 22.4L34.0418 22.6333L34.505 22.8667L34.9682 23.1L35.4313 23.3333L35.6629 23.5667L36.126 24.0333L36.5892 24.2667L37.0524 24.5L37.2839 24.9667L37.7471 25.2L37.9787 25.6667L38.4418 26.1333L38.6734 26.3667L39.1366 26.8333L39.3682 27.3L39.5997 27.7667L39.8313 28.2333L40.2945 28.4667L40.526 28.9333L40.7576 29.4L40.9892 30.1L41.2208 30.5667V31.0333L41.4524 31.5L41.6839 31.9667L41.9155 32.6667V33.1333L42.1471 33.6V34.3L42.3787 34.7667V35.4667V35.9333V36.6333L42.6103 37.3333V37.8V62.5333L42.3787 63V63.2333V63.7V64.1667V64.4L42.1471 64.8667V65.1L41.9155 65.5667V65.8L41.6839 66.2667L41.4524 66.5L41.2208 66.7333V66.9667L40.9892 67.4333L40.7576 67.6667L40.526 67.9L40.2945 68.1333L40.0629 68.3667H39.5997L39.3682 68.6L39.1366 68.8333H38.905L38.4418 69.0667L38.2103 69.3H37.9787H37.5155L37.2839 69.5333H36.8208H36.5892H36.126H35.6629H35.4313L34.9682 69.3H34.7366H34.2734L34.0418 69.0667H33.8103L33.3471 68.8333L33.1155 68.6H32.8839L32.4208 68.3667L32.1892 68.1333L31.9576 67.9L31.726 67.6667L31.4945 67.4333L31.2629 67.2L31.0313 66.9667V66.7333L30.7997 66.2667L30.5682 66.0333L30.3366 65.8V65.3333L30.105 65.1V64.6333L29.8734 64.1667V63.9333V63.4667V63L29.6418 62.7667V62.3V39.9V39.4333V38.9667V38.5V38.2667V37.8L29.4103 37.3333V36.8667L29.1787 36.6333V36.1667L28.9471 35.9333V35.4667L28.7155 35.2333L28.4839 34.7667V34.5333L28.2524 34.3L28.0208 34.0667L27.7892 33.8333L27.5576 33.6L27.326 33.3667L27.0945 33.1333L26.8629 32.9L26.6313 32.6667L26.3997 32.4333L25.9366 32.2L25.705 31.9667H25.4734L25.2418 31.7333H24.7787L24.5471 31.5H24.0839L23.8524 31.2667H23.6208H23.1576L22.926 31.0333H22.4629H22.2313H21.7682H21.5366H21.0734H20.6103H20.1471H19.6839L19.4524 31.2667H18.9892H18.526L18.2945 31.5L17.8313 31.7333H17.5997L17.3682 31.9667L16.905 32.2H16.6734L16.4418 32.4333L16.2103 32.6667L15.9787 32.9L15.5155 33.1333L15.2839 33.3667L15.0524 33.6V34.0667L14.8208 34.3L14.5892 34.5333L14.3576 35L14.126 35.2333V35.4667L13.8945 35.9333V36.1667L13.6629 36.6333V36.8667L13.4313 37.3333V37.8V38.0333V38.5L13.1997 38.9667V39.2V39.6667V62.0667V62.5333V62.7667V63.2333V63.7L12.9682 63.9333V64.4L12.7366 64.8667V65.1L12.505 65.3333V65.8L12.2734 66.0333L12.0418 66.2667L11.8103 66.7333L11.5787 66.9667V67.2L11.3471 67.4333L10.8839 67.6667L10.6524 67.9L10.4208 68.1333H10.1892L9.95763 68.3667L9.49447 68.6H9.26289L9.03131 68.8333H8.56815H8.33657L7.87342 69.0667H7.64184H7.17868H6.9471H6.48394H6.25236L5.78921 68.8333H5.55763H5.09447L4.86289 68.6H4.39973L4.16815 68.3667H3.93657L3.47342 68.1333L3.24184 67.9L3.01026 67.6667L2.77868 67.4333L2.5471 67.2L2.31552 66.9667L2.08394 66.7333L1.85236 66.5L1.62079 66.2667L1.38921 65.8V65.5667L1.15763 65.3333V64.8667L0.926049 64.6333V64.1667L0.69447 63.9333V63.4667V63L0.462891 62.7667V62.3V61.8333V7Z" fill="#FF7337"/>
</svg>
