<svg width="51" height="50" fill="none" xmlns="http://www.w3.org/2000/svg"><path d="M25.303 3c-2.097 10.026-2.607 19.835-2.354 30.023.095 3.812.775 15.227.334 11.437-.578-4.978-.266-10.042.366-14.996.439-3.436.868-6.85 1.018-10.312.158-3.632.151-7.315.939-10.89.28-1.27.795-2.38 1.367-3.543.042-.085.442-1.212.27-.502-1.317 5.462-1.725 11.325-2.035 16.897-.4 7.21-.574 14.67-.127 21.886.1 1.61.223.895.095-.213-.365-3.162-.743-6.25-.668-9.445.17-7.253.918-14.85 2.116-22.023a34.123 34.123 0 0 1 1.495-5.855c.547-1.538.315-.16.207.578-1.18 8.01-2.078 15.75-2.148 23.878-.033 3.909-.04 7.82.127 11.726.05 1.164.55 3.263.144 4.426-.386 1.107-.479-2.29-.7-3.437-.826-4.276-1.075-8.465-.843-12.806.41-7.677 1.949-15.184 3.42-22.723.12-.613.68-2.168.286-2.828-.335-.56-.896 1.038-1.018 1.673-.506 2.624-.525 5.325-.557 7.984a490.655 490.655 0 0 0 .048 15.711c.107 5.355.65 10.968-.127 16.304-.554 3.803-1.64-7.583-1.56-11.422.161-7.706 2.377-15.004 1.91-22.768-.102-1.681.044-3.883-.573-5.505-.235-.619-1.38 3.524-1.416 3.71-1.648 8.83-.572 17.916-.143 26.799.112 2.32.228 4.675.064 6.996-.103 1.446-.243 1.189-.573-.091-1.838-7.127-2.39-14.447-1.463-21.749.677-5.335 2.64-10.687 2.64-16.091 0-.115-.061-1.786-.413-.745-.54 1.593-.84 3.345-1.13 4.988-1.638 9.261-1.21 18.684-.493 28 .172 2.235.271 4.505.637 6.722.299 1.818.29-.054.222-.73-.307-3.079-1.048-6.102-1.447-9.17-.627-4.824-.364-9.575.366-14.373.794-5.225 2.514-10.78 2.242-16.107-.07-1.39-.789.902-.795.928-.793 3.223-.601 6.73-.525 10.008.208 8.94.823 17.874 1.098 26.813.009.296.172 1.822.397.502.5-2.94-.349-6.098-.7-9.004" stroke="#6DAD45" stroke-width="5" stroke-linecap="round" stroke-linejoin="round"/><path d="M47.782 22.247c-10.416-1.034-20.458-.543-30.813.729-3.876.476-15.44 2.287-11.62 1.477 5.015-1.065 10.204-1.27 15.313-1.154 3.543.081 7.063.156 10.603-.046 3.716-.212 7.467-.59 11.185-.182 1.32.144 2.501.535 3.742.975.09.032 1.276.309.537.213-5.692-.734-11.704-.541-17.41-.282-7.384.336-15.001.917-22.31 2.08-1.63.259-.89.307.227.071 3.186-.674 6.295-1.353 9.558-1.602 7.405-.565 15.217-.601 22.64-.156a36.25 36.25 0 0 1 6.109.867c1.619.379.192.291-.57.26-8.274-.343-16.245-.438-24.532.312-3.986.36-7.971.748-11.935 1.304-1.18.166-3.27.863-4.495.585-1.165-.264 2.287-.696 3.435-1.027 4.276-1.235 8.52-1.9 12.965-2.111 7.86-.373 15.657.37 23.478 1.044.636.055 2.275.445 2.91-.006.538-.383-1.145-.768-1.803-.823-2.723-.229-5.475.024-8.188.261-5.339.466-10.68.999-16.001 1.628-5.446.644-11.111 1.738-16.623 1.518-3.927-.157 7.568-2.36 11.487-2.668 7.866-.62 15.515.803 23.379-.433 1.703-.268 3.96-.348 5.554-1.112.607-.292-3.724-.99-3.917-1.006-9.153-.717-18.307 1.246-27.316 2.559-2.351.342-4.74.693-7.12.766-1.483.046-1.235-.117.037-.567 7.084-2.508 14.488-3.784 22.016-3.615 5.5.123 11.142 1.496 16.648.952.116-.011 1.813-.24.72-.478-1.676-.364-3.49-.48-5.192-.598-9.592-.663-19.15.702-28.573 2.339-2.26.392-4.563.717-6.787 1.296-1.823.475.083.277.765.144 3.107-.609 6.117-1.636 9.204-2.334 4.853-1.096 9.719-1.317 14.678-1.09 5.4.247 11.223 1.364 16.624.563 1.41-.209-.994-.678-1.021-.681-3.36-.448-6.914.092-10.246.496-9.088 1.102-18.131 2.6-27.212 3.768-.3.04-1.84.352-.473.438 3.045.192 6.18-.954 9.106-1.588" stroke="#6DAD45" stroke-width="5" stroke-linecap="round" stroke-linejoin="round"/></svg>