<svg width="38" height="32" viewBox="0 0 38 32" fill="none" xmlns="http://www.w3.org/2000/svg">
<path d="M8.99592 9.09953C10.2367 7.38073 12.4599 6.26857 15.6653 5.76304V0C10.185 0 6.20408 1.66825 3.72245 5.00474C1.24082 8.34124 0 13.2954 0 19.8673V32H15.2V17.5924H7.2898C7.2898 13.5482 7.8585 10.7172 8.99592 9.09953Z" fill="#6DAD45"/>
<path d="M31.3306 9.09953C32.5714 7.38073 34.7946 6.26857 38 5.76304V0C32.5197 0 28.5388 1.66825 26.0571 5.00474C23.5755 8.34124 22.3347 13.2954 22.3347 19.8673V32H37.5347V17.5924H29.6245C29.6245 13.5482 30.1932 10.7172 31.3306 9.09953Z" fill="#6DAD45"/>
</svg>
