<svg width="96" height="93" fill="none" xmlns="http://www.w3.org/2000/svg"><path d="M16.078 72.62l4.575-3.984-1.439-1.68 1.64-1.449 4.508 5.244-1.64 1.448-1.439-1.67-4.58 3.988-1.625-1.897zm6.52 1.356c1.487-2.057 4.086-2.298 6.138-.797 2.052 1.502 2.623 4.07 1.136 6.132-1.486 2.062-4.085 2.29-6.142.792-2.057-1.496-2.633-4.07-1.132-6.127zm5.213 3.834a1.999 1.999 0 0 0-.87-2.928 1.963 1.963 0 0 0-2.142.39 1.993 1.993 0 0 0-.484 2.14c.137.364.377.68.69.91a1.936 1.936 0 0 0 2.806-.512zm10.59 8.98l-1.798-4.861-1.117 4.04-2.398-.675 2.215-7.972 2.465.696 1.702 4.548 1.046-3.776 2.397.671-2.215 7.972-2.297-.642zm10.616 1.111l-.292-.965-2.954-.025-.302.966-2.825-.024 3.108-8.247 3.126.029 2.959 8.3-2.82-.034zm-1.726-5.818l-.834 2.656h1.625l-.79-2.656zm7.149 5.311l-1.122-5.992-2.167.41-.403-2.143 6.795-1.27.403 2.149-2.153.41 1.122 5.987-2.475.45zm5.39-4.572l-2-4.447 2.307-1.048 1.96 4.346c.188.34.496.599.863.721a1.53 1.53 0 0 0 1.12-.059 1.558 1.558 0 0 0 .813-1.938l-1.96-4.369 2.306-1.047 1.99 4.432c.844 1.878.292 3.78-2.24 4.935-2.532 1.154-4.32.342-5.16-1.526zm14.673-4.655L72 76.85l-.7.57 1.616 2.028-1.947 1.569-5.131-6.45 3.419-2.763c1.496-1.212 3.107-.859 4.071.353a2.67 2.67 0 0 1 .398 2.897l2.997 1.333-2.22 1.781zm-3.155-4.432a.7.7 0 0 0-.801-.17.7.7 0 0 0-.235.17l-1.18.966.81 1.018 1.18-.965a.7.7 0 0 0 .337-.46.71.71 0 0 0-.111-.56zm6.924.941l-6.42-5.147 3.912-4.93 1.698 1.367-2.34 2.945.633.512 2.287-2.897 1.693 1.361-2.287 2.897.705.57 2.34-2.95 1.697 1.366-3.918 4.906zM25.659 22.969l-5.04-6.553 3.472-2.699c1.52-1.183 3.121-.801 4.066.425.945 1.227.897 2.897-.623 4.061l-1.501 1.169 1.582 2.061-1.956 1.536zm.513-7.243a.659.659 0 0 0-.76-.214.657.657 0 0 0-.233.156l-1.251.966.791 1.028 1.247-.965a.654.654 0 0 0 .332-.737.659.659 0 0 0-.126-.258v.024zm9.878.69l-2.07-1.93-.826.361 1.036 2.39-2.282 1.005-3.295-7.581 4.023-1.767c1.76-.778 3.223 0 3.837 1.41a2.687 2.687 0 0 1-.36 2.897l2.532 2.08-2.594 1.135zm-1.917-5.108c-.178-.41-.619-.435-1.003-.266l-1.39.614.518 1.192 1.39-.613c.398-.164.69-.502.508-.922l-.023-.005zm4.07-.256c-.37-2.515 1.314-4.52 3.836-4.896 2.523-.376 4.704 1.058 5.074 3.573.369 2.516-1.32 4.525-3.837 4.901-2.517.377-4.704-1.057-5.073-3.578zm6.402-.965a2 2 0 0 0-.747-1.381 1.97 1.97 0 0 0-1.509-.404 1.967 1.967 0 0 0-1.329.825 1.997 1.997 0 0 0-.319 1.539 2.002 2.002 0 0 0 .717 1.437 1.97 1.97 0 0 0 1.538.434 1.967 1.967 0 0 0 1.354-.854 1.995 1.995 0 0 0 .285-1.582l.01-.014zm3.635 3.915l.81-8.237 6.206.618-.211 2.173-3.736-.381-.077.816 3.64.362-.211 2.172-3.644-.362-.302 3.076-2.475-.237zm7.026.932l2.162-7.99 2.398.656-2.163 7.991-2.397-.657zm5.105 1.652l2.541-5.529-2.013-.917.91-1.98 6.234 2.897-.877 1.98-1.99-.927-2.546 5.533-2.259-1.057zm4.844.941l2.148-.695a3.868 3.868 0 0 0 1.444 2.482c.373.284.8.482.992.202.48-.632-3.654-2.79-1.688-5.383.844-1.116 2.57-1.478 4.364-.102a5.471 5.471 0 0 1 2.08 3.047l-2.147.584a4.177 4.177 0 0 0-1.439-2.124c-.388-.3-.594-.256-.724-.087-.48.623 3.572 2.897 1.721 5.311-1.098 1.449-2.8 1.449-4.555.126a5.474 5.474 0 0 1-2.196-3.361zM16.018 58.303V45.542l-3.49 3.486-3.53-3.704 7.888-7.783h5.376v20.762h-6.244zm8.472-10.366c0-5.635 2.997-10.71 9.154-10.71s9.15 5.075 9.15 10.71c0 5.634-2.993 10.738-9.15 10.738s-9.154-5.08-9.154-10.738zm12.027 0c0-3.516-.897-5.167-2.878-5.167-1.98 0-2.877 1.651-2.877 5.166 0 3.516.897 5.2 2.877 5.2 1.98 0 2.878-1.68 2.878-5.2zm7.383 0c0-5.635 3.002-10.71 9.154-10.71 6.153 0 9.15 5.075 9.15 10.71 0 5.634-2.997 10.738-9.15 10.738-6.152 0-9.154-5.08-9.154-10.738zm12.027 0c0-3.516-.897-5.167-2.877-5.167-1.98 0-2.877 1.651-2.877 5.166 0 3.516.896 5.2 2.877 5.2 1.98 0 2.877-1.68 2.877-5.2zm7.45-5.447c0-2.926 2.129-5.263 5.5-5.263s5.567 2.337 5.567 5.263c0 2.926-2.167 5.2-5.567 5.2-3.4 0-5.5-2.303-5.5-5.2zm3.428 15.813l13.173-20.762h3.03l-13.2 20.762h-3.003zM70.67 42.49c0-1.4-.8-1.96-1.793-1.96-.993 0-1.745.56-1.745 1.96s.772 1.898 1.73 1.898c.96 0 1.809-.56 1.809-1.898zm4.671 10.99c0-2.926 2.134-5.263 5.5-5.263s5.534 2.337 5.534 5.263c0 2.926-2.163 5.195-5.534 5.195-3.37 0-5.5-2.303-5.5-5.195zm7.294 0c0-1.4-.801-1.966-1.794-1.966-.992 0-1.76.565-1.76 1.965 0 1.4.772 1.898 1.76 1.898s1.794-.531 1.794-1.898z" fill="#fff"/><path d="M91.373 35.421a1.12 1.12 0 0 1-.685-.235 1.14 1.14 0 0 1-.403-.605 44.224 44.224 0 0 0-15.749-23.308 43.712 43.712 0 0 0-26.535-8.987 43.713 43.713 0 0 0-26.536 8.987A44.225 44.225 0 0 0 5.716 34.581a1.148 1.148 0 0 1-.525.732 1.13 1.13 0 0 1-1.588-.445 1.15 1.15 0 0 1-.073-.9A46.51 46.51 0 0 1 20.09 9.45 45.97 45.97 0 0 1 48-.004 45.97 45.97 0 0 1 75.91 9.45a46.51 46.51 0 0 1 16.561 24.518 1.153 1.153 0 0 1-.395 1.209 1.134 1.134 0 0 1-.703.244zM47.998 93a46.159 46.159 0 0 1-26.33-8.346A46.655 46.655 0 0 1 4.712 62.72a1.149 1.149 0 0 1 .031-.873 1.126 1.126 0 0 1 1.502-.563c.274.126.486.356.591.64a44.183 44.183 0 0 0 16.1 20.889 43.71 43.71 0 0 0 25.06 7.905 43.71 43.71 0 0 0 25.06-7.905 44.182 44.182 0 0 0 16.1-20.89 1.14 1.14 0 0 1 .595-.61 1.13 1.13 0 0 1 1.478.553c.128.267.148.573.055.854a46.66 46.66 0 0 1-16.957 21.932A46.164 46.164 0 0 1 47.998 93z" fill="#fff"/><path d="M48 76.525a29.717 29.717 0 0 1-15.076-4.13 29.983 29.983 0 0 1-10.943-11.229.575.575 0 0 1 .216-.777.563.563 0 0 1 .772.217 28.79 28.79 0 0 0 10.523 10.807 28.534 28.534 0 0 0 14.506 3.966c5.099 0 10.106-1.37 14.505-3.966a28.79 28.79 0 0 0 10.523-10.807.57.57 0 0 1 .993.56 29.99 29.99 0 0 1-10.944 11.228A29.723 29.723 0 0 1 48 76.525zm46.863-41.108H1.136a1.128 1.128 0 0 1-.85-.307 1.143 1.143 0 0 1-.36-.835 1.151 1.151 0 0 1 .36-.835 1.136 1.136 0 0 1 .85-.307h93.727a1.128 1.128 0 0 1 .851.307 1.143 1.143 0 0 1 .36.835 1.15 1.15 0 0 1-.754 1.077 1.128 1.128 0 0 1-.457.065z" fill="#fff"/><path d="M94.864 62.325H1.136c-.3 0-.59-.12-.803-.335a1.148 1.148 0 0 1 0-1.618 1.13 1.13 0 0 1 .803-.335h93.728c.3 0 .59.12.803.335a1.148 1.148 0 0 1 0 1.618 1.133 1.133 0 0 1-.803.335zM74.45 34.533a.563.563 0 0 1-.513-.328A28.793 28.793 0 0 0 63.363 22.11a28.512 28.512 0 0 0-15.365-4.498 28.512 28.512 0 0 0-15.366 4.498 28.793 28.793 0 0 0-10.574 12.094.568.568 0 0 1-.753.275.566.566 0 0 1-.326-.542.573.573 0 0 1 .053-.216 29.933 29.933 0 0 1 10.993-12.566 29.643 29.643 0 0 1 15.97-4.674 29.643 29.643 0 0 1 15.97 4.674A29.934 29.934 0 0 1 74.96 33.722a.572.572 0 0 1-.274.763.523.523 0 0 1-.235.048z" fill="#fff"/></svg>