<svg width="12" height="15" viewBox="0 0 12 15" fill="none" xmlns="http://www.w3.org/2000/svg">
<path fill-rule="evenodd" clip-rule="evenodd" d="M6.29297 0C9.32989 0 11.793 1.88664 11.793 5.56608C11.793 7.1491 11.3339 8.60376 10.5835 9.74824H10.5923L10.5482 9.80172C10.3187 10.1333 10.0626 10.4435 9.78896 10.7216L7.0682 14.0513C6.66779 14.5413 5.91865 14.5409 5.51878 14.0504L2.01127 9.74824C1.25204 8.60376 0.792969 7.1491 0.792969 5.56608C0.792969 1.88664 3.25605 0 6.29297 0ZM6.29297 8C7.67368 8 8.79297 6.88071 8.79297 5.5C8.79297 4.11929 7.67368 3 6.29297 3C4.91226 3 3.79297 4.11929 3.79297 5.5C3.79297 6.88071 4.91226 8 6.29297 8Z" fill="#FBAC37"/>
</svg>
