<svg width="45" height="40" viewBox="0 0 45 40" fill="none" xmlns="http://www.w3.org/2000/svg">
<path d="M2.1632 12.9877C7.61731 5.24954 16.344 0.368547 25.3433 0.0114018C31.0702 -0.167175 37.2881 1.73761 40.7787 6.73766C43.5058 10.6067 44.1603 15.6663 44.7057 20.4878C45.0875 23.9998 45.3602 27.8093 43.7784 30.9641C41.924 34.6546 37.8879 36.3808 34.1791 37.5713C29.3795 39.1189 24.3616 40.2499 19.3983 39.9523C14.435 39.6547 9.36266 37.6903 5.87206 33.7617C2.81763 30.3688 1.18146 25.7855 0.199706 21.2616C-0.345759 18.8211 0.199705 15.7735 2.1632 12.9877Z" fill="#5FC5FF"/>
<path d="M14.2852 27.4668C16.0101 28.6438 18.0224 29.2977 20.1991 29.2977C27.3451 29.2977 31.3697 22.8898 31.1644 17.1356C31.9037 16.5689 32.5608 15.8278 33.0947 14.9996C32.3965 15.3047 31.6573 15.5662 30.8769 15.6534C31.6573 15.1303 32.2733 14.3457 32.5608 13.3867C31.8216 13.8662 31.0001 14.215 30.0966 14.3893C29.3985 13.6047 28.4128 13.0815 27.304 13.0815C24.7987 13.0815 22.9917 15.5227 23.5667 18.0946C20.3223 17.9639 17.4885 16.3509 15.5994 13.8662C14.5727 15.697 15.0655 18.0946 16.7904 19.3151C16.1743 19.3151 15.5583 19.0973 15.0655 18.7921C15.0244 20.6665 16.2975 22.4538 18.1456 22.8462C17.6117 23.0205 16.9957 23.0205 16.4207 22.9334C16.9136 24.5462 18.3509 25.7232 20.0348 25.7668C18.3509 27.1182 16.3386 27.7284 14.2852 27.4668Z" fill="white"/>
</svg>
