<svg width="44" height="43" fill="none" xmlns="http://www.w3.org/2000/svg"><g clip-path="url(#clip0)"><path d="M3.667 14.233C10.123 3.886 20.779-.507 31.293 1.292c2.839.469 5.741 1.564 7.934 3.832 2.774 2.816 4.193 7.274 4.645 11.654.516 5.397-.516 11.185-3.29 15.409-2.967 4.458-7.547 6.883-12.062 8.447a46.673 46.673 0 0 1-9.096 2.112c-5.483.704-11.482.156-15.546-4.38-2.58-2.894-3.999-7.118-3.87-11.263.13-4.146 1.384-9.224 3.659-12.87z" fill="#5674DE"/><path d="M20.097 33.009h4.456v-11.14h3.128l.343-3.742h-3.47v-2.126c0-.893.17-1.233 1.028-1.233h2.442v-3.827H24.94c-3.342 0-4.842 1.446-4.842 4.252v2.977h-2.314v3.784h2.314v11.055z" fill="#fff"/></g><defs><clipPath id="clip0"><path fill="#fff" transform="translate(0 .899)" d="M0 0h44v42.101H0z"/></clipPath></defs></svg>
