<svg width="43" height="41" viewBox="0 0 43 41" fill="none" xmlns="http://www.w3.org/2000/svg">
<path d="M5.41151 5.91059C11.8709 -0.292925 19.6005 -0.680645 22.514 0.579444C26.7332 2.37265 31.5503 0.870234 35.4706 3.63274C39.3909 6.39524 42.4911 11.4356 42.939 17.203C43.4246 23.1642 40.9599 29.1253 37.4119 32.954C33.8649 36.7828 29.3468 38.8667 24.8286 40.0299C21.0572 40.9993 17.1736 41.4354 13.4022 40.4176C7.68945 38.8183 2.57351 33.4386 0.706676 26.2174C-1.16015 18.9961 0.74443 10.3209 5.56043 6.00752" fill="#F54EA8"/>
<path fill-rule="evenodd" clip-rule="evenodd" d="M25.0941 13.1788C24.148 13.1407 23.8831 13.1407 21.4996 13.1407C20.0371 13.1407 19.3723 13.1551 18.8585 13.1662C18.5349 13.1731 18.2713 13.1788 17.9061 13.1788C17.0358 13.2169 16.5435 13.3695 16.2413 13.4839C15.8248 13.6745 15.5226 13.8653 15.2194 14.1704C14.8797 14.4754 14.6897 14.7805 14.539 15.2C14.4249 15.5432 14.2742 16.0008 14.2358 16.8779C14.1984 17.8312 14.1984 18.0982 14.1984 20.5006C14.1984 22.903 14.1984 23.17 14.2358 24.1233C14.2742 25.0004 14.4249 25.4961 14.539 25.8013C14.7281 26.2208 14.9171 26.5259 15.2194 26.8309C15.5226 27.1741 15.8248 27.3648 16.2413 27.5173L16.2416 27.5174C16.5822 27.6318 17.036 27.7843 17.9061 27.8224C18.8513 27.8605 19.1161 27.8605 21.4996 27.8605C23.8831 27.8605 24.148 27.8605 25.0941 27.8224C25.9635 27.7843 26.4557 27.6317 26.758 27.5173C27.1744 27.3266 27.4767 27.136 27.7799 26.8309C28.1196 26.5259 28.3096 26.2208 28.4602 25.8013C28.5744 25.4581 28.725 25.0004 28.7634 24.1233C28.8008 23.17 28.8009 22.903 28.8009 20.5006C28.8009 18.0982 28.8008 17.8312 28.7634 16.8779C28.725 16.0008 28.5744 15.5051 28.4602 15.2C28.2712 14.7805 28.0821 14.4754 27.7799 14.1704C27.4767 13.8271 27.1744 13.6364 26.758 13.4839L26.7577 13.4838C26.4171 13.3694 25.9632 13.2169 25.0941 13.1788ZM17.8303 11.5772C18.7755 11.5391 19.0787 11.5391 21.4996 11.5391C23.9206 11.5391 24.2238 11.5391 25.169 11.5772C26.1151 11.6154 26.758 11.7679 27.326 11.9967C27.9305 12.2255 28.4228 12.5306 28.9141 13.0263C29.4063 13.522 29.7086 14.0559 29.936 14.628C30.1625 15.2 30.3141 15.8482 30.3524 16.8016C30.3899 17.7548 30.3899 18.0599 30.3899 20.4994V20.5006V20.5018C30.3899 22.9413 30.3899 23.2465 30.3524 24.1996C30.3141 25.1531 30.1625 25.8013 29.936 26.3732C29.7086 26.9834 29.4063 27.4792 28.9141 27.9749C28.4228 28.4706 27.8931 28.7757 27.326 29.0045C26.758 29.2334 26.1151 29.3859 25.169 29.424C24.2238 29.4621 23.9206 29.4621 21.4999 29.4621H21.4996H21.4993C19.0786 29.4621 18.7754 29.4621 17.8303 29.424C16.8842 29.3859 16.2413 29.2334 15.6732 29.0045C15.0687 28.7757 14.5765 28.4706 14.0852 27.9749C13.5929 27.4792 13.2906 26.9454 13.0632 26.3732C12.8368 25.8013 12.6852 25.1531 12.6468 24.1996C12.6094 23.2463 12.6094 22.9412 12.6094 20.5006C12.6094 18.06 12.6094 17.755 12.6468 16.8016C12.6852 15.8482 12.8368 15.2 13.0632 14.628C13.2906 14.0559 13.5929 13.5602 14.0852 13.0263C14.6148 12.5306 15.1061 12.2255 15.6732 11.9967C16.2413 11.7679 16.8842 11.6154 17.8303 11.5772ZM16.9223 20.5005C16.9223 17.9455 18.9652 15.8863 21.4994 15.8863C24.0345 15.8863 26.0774 17.9455 26.0774 20.5005C26.0774 23.0555 24.0345 25.1147 21.4994 25.1147C18.9652 25.1147 16.9223 23.0555 16.9223 20.5005ZM18.5488 20.5386C18.5488 22.1784 19.8729 23.5131 21.4994 23.5131C23.1258 23.5131 24.45 22.1784 24.45 20.5386C24.45 18.8988 23.1258 17.5641 21.4994 17.5641C19.8729 17.5641 18.5488 18.8988 18.5488 20.5386Z" fill="white"/>
</svg>
