<svg width="23" height="20" fill="none" xmlns="http://www.w3.org/2000/svg"><path d="M1.85 6.494C4.518 2.624 8.784.184 13.184.006c2.8-.09 5.84.863 7.546 3.363 1.334 1.934 1.654 4.464 1.92 6.875.187 1.756.32 3.66-.453 5.238-.907 1.845-2.88 2.708-4.693 3.304-2.347.773-4.8 1.339-7.226 1.19-2.427-.149-4.907-1.13-6.613-3.095C2.17 15.184 1.37 12.893.89 10.63c-.267-1.22 0-2.744.96-4.137z" fill="#DBDBDB"/><path d="M5.793 13.984A7.34 7.34 0 0 0 9.566 15c4.559 0 7.126-3.556 6.995-6.75.472-.315.891-.726 1.232-1.185-.445.169-.917.314-1.415.362.498-.29.89-.725 1.074-1.258-.471.266-.995.46-1.572.557A2.549 2.549 0 0 0 14.1 6c-1.599 0-2.752 1.355-2.385 2.782-2.07-.072-3.877-.967-5.083-2.347-.655 1.017-.34 2.347.76 3.025-.393 0-.786-.121-1.1-.29-.026 1.04.786 2.032 1.965 2.25-.34.096-.734.096-1.1.048.314.895 1.23 1.548 2.305 1.572a5.339 5.339 0 0 1-3.668.944z" fill="#fff"/></svg>