<svg width="22" height="20" fill="none" xmlns="http://www.w3.org/2000/svg"><path d="M3.436 2.883c3.154-3.026 6.93-3.215 8.352-2.6 2.06.874 4.413.142 6.328 1.49 1.914 1.347 3.428 3.805 3.647 6.619.237 2.908-.966 5.816-2.7 7.683-1.731 1.868-3.938 2.884-6.144 3.452-1.842.473-3.739.685-5.58.189-2.79-.78-5.29-3.405-6.2-6.927-.913-3.523.018-7.754 2.37-9.858" fill="#DBDBDB"/><path d="M10.793 5.894c1.34 0 1.49 0 2.022.02.489.022.744.107.935.171.235.085.405.192.575.383.17.17.276.34.383.575.064.17.149.446.17.936.021.532.021.68.021 2.021 0 1.34 0 1.49-.02 2.021-.022.49-.107.745-.171.936a1.305 1.305 0 0 1-.383.575c-.17.17-.34.277-.575.383-.17.064-.447.149-.935.17-.533.021-.681.021-2.022.021-1.34 0-1.49 0-2.021-.02a3.033 3.033 0 0 1-.936-.171 1.307 1.307 0 0 1-.575-.383c-.17-.17-.276-.34-.383-.575-.064-.17-.149-.446-.17-.936-.021-.532-.021-.68-.021-2.021 0-1.34 0-1.49.02-2.021.022-.49.107-.745.171-.936a1.31 1.31 0 0 1 .383-.575c.17-.17.34-.277.575-.383.17-.064.446-.149.936-.17.531 0 .68-.021 2.021-.021zm0-.894c-1.362 0-1.532 0-2.064.021-.532.022-.893.107-1.213.234a2.772 2.772 0 0 0-.893.575 2.772 2.772 0 0 0-.575.893c-.127.32-.212.681-.234 1.213-.021.532-.021.702-.021 2.064s0 1.532.021 2.064c.022.532.107.893.234 1.213.128.319.298.617.575.893.276.277.553.447.893.575.32.127.681.213 1.213.234.532.021.702.021 2.064.021s1.532 0 2.064-.021.893-.107 1.213-.234a2.56 2.56 0 0 0 .893-.575 2.38 2.38 0 0 0 .575-.893c.127-.32.212-.681.234-1.213.021-.532.021-.702.021-2.064s0-1.532-.021-2.064c-.022-.532-.107-.893-.234-1.213a2.563 2.563 0 0 0-.575-.893 2.383 2.383 0 0 0-.893-.575c-.32-.127-.681-.212-1.213-.234C12.325 5 12.155 5 10.793 5z" fill="#fff"/><path d="M10.793 7c-1.661 0-3 1.339-3 3s1.339 3 3 3 3-1.339 3-3-1.339-3-3-3zm0 4.959a1.936 1.936 0 0 1-1.933-1.934c0-1.066.867-1.934 1.933-1.934s1.934.868 1.934 1.934a1.936 1.936 0 0 1-1.934 1.934zm3.353-4.604a.499.499 0 1 1-1 0c0-.286.232-.5.5-.5.268-.018.5.214.5.5z" fill="#fff"/></svg>