<svg width="22" height="20" fill="none" xmlns="http://www.w3.org/2000/svg"><path d="M1.77 7.605C4.53 2.345 10.11-.715 15.4.143c1.428.224 2.889.747 3.992 1.829 1.395 1.343 2.11 3.47 2.337 5.559.26 2.574.528 5.925-.868 7.94-1.492 2.126-3.796 3.283-6.068 4.029-1.493.485-3.838.231-5.364.418-2.758.335-4.64-.329-6.685-2.493C1.446 16.045.732 14.03.797 12.052c.065-1.977-.162-3.514 1.201-4.708" fill="#DBDBDB"/><path d="M10.149 17h2.61v-6.058h1.833l.201-2.034h-2.034V7.75c0-.485.1-.67.603-.67h1.431V5h-1.808c-1.958 0-2.836.786-2.836 2.312v1.619H8.793v2.057h1.356V17z" fill="#fff"/></svg>